{
.appVersion = "1356";
DisplayStrings = (
"b.\012b,\012e.\012e,\012f.\012f,\012¿f\012f?\012f!\012g.\012g,\012j.\012j,\012k/endash \012o.\012o,\012p.\012p,\012q.\012r.\012r,\012r-\012s.\012s,\012s-\012t-\012v.\012v,\012w.\012w,\012y.\012y,\012y-y\012A-A\012D.\012D,\012F.\012F,\012F;\012F:\012F-\012J.\012J,\012J;\012J:\012J-J\012K-\012-M\012O.\012O,\012P.\012P,\012P-\012R-\012T.\012T,\012T;\012T:\012T-T\012U.\012U,\012U-\012V.\012V,\012V;\012V:\012V-V\012¡V\012W.\012W,\012W;\012W:\012W-W\012X-X\012Y.\012Y,\012Y;\012Y:\012Y-Y\012-Z\012\012",
"Ac\012Ad\012Ae\012Ag\012Ao\012Aq\012As\012At\012Au\012Av\012Aw\012Ay\012Bv\012Bw\012Bx\012By\012Bz\012Ca\012Cc\012Cd\012Ce\012Co\012Cv\012Cw\012Cy\012Ev\012Ew\012Ex\012Ey\012Ez\012Fa\012Fc\012Fd\012Fe\012Ff\012Fg\012Fm\012Fn\012Fo\012Fq\012Fs\012Ft\012Fu\012Fv\012Fw\012Fx\012Fy\012Fz\012Ja\012Jc\012Jd\012Je\012Jg\012Jo\012Jq\012Ka\012Kc\012Kd\012Ke\012Kg\012Ko\012Kq\012Ks\012Kt\012Ku\012Kv\012Kw\012Ky\012Lc\012Ld\012Le\012Lg\012Lf\012Lo\012Lq\012Lt\012Lu\012Lv\012Lw\012Lx\012Pa\012Pc\012Pd\012Pe\012Pg\012Po\012Pq\012Ps\012Pt\012Pu\012Pv\012Pw\012Px\012Py\012Pz\012Qj\012Ra\012Rc\012Rd\012Re\012Rg\012Ro\012Rq\012Rt\012Ru\012Rv\012Rw\012Rx\012Ry\012Sv\012Sw\012Sx\012Sy\012Ta\012Tc\012Td\012Te\012Tg\012Tn\012To\012Tq\012Ts\012Tu\012Tv\012Tw\012Tx\012Ty\012Tz\012Ua\012Uc\012Ud\012Ue\012Ug\012Uo\012Uq\012Uv\012Uw\012Ux\012Uy\012Uz\012Va\012Vc\012Vd\012Ve\012Vg\012Vn\012Vo\012Vp\012Vq\012Vr\012Vs\012Vu\012Vv\012Vw\012Vx\012Vy\012Vz\012Wa\012Wc\012Wd\012We\012Wg\012Wn\012Wo\012Wp\012Wq\012Wr\012Ws\012Wu\012Wv\012Ww\012Wx\012Wy\012Wz\012Xc\012Xd\012Xe\012Xg\012Xo\012Xq\012Xu\012Xv\012Xw\012Xy\012Ya\012Yc\012Yd\012Ye\012Yg\012Yn\012Yo\012Yq\012Ys\012Yt\012Yu\012Yv\012Yw\012Yx\012Yy\012Yz\012Zv\012Zw\012Zy\012",

glyphs = (
{
glyphname = Scaron;
lastChange = "2021-05-25 21:23:40 +0000";
layers = (
{
layerId = "89156F97-8AE0-4F29-8E8C-D321EE696556";
paths = (
{
closed = 1;
nodes = (
"349 -93 OFFCURVE",
"421 -74 OFFCURVE",
"485 -37 CURVE SMOOTH",
"561 8 OFFCURVE",
"599 67 OFFCURVE",
"599 141 CURVE SMOOTH",
"599 195 OFFCURVE",
"576 241 OFFCURVE",
"531 278 CURVE",
"489 305 OFFCURVE",
"447 331 OFFCURVE",
"406 358 CURVE SMOOTH",
"360 389 OFFCURVE",
"338 425 OFFCURVE",
"338 465 CURVE SMOOTH",
"338 483 OFFCURVE",
"343 501 OFFCURVE",
"352 517 CURVE SMOOTH",
"383 571 OFFCURVE",
"440 599 OFFCURVE",
"523 599 CURVE SMOOTH",
"552 599 OFFCURVE",
"579 594 OFFCURVE",
"604 585 CURVE SMOOTH",
"639 573 OFFCURVE",
"656 555 OFFCURVE",
"656 531 CURVE SMOOTH",
"656 513 OFFCURVE",
"645 501 OFFCURVE",
"623 491 CURVE SMOOTH",
"607 485 OFFCURVE",
"588 481 OFFCURVE",
"566 481 CURVE SMOOTH",
"500 481 OFFCURVE",
"448 493 OFFCURVE",
"411 517 CURVE SMOOTH",
"410 518 OFFCURVE",
"409 518 OFFCURVE",
"408 518 CURVE SMOOTH",
"406 518 OFFCURVE",
"405 517 OFFCURVE",
"405 515 CURVE SMOOTH",
"405 514 OFFCURVE",
"406 513 OFFCURVE",
"407 512 CURVE SMOOTH",
"424 500 OFFCURVE",
"449 488 OFFCURVE",
"485 481 CURVE SMOOTH",
"516 473 OFFCURVE",
"543 470 OFFCURVE",
"569 470 CURVE SMOOTH",
"596 470 OFFCURVE",
"618 474 OFFCURVE",
"638 482 CURVE SMOOTH",
"666 492 OFFCURVE",
"680 508 OFFCURVE",
"680 530 CURVE SMOOTH",
"680 541 OFFCURVE",
"676 552 OFFCURVE",
"668 562 CURVE SMOOTH",
"642 595 OFFCURVE",
"594 611 OFFCURVE",
"523 611 CURVE SMOOTH",
"444 611 OFFCURVE",
"381 588 OFFCURVE",
"334 543 CURVE",
"333 543 OFFCURVE",
"333 543 OFFCURVE",
"333 543 CURVE",
"307 543 OFFCURVE",
"286 532 OFFCURVE",
"269 514 CURVE SMOOTH",
"253 496 OFFCURVE",
"244 475 OFFCURVE",
"244 449 CURVE SMOOTH",
"244 402 OFFCURVE",
"264 359 OFFCURVE",
"308 327 CURVE SMOOTH",
"346 298 OFFCURVE",
"387 274 OFFCURVE",
"425 245 CURVE SMOOTH",
"468 213 OFFCURVE",
"488 171 OFFCURVE",
"488 124 CURVE SMOOTH",
"488 89 OFFCURVE",
"473 54 OFFCURVE",
"443 20 CURVE SMOOTH",
"415 -11 OFFCURVE",
"383 -33 OFFCURVE",
"348 -47 CURVE SMOOTH",
"335 -51 OFFCURVE",
"317 -55 OFFCURVE",
"295 -58 CURVE SMOOTH",
"291 -58 OFFCURVE",
"288 -60 OFFCURVE",
"288 -64 CURVE SMOOTH",
"288 -66 OFFCURVE",
"290 -67 OFFCURVE",
"293 -67 CURVE SMOOTH",
"340 -67 OFFCURVE",
"388 -48 OFFCURVE",
"434 -8 CURVE SMOOTH",
"483 34 OFFCURVE",
"506 78 OFFCURVE",
"506 124 CURVE SMOOTH",
"506 172 OFFCURVE",
"485 214 OFFCURVE",
"442 249 CURVE",
"402 276 OFFCURVE",
"361 302 OFFCURVE",
"322 332 CURVE SMOOTH",
"278 365 OFFCURVE",
"257 406 OFFCURVE",
"257 450 CURVE SMOOTH",
"257 471 OFFCURVE",
"264 490 OFFCURVE",
"277 508 CURVE SMOOTH",
"291 525 OFFCURVE",
"308 535 OFFCURVE",
"328 537 CURVE",
"306 513 OFFCURVE",
"295 486 OFFCURVE",
"295 457 CURVE SMOOTH",
"295 415 OFFCURVE",
"317 376 OFFCURVE",
"363 345 CURVE SMOOTH",
"405 316 OFFCURVE",
"448 293 OFFCURVE",
"489 263 CURVE SMOOTH",
"536 230 OFFCURVE",
"558 185 OFFCURVE",
"558 137 CURVE SMOOTH",
"558 52 OFFCURVE",
"508 -10 OFFCURVE",
"409 -50 CURVE SMOOTH",
"350 -74 OFFCURVE",
"295 -86 OFFCURVE",
"247 -86 CURVE SMOOTH",
"193 -86 OFFCURVE",
"147 -70 OFFCURVE",
"111 -41 CURVE SMOOTH",
"72 -10 OFFCURVE",
"53 33 OFFCURVE",
"53 86 CURVE SMOOTH",
"53 142 OFFCURVE",
"74 186 OFFCURVE",
"116 219 CURVE SMOOTH",
"154 250 OFFCURVE",
"200 267 OFFCURVE",
"254 267 CURVE SMOOTH",
"277 267 OFFCURVE",
"289 266 OFFCURVE",
"289 269 CURVE SMOOTH",
"289 275 OFFCURVE",
"274 277 OFFCURVE",
"242 277 CURVE SMOOTH",
"184 277 OFFCURVE",
"135 258 OFFCURVE",
"93 222 CURVE SMOOTH",
"49 184 OFFCURVE",
"28 137 OFFCURVE",
"28 80 CURVE SMOOTH",
"28 21 OFFCURVE",
"54 -24 OFFCURVE",
"108 -55 CURVE SMOOTH",
"152 -81 OFFCURVE",
"205 -93 OFFCURVE",
"269 -93 CURVE SMOOTH"
);
},
{
closed = 1;
nodes = (
"479 660 LINE",
"501 684 OFFCURVE",
"535 713 OFFCURVE",
"581 749 CURVE",
"585 756 LINE",
"581 762 LINE",
"571 761 OFFCURVE",
"550 751 OFFCURVE",
"521 733 CURVE SMOOTH",
"491 715 OFFCURVE",
"472 701 OFFCURVE",
"463 691 CURVE",
"408 736 OFFCURVE",
"376 759 OFFCURVE",
"370 759 CURVE SMOOTH",
"366 759 OFFCURVE",
"364 756 OFFCURVE",
"364 751 CURVE SMOOTH",
"364 746 OFFCURVE",
"380 729 OFFCURVE",
"413 701 CURVE SMOOTH",
"447 674 OFFCURVE",
"466 659 OFFCURVE",
"474 658 CURVE"
);
}
);
width = 634;
}
);
note = Scaron;
unicode = 0160;
},
{
glyphname = scaron;
lastChange = "2021-05-25 21:23:40 +0000";
layers = (
{
layerId = "89156F97-8AE0-4F29-8E8C-D321EE696556";
paths = (
{
closed = 1;
nodes = (
"134 -11 OFFCURVE",
"151 -4 OFFCURVE",
"163 12 CURVE SMOOTH",
"175 27 OFFCURVE",
"181 45 OFFCURVE",
"183 67 CURVE",
"216 74 OFFCURVE",
"242 96 OFFCURVE",
"263 131 CURVE SMOOTH",
"265 134 OFFCURVE",
"265 136 OFFCURVE",
"265 138 CURVE SMOOTH",
"265 141 OFFCURVE",
"264 142 OFFCURVE",
"262 142 CURVE SMOOTH",
"260 142 OFFCURVE",
"258 141 OFFCURVE",
"257 138 CURVE SMOOTH",
"244 120 OFFCURVE",
"234 106 OFFCURVE",
"226 100 CURVE SMOOTH",
"215 90 OFFCURVE",
"200 84 OFFCURVE",
"182 81 CURVE",
"182 103 OFFCURVE",
"178 128 OFFCURVE",
"169 159 CURVE SMOOTH",
"162 184 OFFCURVE",
"154 209 OFFCURVE",
"146 235 CURVE SMOOTH",
"144 240 OFFCURVE",
"143 246 OFFCURVE",
"143 251 CURVE SMOOTH",
"143 265 OFFCURVE",
"149 276 OFFCURVE",
"160 284 CURVE SMOOTH",
"170 293 OFFCURVE",
"182 296 OFFCURVE",
"197 296 CURVE SMOOTH",
"199 296 OFFCURVE",
"201 296 OFFCURVE",
"204 296 CURVE SMOOTH",
"208 295 OFFCURVE",
"211 295 OFFCURVE",
"212 295 CURVE SMOOTH",
"220 295 OFFCURVE",
"224 297 OFFCURVE",
"224 302 CURVE SMOOTH",
"224 309 OFFCURVE",
"219 314 OFFCURVE",
"211 318 CURVE SMOOTH",
"202 323 OFFCURVE",
"196 325 OFFCURVE",
"189 325 CURVE SMOOTH",
"159 325 OFFCURVE",
"133 308 OFFCURVE",
"111 274 CURVE SMOOTH",
"76 218 OFFCURVE",
"49 168 OFFCURVE",
"30 124 CURVE",
"24 133 OFFCURVE",
"17 138 OFFCURVE",
"11 138 CURVE SMOOTH",
"1 138 OFFCURVE",
"-4 128 OFFCURVE",
"-4 108 CURVE SMOOTH",
"-4 79 OFFCURVE",
"8 51 OFFCURVE",
"31 26 CURVE SMOOTH",
"55 1 OFFCURVE",
"82 -11 OFFCURVE",
"112 -11 CURVE SMOOTH"
);
},
{
closed = 1;
nodes = (
"78 20 OFFCURVE",
"64 28 OFFCURVE",
"49 44 CURVE SMOOTH",
"35 59 OFFCURVE",
"28 74 OFFCURVE",
"27 88 CURVE",
"53 67 OFFCURVE",
"92 57 OFFCURVE",
"143 57 CURVE",
"134 32 OFFCURVE",
"118 20 OFFCURVE",
"92 20 CURVE SMOOTH"
);
},
{
closed = 1;
nodes = (
"127 69 OFFCURVE",
"108 74 OFFCURVE",
"88 84 CURVE SMOOTH",
"78 88 OFFCURVE",
"61 98 OFFCURVE",
"37 111 CURVE",
"74 184 OFFCURVE",
"101 230 OFFCURVE",
"118 248 CURVE",
"115 234 OFFCURVE",
"119 207 OFFCURVE",
"128 168 CURVE SMOOTH",
"139 126 OFFCURVE",
"144 98 OFFCURVE",
"144 82 CURVE SMOOTH",
"144 77 OFFCURVE",
"144 73 OFFCURVE",
"143 68 CURVE"
);
},
{
closed = 1;
nodes = (
"194 389 LINE",
"215 412 OFFCURVE",
"249 442 OFFCURVE",
"295 477 CURVE",
"300 485 LINE",
"296 490 LINE",
"286 490 OFFCURVE",
"265 481 OFFCURVE",
"236 462 CURVE SMOOTH",
"206 444 OFFCURVE",
"187 429 OFFCURVE",
"178 419 CURVE",
"123 465 OFFCURVE",
"91 487 OFFCURVE",
"85 487 CURVE SMOOTH",
"80 487 OFFCURVE",
"78 485 OFFCURVE",
"78 480 CURVE SMOOTH",
"78 474 OFFCURVE",
"95 457 OFFCURVE",
"128 429 CURVE SMOOTH",
"162 402 OFFCURVE",
"181 388 OFFCURVE",
"189 387 CURVE"
);
}
);
width = 241;
}
);
note = scaron;
unicode = 0161;
},
{
glyphname = Yacute;
lastChange = "2021-05-25 21:23:40 +0000";
layers = (
{
layerId = "89156F97-8AE0-4F29-8E8C-D321EE696556";
paths = (
{
closed = 1;
nodes = (
"230 -432 OFFCURVE",
"262 -424 OFFCURVE",
"293 -407 CURVE SMOOTH",
"359 -370 OFFCURVE",
"416 -310 OFFCURVE",
"462 -227 CURVE SMOOTH",
"498 -162 OFFCURVE",
"529 -80 OFFCURVE",
"557 22 CURVE SMOOTH",
"560 33 OFFCURVE",
"580 116 OFFCURVE",
"616 269 CURVE SMOOTH",
"641 376 OFFCURVE",
"672 441 OFFCURVE",
"708 464 CURVE",
"718 467 OFFCURVE",
"725 470 OFFCURVE",
"730 470 CURVE",
"734 472 OFFCURVE",
"736 474 OFFCURVE",
"736 477 CURVE SMOOTH",
"736 482 OFFCURVE",
"730 484 OFFCURVE",
"715 484 CURVE SMOOTH",
"695 484 OFFCURVE",
"677 480 OFFCURVE",
"661 472 CURVE SMOOTH",
"634 459 OFFCURVE",
"611 427 OFFCURVE",
"596 373 CURVE SMOOTH",
"592 361 OFFCURVE",
"590 352 OFFCURVE",
"589 347 CURVE",
"573 320 OFFCURVE",
"560 299 OFFCURVE",
"550 284 CURVE SMOOTH",
"509 221 OFFCURVE",
"467 162 OFFCURVE",
"423 107 CURVE SMOOTH",
"352 19 OFFCURVE",
"299 -26 OFFCURVE",
"268 -26 CURVE SMOOTH",
"247 -26 OFFCURVE",
"237 -5 OFFCURVE",
"237 36 CURVE SMOOTH",
"237 136 OFFCURVE",
"285 276 OFFCURVE",
"381 455 CURVE SMOOTH",
"392 477 OFFCURVE",
"403 496 OFFCURVE",
"413 514 CURVE SMOOTH",
"419 523 OFFCURVE",
"424 531 OFFCURVE",
"427 536 CURVE",
"428 539 LINE",
"428 551 OFFCURVE",
"401 564 OFFCURVE",
"349 579 CURVE",
"360 593 OFFCURVE",
"376 609 OFFCURVE",
"397 629 CURVE",
"399 630 OFFCURVE",
"400 632 OFFCURVE",
"401 634 CURVE",
"401 636 OFFCURVE",
"400 637 OFFCURVE",
"397 637 CURVE SMOOTH",
"390 637 OFFCURVE",
"371 618 OFFCURVE",
"340 581 CURVE",
"299 592 OFFCURVE",
"258 597 OFFCURVE",
"218 597 CURVE SMOOTH",
"126 597 OFFCURVE",
"57 573 OFFCURVE",
"10 524 CURVE SMOOTH",
"-7 508 OFFCURVE",
"-14 493 OFFCURVE",
"-14 478 CURVE SMOOTH",
"-14 447 OFFCURVE",
"12 419 OFFCURVE",
"66 395 CURVE SMOOTH",
"79 390 OFFCURVE",
"88 387 OFFCURVE",
"93 387 CURVE SMOOTH",
"94 387 OFFCURVE",
"95 387 OFFCURVE",
"95 388 CURVE SMOOTH",
"95 390 OFFCURVE",
"87 394 OFFCURVE",
"72 401 CURVE SMOOTH",
"53 409 OFFCURVE",
"39 418 OFFCURVE",
"30 426 CURVE SMOOTH",
"15 438 OFFCURVE",
"8 452 OFFCURVE",
"8 468 CURVE SMOOTH",
"8 481 OFFCURVE",
"14 493 OFFCURVE",
"27 505 CURVE SMOOTH",
"74 550 OFFCURVE",
"133 573 OFFCURVE",
"204 573 CURVE SMOOTH",
"241 573 OFFCURVE",
"279 566 OFFCURVE",
"318 553 CURVE",
"263 479 OFFCURVE",
"215 387 OFFCURVE",
"174 277 CURVE SMOOTH",
"130 161 OFFCURVE",
"108 60 OFFCURVE",
"108 -26 CURVE SMOOTH",
"108 -46 OFFCURVE",
"109 -55 OFFCURVE",
"112 -55 CURVE SMOOTH",
"115 -55 OFFCURVE",
"117 -52 OFFCURVE",
"117 -46 CURVE SMOOTH",
"117 41 OFFCURVE",
"139 144 OFFCURVE",
"182 265 CURVE SMOOTH",
"224 380 OFFCURVE",
"273 475 OFFCURVE",
"327 550 CURVE",
"340 545 OFFCURVE",
"353 540 OFFCURVE",
"367 534 CURVE",
"325 462 OFFCURVE",
"286 382 OFFCURVE",
"251 294 CURVE SMOOTH",
"207 184 OFFCURVE",
"185 102 OFFCURVE",
"185 44 CURVE SMOOTH",
"185 -15 OFFCURVE",
"206 -45 OFFCURVE",
"249 -45 CURVE SMOOTH",
"296 -45 OFFCURVE",
"359 4 OFFCURVE",
"436 101 CURVE SMOOTH",
"485 161 OFFCURVE",
"532 231 OFFCURVE",
"580 311 CURVE",
"571 279 LINE SMOOTH",
"545 184 OFFCURVE",
"534 112 OFFCURVE",
"524 64 CURVE SMOOTH",
"503 -44 OFFCURVE",
"479 -124 OFFCURVE",
"455 -178 CURVE SMOOTH",
"417 -260 OFFCURVE",
"363 -322 OFFCURVE",
"292 -362 CURVE SMOOTH",
"256 -382 OFFCURVE",
"217 -392 OFFCURVE",
"174 -392 CURVE SMOOTH",
"106 -392 OFFCURVE",
"56 -367 OFFCURVE",
"23 -316 CURVE SMOOTH",
"16 -307 OFFCURVE",
"10 -293 OFFCURVE",
"3 -275 CURVE",
"0 -270 OFFCURVE",
"-2 -267 OFFCURVE",
"-4 -267 CURVE SMOOTH",
"-6 -267 OFFCURVE",
"-7 -269 OFFCURVE",
"-7 -272 CURVE SMOOTH",
"-7 -274 OFFCURVE",
"-7 -276 OFFCURVE",
"-6 -277 CURVE SMOOTH",
"10 -324 OFFCURVE",
"36 -360 OFFCURVE",
"69 -388 CURVE SMOOTH",
"106 -417 OFFCURVE",
"148 -432 OFFCURVE",
"195 -432 CURVE SMOOTH"
);
},
{
closed = 1;
nodes = (
"538 574 OFFCURVE",
"555 582 OFFCURVE",
"583 600 CURVE SMOOTH",
"601 612 OFFCURVE",
"618 623 OFFCURVE",
"637 635 CURVE SMOOTH",
"645 640 OFFCURVE",
"655 644 OFFCURVE",
"663 650 CURVE SMOOTH",
"675 657 OFFCURVE",
"681 664 OFFCURVE",
"681 671 CURVE SMOOTH",
"681 677 OFFCURVE",
"678 682 OFFCURVE",
"672 687 CURVE SMOOTH",
"665 692 OFFCURVE",
"659 694 OFFCURVE",
"653 694 CURVE SMOOTH",
"638 694 OFFCURVE",
"630 689 OFFCURVE",
"627 679 CURVE SMOOTH",
"621 663 OFFCURVE",
"610 647 OFFCURVE",
"592 631 CURVE SMOOTH",
"589 628 OFFCURVE",
"574 616 OFFCURVE",
"544 594 CURVE SMOOTH",
"535 587 OFFCURVE",
"530 580 OFFCURVE",
"530 576 CURVE SMOOTH",
"530 575 OFFCURVE",
"531 575 OFFCURVE",
"533 574 CURVE"
);
}
);
width = 672;
}
);
note = Yacute;
unicode = 00DD;
},
{
glyphname = yacute;
lastChange = "2021-05-25 21:23:40 +0000";
layers = (
{
layerId = "89156F97-8AE0-4F29-8E8C-D321EE696556";
paths = (
{
closed = 1;
nodes = (
"-61 -388 OFFCURVE",
"-33 -380 OFFCURVE",
"-8 -366 CURVE SMOOTH",
"48 -334 OFFCURVE",
"95 -284 OFFCURVE",
"134 -215 CURVE SMOOTH",
"164 -161 OFFCURVE",
"191 -91 OFFCURVE",
"215 -6 CURVE SMOOTH",
"218 4 OFFCURVE",
"234 73 OFFCURVE",
"264 201 CURVE SMOOTH",
"285 289 OFFCURVE",
"309 343 OFFCURVE",
"338 364 CURVE",
"344 367 OFFCURVE",
"352 370 OFFCURVE",
"360 371 CURVE SMOOTH",
"363 372 OFFCURVE",
"365 373 OFFCURVE",
"365 376 CURVE SMOOTH",
"365 380 OFFCURVE",
"359 382 OFFCURVE",
"348 382 CURVE SMOOTH",
"317 382 OFFCURVE",
"294 372 OFFCURVE",
"277 352 CURVE SMOOTH",
"265 338 OFFCURVE",
"255 314 OFFCURVE",
"245 280 CURVE",
"208 261 OFFCURVE",
"163 203 OFFCURVE",
"111 106 CURVE",
"128 157 OFFCURVE",
"137 202 OFFCURVE",
"137 245 CURVE SMOOTH",
"137 296 OFFCURVE",
"124 322 OFFCURVE",
"97 322 CURVE SMOOTH",
"83 322 OFFCURVE",
"66 314 OFFCURVE",
"45 299 CURVE SMOOTH",
"25 285 OFFCURVE",
"10 271 OFFCURVE",
"2 257 CURVE",
"1 255 OFFCURVE",
"0 253 OFFCURVE",
"0 251 CURVE SMOOTH",
"0 248 OFFCURVE",
"1 247 OFFCURVE",
"3 247 CURVE SMOOTH",
"4 247 OFFCURVE",
"12 256 OFFCURVE",
"29 272 CURVE SMOOTH",
"47 287 OFFCURVE",
"62 295 OFFCURVE",
"74 295 CURVE SMOOTH",
"96 295 OFFCURVE",
"107 270 OFFCURVE",
"107 218 CURVE SMOOTH",
"107 150 OFFCURVE",
"102 98 OFFCURVE",
"89 62 CURVE",
"89 61 OFFCURVE",
"86 54 OFFCURVE",
"81 42 CURVE SMOOTH",
"76 29 OFFCURVE",
"73 23 OFFCURVE",
"73 22 CURVE SMOOTH",
"73 17 OFFCURVE",
"76 12 OFFCURVE",
"81 8 CURVE SMOOTH",
"86 3 OFFCURVE",
"90 1 OFFCURVE",
"95 1 CURVE SMOOTH",
"98 1 OFFCURVE",
"99 2 OFFCURVE",
"99 3 CURVE",
"155 150 OFFCURVE",
"203 239 OFFCURVE",
"242 270 CURVE",
"226 211 LINE SMOOTH",
"204 131 OFFCURVE",
"195 70 OFFCURVE",
"187 29 CURVE SMOOTH",
"169 -62 OFFCURVE",
"149 -129 OFFCURVE",
"129 -174 CURVE SMOOTH",
"97 -243 OFFCURVE",
"51 -295 OFFCURVE",
"-9 -329 CURVE SMOOTH",
"-39 -346 OFFCURVE",
"-72 -354 OFFCURVE",
"-107 -354 CURVE SMOOTH",
"-177 -354 OFFCURVE",
"-225 -321 OFFCURVE",
"-252 -255 CURVE SMOOTH",
"-254 -251 OFFCURVE",
"-255 -249 OFFCURVE",
"-257 -249 CURVE SMOOTH",
"-258 -249 OFFCURVE",
"-259 -250 OFFCURVE",
"-259 -253 CURVE SMOOTH",
"-259 -284 OFFCURVE",
"-240 -314 OFFCURVE",
"-201 -344 CURVE SMOOTH",
"-162 -373 OFFCURVE",
"-125 -388 OFFCURVE",
"-90 -388 CURVE SMOOTH"
);
},
{
closed = 1;
nodes = (
"181 420 OFFCURVE",
"199 428 OFFCURVE",
"227 447 CURVE SMOOTH",
"244 457 OFFCURVE",
"261 468 OFFCURVE",
"279 480 CURVE SMOOTH",
"288 485 OFFCURVE",
"297 489 OFFCURVE",
"306 495 CURVE SMOOTH",
"318 503 OFFCURVE",
"324 510 OFFCURVE",
"324 517 CURVE SMOOTH",
"324 523 OFFCURVE",
"321 528 OFFCURVE",
"314 533 CURVE SMOOTH",
"308 537 OFFCURVE",
"302 540 OFFCURVE",
"296 540 CURVE SMOOTH",
"282 540 OFFCURVE",
"274 535 OFFCURVE",
"270 524 CURVE SMOOTH",
"264 508 OFFCURVE",
"254 492 OFFCURVE",
"236 476 CURVE SMOOTH",
"233 473 OFFCURVE",
"217 462 OFFCURVE",
"187 439 CURVE SMOOTH",
"179 432 OFFCURVE",
"174 427 OFFCURVE",
"174 422 CURVE SMOOTH",
"174 421 OFFCURVE",
"175 420 OFFCURVE",
"177 420 CURVE SMOOTH"
);
}
);
width = 324;
}
);
note = yacute;
unicode = 00FD;
},
{
glyphname = Thorn;
lastChange = "2021-05-25 21:23:40 +0000";
layers = (
{
layerId = "89156F97-8AE0-4F29-8E8C-D321EE696556";
paths = (
{
closed = 1;
nodes = (
"76 -267 OFFCURVE",
"91 -262 OFFCURVE",
"109 -254 CURVE SMOOTH",
"126 -245 OFFCURVE",
"138 -235 OFFCURVE",
"144 -224 CURVE",
"110 -245 OFFCURVE",
"81 -256 OFFCURVE",
"57 -256 CURVE SMOOTH",
"20 -256 OFFCURVE",
"2 -227 OFFCURVE",
"2 -171 CURVE SMOOTH",
"2 -109 OFFCURVE",
"19 -31 OFFCURVE",
"53 65 CURVE SMOOTH",
"69 108 OFFCURVE",
"101 184 OFFCURVE",
"147 292 CURVE SMOOTH",
"197 405 OFFCURVE",
"230 485 OFFCURVE",
"248 530 CURVE",
"329 440 OFFCURVE",
"370 362 OFFCURVE",
"370 296 CURVE SMOOTH",
"370 270 OFFCURVE",
"358 249 OFFCURVE",
"334 233 CURVE SMOOTH",
"314 219 OFFCURVE",
"289 211 OFFCURVE",
"260 211 CURVE SMOOTH",
"221 211 OFFCURVE",
"182 225 OFFCURVE",
"143 254 CURVE SMOOTH",
"140 256 OFFCURVE",
"139 257 OFFCURVE",
"138 257 CURVE SMOOTH",
"136 257 OFFCURVE",
"135 256 OFFCURVE",
"135 253 CURVE SMOOTH",
"135 244 OFFCURVE",
"140 236 OFFCURVE",
"149 228 CURVE SMOOTH",
"181 202 OFFCURVE",
"219 190 OFFCURVE",
"265 190 CURVE SMOOTH",
"300 190 OFFCURVE",
"333 199 OFFCURVE",
"361 217 CURVE SMOOTH",
"394 238 OFFCURVE",
"411 264 OFFCURVE",
"411 297 CURVE SMOOTH",
"411 357 OFFCURVE",
"361 442 OFFCURVE",
"260 551 CURVE",
"292 618 OFFCURVE",
"315 662 OFFCURVE",
"330 685 CURVE SMOOTH",
"336 695 OFFCURVE",
"342 702 OFFCURVE",
"349 706 CURVE SMOOTH",
"355 710 OFFCURVE",
"360 715 OFFCURVE",
"365 723 CURVE SMOOTH",
"366 724 OFFCURVE",
"366 726 OFFCURVE",
"366 728 CURVE SMOOTH",
"366 733 OFFCURVE",
"360 736 OFFCURVE",
"348 736 CURVE SMOOTH",
"330 736 OFFCURVE",
"317 731 OFFCURVE",
"310 719 CURVE SMOOTH",
"303 708 OFFCURVE",
"297 696 OFFCURVE",
"292 686 CURVE SMOOTH",
"199 504 OFFCURVE",
"108 301 OFFCURVE",
"20 80 CURVE SMOOTH",
"5 43 OFFCURVE",
"-11 6 OFFCURVE",
"-26 -31 CURVE SMOOTH",
"-46 -83 OFFCURVE",
"-54 -122 OFFCURVE",
"-54 -145 CURVE SMOOTH",
"-54 -148 LINE SMOOTH",
"-54 -180 OFFCURVE",
"-44 -207 OFFCURVE",
"-20 -231 CURVE SMOOTH",
"4 -255 OFFCURVE",
"31 -267 OFFCURVE",
"63 -267 CURVE SMOOTH"
);
}
);
width = 417;
}
);
note = Thorn;
unicode = 00DE;
},
{
glyphname = thorn;
lastChange = "2021-05-25 21:23:40 +0000";
layers = (
{
layerId = "89156F97-8AE0-4F29-8E8C-D321EE696556";
paths = (
{
closed = 1;
nodes = (
"-31 -479 OFFCURVE",
"-16 -474 OFFCURVE",
"2 -466 CURVE SMOOTH",
"20 -457 OFFCURVE",
"31 -447 OFFCURVE",
"37 -436 CURVE",
"3 -457 OFFCURVE",
"-27 -467 OFFCURVE",
"-50 -467 CURVE SMOOTH",
"-87 -467 OFFCURVE",
"-105 -439 OFFCURVE",
"-105 -383 CURVE SMOOTH",
"-105 -306 OFFCURVE",
"-81 -203 OFFCURVE",
"-29 -76 CURVE SMOOTH",
"12 24 OFFCURVE",
"56 124 OFFCURVE",
"99 223 CURVE",
"155 162 OFFCURVE",
"183 109 OFFCURVE",
"183 67 CURVE SMOOTH",
"183 50 OFFCURVE",
"176 37 OFFCURVE",
"162 27 CURVE SMOOTH",
"147 17 OFFCURVE",
"132 12 OFFCURVE",
"115 12 CURVE SMOOTH",
"98 12 OFFCURVE",
"79 18 OFFCURVE",
"58 29 CURVE SMOOTH",
"38 38 OFFCURVE",
"29 44 OFFCURVE",
"32 44 CURVE SMOOTH",
"31 44 OFFCURVE",
"30 43 OFFCURVE",
"30 41 CURVE SMOOTH",
"30 29 OFFCURVE",
"43 18 OFFCURVE",
"68 9 CURVE SMOOTH",
"88 1 OFFCURVE",
"106 -3 OFFCURVE",
"123 -3 CURVE SMOOTH",
"148 -3 OFFCURVE",
"171 4 OFFCURVE",
"191 16 CURVE SMOOTH",
"215 30 OFFCURVE",
"226 49 OFFCURVE",
"226 73 CURVE SMOOTH",
"226 115 OFFCURVE",
"190 175 OFFCURVE",
"119 254 CURVE",
"203 422 OFFCURVE",
"268 548 OFFCURVE",
"313 632 CURVE SMOOTH",
"314 634 OFFCURVE",
"314 636 OFFCURVE",
"314 637 CURVE SMOOTH",
"314 642 OFFCURVE",
"308 645 OFFCURVE",
"296 645 CURVE SMOOTH",
"277 645 OFFCURVE",
"264 639 OFFCURVE",
"257 629 CURVE SMOOTH",
"256 626 OFFCURVE",
"249 615 OFFCURVE",
"238 593 CURVE SMOOTH",
"137 392 OFFCURVE",
"32 161 OFFCURVE",
"-74 -102 CURVE SMOOTH",
"-91 -144 OFFCURVE",
"-109 -186 OFFCURVE",
"-126 -229 CURVE SMOOTH",
"-150 -288 OFFCURVE",
"-162 -332 OFFCURVE",
"-162 -357 CURVE SMOOTH",
"-162 -359 LINE SMOOTH",
"-162 -390 OFFCURVE",
"-150 -419 OFFCURVE",
"-126 -443 CURVE SMOOTH",
"-103 -466 OFFCURVE",
"-76 -479 OFFCURVE",
"-45 -479 CURVE SMOOTH"
);
}
);
width = 221;
}
);
note = thorn;
unicode = 00FE;
},
{
glyphname = Lslash;
lastChange = "2021-05-25 21:23:40 +0000";
layers = (
{
layerId = "89156F97-8AE0-4F29-8E8C-D321EE696556";
paths = (
{
closed = 1;
nodes = (
"494 -115 OFFCURVE",
"510 -113 OFFCURVE",
"526 -110 CURVE SMOOTH",
"560 -104 OFFCURVE",
"592 -87 OFFCURVE",
"622 -65 CURVE SMOOTH",
"658 -37 OFFCURVE",
"676 -9 OFFCURVE",
"676 22 CURVE SMOOTH",
"676 48 OFFCURVE",
"665 71 OFFCURVE",
"641 93 CURVE SMOOTH",
"635 100 OFFCURVE",
"630 103 OFFCURVE",
"628 103 CURVE SMOOTH",
"627 103 OFFCURVE",
"626 102 OFFCURVE",
"626 101 CURVE SMOOTH",
"626 98 OFFCURVE",
"633 86 OFFCURVE",
"647 67 CURVE SMOOTH",
"660 47 OFFCURVE",
"667 30 OFFCURVE",
"667 16 CURVE SMOOTH",
"667 -11 OFFCURVE",
"645 -30 OFFCURVE",
"602 -43 CURVE SMOOTH",
"575 -50 OFFCURVE",
"542 -55 OFFCURVE",
"503 -55 CURVE SMOOTH",
"444 -55 OFFCURVE",
"371 -47 OFFCURVE",
"285 -29 CURVE SMOOTH",
"213 -15 OFFCURVE",
"141 0 OFFCURVE",
"68 14 CURVE",
"88 33 OFFCURVE",
"107 57 OFFCURVE",
"128 86 CURVE SMOOTH",
"139 100 OFFCURVE",
"157 126 OFFCURVE",
"181 163 CURVE SMOOTH",
"258 285 LINE",
"311 307 OFFCURVE",
"357 324 OFFCURVE",
"399 335 CURVE SMOOTH",
"430 344 OFFCURVE",
"455 349 OFFCURVE",
"471 352 CURVE SMOOTH",
"475 353 OFFCURVE",
"477 355 OFFCURVE",
"477 359 CURVE SMOOTH",
"477 364 OFFCURVE",
"474 366 OFFCURVE",
"469 366 CURVE SMOOTH",
"467 366 OFFCURVE",
"458 365 OFFCURVE",
"440 363 CURVE SMOOTH",
"386 356 OFFCURVE",
"334 346 OFFCURVE",
"288 331 CURVE",
"341 413 OFFCURVE",
"386 480 OFFCURVE",
"421 531 CURVE SMOOTH",
"464 593 OFFCURVE",
"503 624 OFFCURVE",
"540 624 CURVE SMOOTH",
"565 624 OFFCURVE",
"585 609 OFFCURVE",
"599 580 CURVE SMOOTH",
"611 557 OFFCURVE",
"618 531 OFFCURVE",
"618 502 CURVE SMOOTH",
"618 472 OFFCURVE",
"611 443 OFFCURVE",
"598 413 CURVE SMOOTH",
"597 410 OFFCURVE",
"596 409 OFFCURVE",
"596 408 CURVE SMOOTH",
"596 404 OFFCURVE",
"598 402 OFFCURVE",
"602 402 CURVE SMOOTH",
"605 402 OFFCURVE",
"608 403 OFFCURVE",
"609 405 CURVE SMOOTH",
"623 439 OFFCURVE",
"631 476 OFFCURVE",
"631 517 CURVE SMOOTH",
"631 552 OFFCURVE",
"624 582 OFFCURVE",
"609 607 CURVE SMOOTH",
"591 637 OFFCURVE",
"565 652 OFFCURVE",
"533 652 CURVE SMOOTH",
"486 652 OFFCURVE",
"439 622 OFFCURVE",
"393 560 CURVE SMOOTH",
"363 518 OFFCURVE",
"343 485 OFFCURVE",
"329 463 CURVE SMOOTH",
"280 388 OFFCURVE",
"247 336 OFFCURVE",
"229 309 CURVE",
"169 283 OFFCURVE",
"124 264 OFFCURVE",
"95 251 CURVE SMOOTH",
"64 238 OFFCURVE",
"39 227 OFFCURVE",
"23 220 CURVE SMOOTH",
"20 219 OFFCURVE",
"19 217 OFFCURVE",
"19 212 CURVE SMOOTH",
"19 196 OFFCURVE",
"23 188 OFFCURVE",
"31 188 CURVE SMOOTH",
"35 188 OFFCURVE",
"89 211 OFFCURVE",
"193 257 CURVE",
"65 68 OFFCURVE",
"-24 -26 OFFCURVE",
"-70 -26 CURVE SMOOTH",
"-85 -26 OFFCURVE",
"-92 -29 OFFCURVE",
"-92 -33 CURVE SMOOTH",
"-92 -42 OFFCURVE",
"-82 -46 OFFCURVE",
"-61 -46 CURVE SMOOTH",
"-45 -46 OFFCURVE",
"-26 -41 OFFCURVE",
"-6 -29 CURVE SMOOTH",
"11 -20 OFFCURVE",
"29 -10 OFFCURVE",
"45 0 CURVE",
"68 -5 OFFCURVE",
"140 -29 OFFCURVE",
"260 -69 CURVE SMOOTH",
"352 -100 OFFCURVE",
"424 -115 OFFCURVE",
"478 -115 CURVE SMOOTH"
);
}
);
width = 697;
}
);
note = Lslash;
unicode = 0141;
},
{
glyphname = Zcaron;
lastChange = "2021-05-25 21:23:40 +0000";
layers = (
{
layerId = "89156F97-8AE0-4F29-8E8C-D321EE696556";
paths = (
{
closed = 1;
nodes = (
"703 -115 OFFCURVE",
"732 -107 OFFCURVE",
"762 -92 CURVE SMOOTH",
"797 -74 OFFCURVE",
"815 -51 OFFCURVE",
"815 -24 CURVE SMOOTH",
"815 -13 OFFCURVE",
"811 -1 OFFCURVE",
"803 13 CURVE SMOOTH",
"794 28 OFFCURVE",
"786 36 OFFCURVE",
"777 40 CURVE",
"796 12 OFFCURVE",
"806 -11 OFFCURVE",
"806 -30 CURVE SMOOTH",
"806 -60 OFFCURVE",
"779 -75 OFFCURVE",
"726 -75 CURVE SMOOTH",
"670 -75 OFFCURVE",
"599 -61 OFFCURVE",
"513 -29 CURVE SMOOTH",
"443 -2 OFFCURVE",
"374 26 OFFCURVE",
"305 52 CURVE",
"398 146 OFFCURVE",
"467 217 OFFCURVE",
"513 264 CURVE",
"542 265 OFFCURVE",
"571 266 OFFCURVE",
"599 266 CURVE SMOOTH",
"609 266 OFFCURVE",
"623 265 OFFCURVE",
"642 264 CURVE SMOOTH",
"661 263 OFFCURVE",
"675 262 OFFCURVE",
"685 262 CURVE SMOOTH",
"689 262 OFFCURVE",
"691 263 OFFCURVE",
"691 264 CURVE SMOOTH",
"691 265 OFFCURVE",
"689 267 OFFCURVE",
"684 268 CURVE SMOOTH",
"647 276 OFFCURVE",
"597 280 OFFCURVE",
"532 282 CURVE",
"656 405 OFFCURVE",
"757 492 OFFCURVE",
"836 543 CURVE",
"927 542 OFFCURVE",
"973 551 OFFCURVE",
"973 570 CURVE SMOOTH",
"973 580 OFFCURVE",
"961 584 OFFCURVE",
"938 584 CURVE SMOOTH",
"909 584 OFFCURVE",
"877 576 OFFCURVE",
"842 559 CURVE",
"819 561 OFFCURVE",
"792 565 OFFCURVE",
"761 572 CURVE",
"792 591 OFFCURVE",
"824 608 OFFCURVE",
"854 620 CURVE SMOOTH",
"875 629 OFFCURVE",
"892 635 OFFCURVE",
"903 638 CURVE SMOOTH",
"910 641 OFFCURVE",
"913 645 OFFCURVE",
"913 650 CURVE SMOOTH",
"913 651 OFFCURVE",
"912 652 OFFCURVE",
"911 652 CURVE SMOOTH",
"901 652 OFFCURVE",
"873 640 OFFCURVE",
"829 618 CURVE SMOOTH",
"794 601 OFFCURVE",
"768 586 OFFCURVE",
"749 574 CURVE",
"696 586 OFFCURVE",
"645 598 OFFCURVE",
"593 609 CURVE SMOOTH",
"531 622 OFFCURVE",
"479 628 OFFCURVE",
"434 628 CURVE SMOOTH",
"412 628 OFFCURVE",
"392 626 OFFCURVE",
"374 623 CURVE SMOOTH",
"346 618 OFFCURVE",
"320 607 OFFCURVE",
"297 588 CURVE SMOOTH",
"272 567 OFFCURVE",
"258 543 OFFCURVE",
"258 518 CURVE SMOOTH",
"258 499 OFFCURVE",
"266 480 OFFCURVE",
"280 461 CURVE",
"283 460 LINE",
"288 461 OFFCURVE",
"290 463 OFFCURVE",
"290 467 CURVE SMOOTH",
"290 466 OFFCURVE",
"287 472 OFFCURVE",
"280 483 CURVE SMOOTH",
"275 493 OFFCURVE",
"272 503 OFFCURVE",
"272 511 CURVE SMOOTH",
"272 538 OFFCURVE",
"293 559 OFFCURVE",
"333 573 CURVE SMOOTH",
"363 583 OFFCURVE",
"394 588 OFFCURVE",
"428 588 CURVE SMOOTH",
"465 588 OFFCURVE",
"513 583 OFFCURVE",
"572 575 CURVE SMOOTH",
"620 568 OFFCURVE",
"668 561 OFFCURVE",
"716 553 CURVE",
"628 493 OFFCURVE",
"527 403 OFFCURVE",
"413 282 CURVE",
"319 278 OFFCURVE",
"272 260 OFFCURVE",
"272 229 CURVE SMOOTH",
"272 220 OFFCURVE",
"275 214 OFFCURVE",
"280 207 CURVE SMOOTH",
"288 198 OFFCURVE",
"295 193 OFFCURVE",
"301 193 CURVE",
"302 194 OFFCURVE",
"302 194 OFFCURVE",
"302 195 CURVE",
"302 194 OFFCURVE",
"301 196 OFFCURVE",
"299 200 CURVE SMOOTH",
"297 202 OFFCURVE",
"296 206 OFFCURVE",
"296 209 CURVE SMOOTH",
"296 227 OFFCURVE",
"325 240 OFFCURVE",
"383 251 CURVE",
"286 147 OFFCURVE",
"232 89 OFFCURVE",
"221 78 CURVE",
"184 86 OFFCURVE",
"151 91 OFFCURVE",
"121 91 CURVE SMOOTH",
"89 91 OFFCURVE",
"61 86 OFFCURVE",
"37 73 CURVE SMOOTH",
"7 58 OFFCURVE",
"-9 36 OFFCURVE",
"-9 7 CURVE SMOOTH",
"-9 -15 OFFCURVE",
"3 -33 OFFCURVE",
"27 -49 CURVE SMOOTH",
"48 -64 OFFCURVE",
"69 -71 OFFCURVE",
"91 -71 CURVE SMOOTH",
"133 -71 OFFCURVE",
"171 -61 OFFCURVE",
"205 -39 CURVE SMOOTH",
"231 -23 OFFCURVE",
"261 4 OFFCURVE",
"295 41 CURVE",
"357 10 OFFCURVE",
"419 -23 OFFCURVE",
"481 -54 CURVE SMOOTH",
"561 -95 OFFCURVE",
"625 -115 OFFCURVE",
"672 -115 CURVE SMOOTH"
);
},
{
closed = 1;
nodes = (
"77 -50 OFFCURVE",
"57 -45 OFFCURVE",
"39 -33 CURVE SMOOTH",
"18 -20 OFFCURVE",
"8 -3 OFFCURVE",
"8 18 CURVE SMOOTH",
"8 41 OFFCURVE",
"22 59 OFFCURVE",
"49 71 CURVE SMOOTH",
"71 81 OFFCURVE",
"95 86 OFFCURVE",
"122 86 CURVE SMOOTH",
"143 86 OFFCURVE",
"174 81 OFFCURVE",
"213 70 CURVE",
"155 13 OFFCURVE",
"109 -15 OFFCURVE",
"78 -15 CURVE SMOOTH",
"75 -15 OFFCURVE",
"74 -15 OFFCURVE",
"73 -15 CURVE",
"77 -20 OFFCURVE",
"84 -23 OFFCURVE",
"94 -23 CURVE SMOOTH",
"124 -23 OFFCURVE",
"169 7 OFFCURVE",
"229 66 CURVE",
"254 59 OFFCURVE",
"272 51 OFFCURVE",
"282 45 CURVE",
"266 23 OFFCURVE",
"238 1 OFFCURVE",
"199 -20 CURVE SMOOTH",
"160 -40 OFFCURVE",
"126 -50 OFFCURVE",
"99 -50 CURVE SMOOTH"
);
},
{
closed = 1;
nodes = (
"272 64 OFFCURVE",
"254 69 OFFCURVE",
"237 74 CURVE",
"314 154 OFFCURVE",
"372 214 OFFCURVE",
"410 255 CURVE",
"428 257 OFFCURVE",
"448 259 OFFCURVE",
"469 261 CURVE",
"390 171 OFFCURVE",
"331 104 OFFCURVE",
"292 57 CURVE"
);
},
{
closed = 1;
nodes = (
"557 409 OFFCURVE",
"655 499 OFFCURVE",
"731 551 CURVE",
"760 548 OFFCURVE",
"789 545 OFFCURVE",
"814 544 CURVE",
"711 487 OFFCURVE",
"602 400 OFFCURVE",
"491 283 CURVE",
"473 284 OFFCURVE",
"455 284 OFFCURVE",
"437 283 CURVE"
);
},
{
closed = 1;
nodes = (
"710 669 LINE",
"732 693 OFFCURVE",
"766 721 OFFCURVE",
"812 756 CURVE",
"816 764 LINE",
"812 770 LINE",
"802 770 OFFCURVE",
"781 760 OFFCURVE",
"751 741 CURVE SMOOTH",
"722 723 OFFCURVE",
"703 709 OFFCURVE",
"694 698 CURVE",
"638 744 OFFCURVE",
"607 767 OFFCURVE",
"600 767 CURVE SMOOTH",
"597 767 OFFCURVE",
"595 764 OFFCURVE",
"595 759 CURVE SMOOTH",
"595 753 OFFCURVE",
"611 736 OFFCURVE",
"644 709 CURVE SMOOTH",
"677 681 OFFCURVE",
"697 667 OFFCURVE",
"705 666 CURVE"
);
},
{
closed = 1;
nodes = (
"878 557 OFFCURVE",
"872 557 OFFCURVE",
"865 558 CURVE",
"887 567 OFFCURVE",
"907 572 OFFCURVE",
"923 572 CURVE SMOOTH",
"932 572 OFFCURVE",
"937 571 OFFCURVE",
"937 568 CURVE SMOOTH",
"937 561 OFFCURVE",
"922 557 OFFCURVE",
"892 557 CURVE SMOOTH",
"882 557 LINE SMOOTH"
);
}
);
width = 778;
}
);
note = Zcaron;
unicode = 017D;
},
{
glyphname = zcaron;
lastChange = "2021-05-25 21:23:40 +0000";
layers = (
{
layerId = "89156F97-8AE0-4F29-8E8C-D321EE696556";
paths = (
{
closed = 1;
nodes = (
"-169 -366 OFFCURVE",
"-123 -352 OFFCURVE",
"-67 -327 CURVE SMOOTH",
"4 -294 OFFCURVE",
"65 -252 OFFCURVE",
"117 -200 CURVE SMOOTH",
"177 -143 OFFCURVE",
"215 -80 OFFCURVE",
"232 -13 CURVE",
"244 -13 OFFCURVE",
"259 -16 OFFCURVE",
"277 -23 CURVE SMOOTH",
"300 -30 OFFCURVE",
"312 -39 OFFCURVE",
"312 -48 CURVE SMOOTH",
"312 -48 OFFCURVE",
"312 -50 OFFCURVE",
"311 -52 CURVE SMOOTH",
"310 -53 OFFCURVE",
"310 -55 OFFCURVE",
"310 -56 CURVE SMOOTH",
"310 -59 OFFCURVE",
"311 -60 OFFCURVE",
"313 -60 CURVE SMOOTH",
"320 -60 OFFCURVE",
"324 -53 OFFCURVE",
"324 -41 CURVE SMOOTH",
"324 -29 OFFCURVE",
"312 -18 OFFCURVE",
"288 -10 CURVE SMOOTH",
"269 -3 OFFCURVE",
"251 0 OFFCURVE",
"235 1 CURVE",
"241 27 OFFCURVE",
"245 54 OFFCURVE",
"245 86 CURVE SMOOTH",
"245 150 OFFCURVE",
"227 182 OFFCURVE",
"190 182 CURVE SMOOTH",
"178 182 OFFCURVE",
"162 177 OFFCURVE",
"145 166 CURVE",
"190 215 OFFCURVE",
"212 254 OFFCURVE",
"212 282 CURVE SMOOTH",
"212 301 OFFCURVE",
"198 311 OFFCURVE",
"169 311 CURVE SMOOTH",
"134 311 OFFCURVE",
"95 274 OFFCURVE",
"51 200 CURVE SMOOTH",
"36 174 OFFCURVE",
"24 153 OFFCURVE",
"13 135 CURVE SMOOTH",
"11 132 OFFCURVE",
"10 129 OFFCURVE",
"10 127 CURVE SMOOTH",
"10 124 OFFCURVE",
"11 123 OFFCURVE",
"14 123 CURVE SMOOTH",
"16 123 OFFCURVE",
"19 124 OFFCURVE",
"21 128 CURVE SMOOTH",
"87 238 OFFCURVE",
"136 292 OFFCURVE",
"167 292 CURVE SMOOTH",
"176 292 OFFCURVE",
"181 287 OFFCURVE",
"181 277 CURVE SMOOTH",
"181 262 OFFCURVE",
"168 238 OFFCURVE",
"144 206 CURVE SMOOTH",
"125 181 OFFCURVE",
"107 159 OFFCURVE",
"89 143 CURVE SMOOTH",
"86 140 OFFCURVE",
"85 137 OFFCURVE",
"85 134 CURVE SMOOTH",
"85 128 OFFCURVE",
"87 125 OFFCURVE",
"94 125 CURVE",
"94 125 OFFCURVE",
"104 130 OFFCURVE",
"122 139 CURVE SMOOTH",
"140 147 OFFCURVE",
"154 152 OFFCURVE",
"166 152 CURVE SMOOTH",
"198 152 OFFCURVE",
"213 129 OFFCURVE",
"213 83 CURVE SMOOTH",
"213 58 OFFCURVE",
"208 30 OFFCURVE",
"200 1 CURVE",
"80 -2 OFFCURVE",
"-25 -29 OFFCURVE",
"-114 -82 CURVE SMOOTH",
"-158 -107 OFFCURVE",
"-196 -137 OFFCURVE",
"-228 -171 CURVE SMOOTH",
"-270 -216 OFFCURVE",
"-290 -258 OFFCURVE",
"-290 -297 CURVE SMOOTH",
"-290 -343 OFFCURVE",
"-262 -366 OFFCURVE",
"-208 -366 CURVE SMOOTH"
);
},
{
closed = 1;
nodes = (
"-247 -339 OFFCURVE",
"-271 -323 OFFCURVE",
"-271 -292 CURVE SMOOTH",
"-271 -261 OFFCURVE",
"-252 -227 OFFCURVE",
"-214 -187 CURVE SMOOTH",
"-184 -157 OFFCURVE",
"-153 -130 OFFCURVE",
"-118 -109 CURVE SMOOTH",
"-75 -83 OFFCURVE",
"-25 -61 OFFCURVE",
"33 -43 CURVE SMOOTH",
"91 -26 OFFCURVE",
"145 -16 OFFCURVE",
"197 -14 CURVE",
"172 -97 OFFCURVE",
"122 -170 OFFCURVE",
"46 -236 CURVE SMOOTH",
"-35 -305 OFFCURVE",
"-116 -339 OFFCURVE",
"-199 -339 CURVE SMOOTH"
);
},
{
closed = 1;
nodes = (
"222 381 LINE",
"243 405 OFFCURVE",
"277 434 OFFCURVE",
"324 469 CURVE",
"329 477 LINE",
"325 483 LINE",
"314 482 OFFCURVE",
"294 472 OFFCURVE",
"264 454 CURVE SMOOTH",
"235 436 OFFCURVE",
"216 422 OFFCURVE",
"206 411 CURVE",
"150 457 OFFCURVE",
"119 480 OFFCURVE",
"112 480 CURVE SMOOTH",
"108 480 OFFCURVE",
"106 477 OFFCURVE",
"106 471 CURVE SMOOTH",
"106 466 OFFCURVE",
"124 449 OFFCURVE",
"157 422 CURVE SMOOTH",
"190 394 OFFCURVE",
"210 380 OFFCURVE",
"217 379 CURVE"
);
}
);
width = 265;
}
);
note = zcaron;
unicode = 017E;
},
{
glyphname = onehalf;
lastChange = "2021-05-25 21:23:40 +0000";
layers = (
{
layerId = "89156F97-8AE0-4F29-8E8C-D321EE696556";
paths = (
{
closed = 1;
nodes = (
"11 -117 OFFCURVE",
"11 -117 OFFCURVE",
"12 -116 CURVE",
"20 -85 OFFCURVE",
"29 -59 OFFCURVE",
"39 -37 CURVE SMOOTH",
"89 72 OFFCURVE",
"192 204 OFFCURVE",
"347 361 CURVE SMOOTH",
"460 476 OFFCURVE",
"588 590 OFFCURVE",
"730 704 CURVE SMOOTH",
"733 707 OFFCURVE",
"735 709 OFFCURVE",
"735 710 CURVE SMOOTH",
"735 713 OFFCURVE",
"731 715 OFFCURVE",
"722 715 CURVE SMOOTH",
"705 715 OFFCURVE",
"688 709 OFFCURVE",
"669 696 CURVE",
"614 651 OFFCURVE",
"573 615 OFFCURVE",
"543 587 CURVE SMOOTH",
"438 489 OFFCURVE",
"338 388 OFFCURVE",
"245 283 CURVE SMOOTH",
"118 140 OFFCURVE",
"38 28 OFFCURVE",
"4 -55 CURVE SMOOTH",
"-5 -77 OFFCURVE",
"-9 -91 OFFCURVE",
"-9 -97 CURVE SMOOTH",
"-9 -100 OFFCURVE",
"-6 -105 OFFCURVE",
"-1 -110 CURVE SMOOTH",
"4 -115 OFFCURVE",
"7 -117 OFFCURVE",
"10 -117 CURVE SMOOTH"
);
},
{
closed = 1;
nodes = (
"199 10 OFFCURVE",
"193 14 OFFCURVE",
"193 21 CURVE SMOOTH",
"193 32 OFFCURVE",
"203 37 OFFCURVE",
"222 37 CURVE SMOOTH",
"228 37 OFFCURVE",
"242 35 OFFCURVE",
"263 30 CURVE",
"254 26 OFFCURVE",
"246 22 OFFCURVE",
"238 17 CURVE SMOOTH",
"228 12 OFFCURVE",
"219 10 OFFCURVE",
"210 10 CURVE SMOOTH"
);
},
{
closed = 1;
nodes = (
"536 -47 OFFCURVE",
"558 -43 OFFCURVE",
"576 -34 CURVE SMOOTH",
"600 -23 OFFCURVE",
"612 -6 OFFCURVE",
"612 17 CURVE SMOOTH",
"612 35 OFFCURVE",
"603 52 OFFCURVE",
"585 68 CURVE SMOOTH",
"568 84 OFFCURVE",
"550 92 OFFCURVE",
"531 92 CURVE",
"528 91 OFFCURVE",
"526 90 OFFCURVE",
"526 89 CURVE SMOOTH",
"526 88 OFFCURVE",
"527 88 OFFCURVE",
"530 87 CURVE SMOOTH",
"547 82 OFFCURVE",
"562 74 OFFCURVE",
"577 63 CURVE SMOOTH",
"595 50 OFFCURVE",
"604 36 OFFCURVE",
"604 21 CURVE SMOOTH",
"604 8 OFFCURVE",
"595 -2 OFFCURVE",
"577 -9 CURVE SMOOTH",
"564 -14 OFFCURVE",
"549 -16 OFFCURVE",
"533 -16 CURVE SMOOTH",
"514 -16 OFFCURVE",
"483 -11 OFFCURVE",
"442 -1 CURVE SMOOTH",
"383 13 OFFCURVE",
"340 24 OFFCURVE",
"311 32 CURVE",
"376 61 OFFCURVE",
"434 94 OFFCURVE",
"484 131 CURVE SMOOTH",
"558 185 OFFCURVE",
"595 235 OFFCURVE",
"595 279 CURVE SMOOTH",
"595 302 OFFCURVE",
"585 320 OFFCURVE",
"566 332 CURVE SMOOTH",
"549 342 OFFCURVE",
"529 347 OFFCURVE",
"505 347 CURVE SMOOTH",
"470 347 OFFCURVE",
"435 338 OFFCURVE",
"399 320 CURVE SMOOTH",
"356 298 OFFCURVE",
"335 272 OFFCURVE",
"335 241 CURVE SMOOTH",
"335 236 OFFCURVE",
"337 229 OFFCURVE",
"339 221 CURVE SMOOTH",
"342 211 OFFCURVE",
"345 206 OFFCURVE",
"349 206 CURVE SMOOTH",
"350 206 OFFCURVE",
"350 207 OFFCURVE",
"350 210 CURVE SMOOTH",
"350 213 OFFCURVE",
"349 216 OFFCURVE",
"349 221 CURVE",
"347 225 OFFCURVE",
"347 228 OFFCURVE",
"347 231 CURVE SMOOTH",
"347 262 OFFCURVE",
"366 287 OFFCURVE",
"404 309 CURVE SMOOTH",
"436 327 OFFCURVE",
"469 337 OFFCURVE",
"503 337 CURVE SMOOTH",
"541 337 OFFCURVE",
"560 322 OFFCURVE",
"560 292 CURVE SMOOTH",
"560 250 OFFCURVE",
"529 203 OFFCURVE",
"465 153 CURVE SMOOTH",
"442 135 OFFCURVE",
"424 123 OFFCURVE",
"411 115 CURVE SMOOTH",
"364 85 OFFCURVE",
"323 60 OFFCURVE",
"288 42 CURVE",
"261 51 OFFCURVE",
"239 55 OFFCURVE",
"222 55 CURVE SMOOTH",
"193 55 OFFCURVE",
"179 45 OFFCURVE",
"179 25 CURVE SMOOTH",
"179 9 OFFCURVE",
"190 1 OFFCURVE",
"211 1 CURVE SMOOTH",
"230 1 OFFCURVE",
"256 8 OFFCURVE",
"290 22 CURVE",
"325 7 OFFCURVE",
"361 -7 OFFCURVE",
"397 -22 CURVE SMOOTH",
"438 -39 OFFCURVE",
"475 -47 OFFCURVE",
"510 -47 CURVE SMOOTH"
);
},
{
closed = 1;
nodes = (
"127 279 OFFCURVE",
"128 282 OFFCURVE",
"128 288 CURVE SMOOTH",
"128 289 OFFCURVE",
"128 292 OFFCURVE",
"128 295 CURVE",
"155 299 OFFCURVE",
"177 301 OFFCURVE",
"194 301 CURVE SMOOTH",
"197 301 OFFCURVE",
"200 301 OFFCURVE",
"205 301 CURVE SMOOTH",
"210 300 OFFCURVE",
"213 300 OFFCURVE",
"215 300 CURVE SMOOTH",
"219 300 OFFCURVE",
"221 302 OFFCURVE",
"221 306 CURVE SMOOTH",
"221 309 OFFCURVE",
"219 310 OFFCURVE",
"216 311 CURVE SMOOTH",
"205 313 OFFCURVE",
"182 314 OFFCURVE",
"149 314 CURVE SMOOTH",
"128 314 LINE",
"128 315 LINE SMOOTH",
"145 404 OFFCURVE",
"190 494 OFFCURVE",
"265 586 CURVE SMOOTH",
"284 609 OFFCURVE",
"300 625 OFFCURVE",
"310 636 CURVE SMOOTH",
"314 640 OFFCURVE",
"316 646 OFFCURVE",
"316 653 CURVE SMOOTH",
"316 664 OFFCURVE",
"311 670 OFFCURVE",
"302 670 CURVE SMOOTH",
"295 670 OFFCURVE",
"279 658 OFFCURVE",
"253 635 CURVE SMOOTH",
"195 583 OFFCURVE",
"157 550 OFFCURVE",
"141 534 CURVE",
"137 531 OFFCURVE",
"135 528 OFFCURVE",
"135 525 CURVE SMOOTH",
"135 523 OFFCURVE",
"137 522 OFFCURVE",
"141 522 CURVE SMOOTH",
"145 522 OFFCURVE",
"163 535 OFFCURVE",
"194 562 CURVE SMOOTH",
"214 579 OFFCURVE",
"232 591 OFFCURVE",
"247 598 CURVE",
"246 596 OFFCURVE",
"245 593 OFFCURVE",
"242 590 CURVE",
"204 528 LINE SMOOTH",
"163 461 OFFCURVE",
"141 427 OFFCURVE",
"140 425 CURVE SMOOTH",
"113 382 OFFCURVE",
"101 343 OFFCURVE",
"98 313 CURVE",
"51 311 OFFCURVE",
"21 310 OFFCURVE",
"8 310 CURVE SMOOTH",
"5 310 OFFCURVE",
"4 307 OFFCURVE",
"4 300 CURVE SMOOTH",
"4 287 OFFCURVE",
"6 281 OFFCURVE",
"11 281 CURVE SMOOTH",
"28 281 OFFCURVE",
"58 284 OFFCURVE",
"100 291 CURVE",
"103 283 OFFCURVE",
"111 279 OFFCURVE",
"124 279 CURVE SMOOTH"
);
}
);
width = 665;
}
);
note = onehalf;
unicode = 00BD;
},
{
glyphname = onequarter;
lastChange = "2021-05-25 21:23:40 +0000";
layers = (
{
layerId = "89156F97-8AE0-4F29-8E8C-D321EE696556";
paths = (
{
closed = 1;
nodes = (
"11 -117 OFFCURVE",
"11 -117 OFFCURVE",
"12 -116 CURVE",
"20 -85 OFFCURVE",
"29 -59 OFFCURVE",
"39 -37 CURVE SMOOTH",
"89 72 OFFCURVE",
"192 204 OFFCURVE",
"347 361 CURVE SMOOTH",
"460 476 OFFCURVE",
"588 590 OFFCURVE",
"730 704 CURVE SMOOTH",
"733 707 OFFCURVE",
"735 709 OFFCURVE",
"735 710 CURVE SMOOTH",
"735 713 OFFCURVE",
"731 715 OFFCURVE",
"722 715 CURVE SMOOTH",
"705 715 OFFCURVE",
"688 709 OFFCURVE",
"669 696 CURVE",
"614 651 OFFCURVE",
"573 615 OFFCURVE",
"543 587 CURVE SMOOTH",
"438 489 OFFCURVE",
"338 388 OFFCURVE",
"245 283 CURVE SMOOTH",
"118 140 OFFCURVE",
"38 28 OFFCURVE",
"4 -55 CURVE SMOOTH",
"-5 -77 OFFCURVE",
"-9 -91 OFFCURVE",
"-9 -97 CURVE SMOOTH",
"-9 -100 OFFCURVE",
"-6 -105 OFFCURVE",
"-1 -110 CURVE SMOOTH",
"4 -115 OFFCURVE",
"7 -117 OFFCURVE",
"10 -117 CURVE SMOOTH"
);
},
{
closed = 1;
nodes = (
"199 139 OFFCURVE",
"189 141 OFFCURVE",
"189 145 CURVE SMOOTH",
"189 152 OFFCURVE",
"197 155 OFFCURVE",
"212 155 CURVE SMOOTH",
"223 155 OFFCURVE",
"236 152 OFFCURVE",
"251 145 CURVE",
"237 141 OFFCURVE",
"226 139 OFFCURVE",
"218 139 CURVE SMOOTH"
);
},
{
closed = 1;
nodes = (
"331 -32 OFFCURVE",
"361 -29 OFFCURVE",
"402 -22 CURVE SMOOTH",
"442 -15 OFFCURVE",
"472 -12 OFFCURVE",
"493 -12 CURVE SMOOTH",
"496 -12 OFFCURVE",
"499 -12 OFFCURVE",
"503 -12 CURVE SMOOTH",
"508 -13 OFFCURVE",
"511 -13 OFFCURVE",
"514 -13 CURVE SMOOTH",
"518 -13 OFFCURVE",
"520 -11 OFFCURVE",
"520 -8 CURVE SMOOTH",
"520 -5 OFFCURVE",
"518 -3 OFFCURVE",
"515 -2 CURVE SMOOTH",
"504 0 OFFCURVE",
"482 1 OFFCURVE",
"448 1 CURVE SMOOTH",
"436 1 OFFCURVE",
"422 1 OFFCURVE",
"405 0 CURVE",
"409 24 OFFCURVE",
"420 55 OFFCURVE",
"439 94 CURVE",
"476 87 OFFCURVE",
"507 84 OFFCURVE",
"530 84 CURVE SMOOTH",
"557 84 OFFCURVE",
"581 89 OFFCURVE",
"602 99 CURVE SMOOTH",
"629 112 OFFCURVE",
"643 131 OFFCURVE",
"643 155 CURVE SMOOTH",
"643 175 OFFCURVE",
"634 192 OFFCURVE",
"615 205 CURVE SMOOTH",
"596 218 OFFCURVE",
"577 225 OFFCURVE",
"556 225 CURVE SMOOTH",
"551 225 OFFCURVE",
"549 224 OFFCURVE",
"549 222 CURVE SMOOTH",
"549 221 OFFCURVE",
"550 221 OFFCURVE",
"553 220 CURVE",
"562 219 OFFCURVE",
"570 217 OFFCURVE",
"576 215 CURVE SMOOTH",
"615 202 OFFCURVE",
"634 183 OFFCURVE",
"634 160 CURVE SMOOTH",
"634 142 OFFCURVE",
"616 129 OFFCURVE",
"579 120 CURVE SMOOTH",
"571 118 OFFCURVE",
"559 117 OFFCURVE",
"543 117 CURVE SMOOTH",
"520 117 OFFCURVE",
"490 119 OFFCURVE",
"453 124 CURVE",
"476 167 OFFCURVE",
"494 199 OFFCURVE",
"505 220 CURVE SMOOTH",
"514 237 OFFCURVE",
"522 252 OFFCURVE",
"528 263 CURVE",
"533 268 OFFCURVE",
"537 272 OFFCURVE",
"539 274 CURVE",
"541 275 OFFCURVE",
"551 296 OFFCURVE",
"569 335 CURVE SMOOTH",
"586 374 OFFCURVE",
"595 394 OFFCURVE",
"595 395 CURVE SMOOTH",
"595 399 OFFCURVE",
"591 401 OFFCURVE",
"582 401 CURVE SMOOTH",
"570 401 OFFCURVE",
"560 397 OFFCURVE",
"553 389 CURVE SMOOTH",
"534 368 OFFCURVE",
"519 352 OFFCURVE",
"510 342 CURVE SMOOTH",
"416 239 OFFCURVE",
"339 176 OFFCURVE",
"279 155 CURVE",
"254 160 OFFCURVE",
"234 163 OFFCURVE",
"219 163 CURVE SMOOTH",
"192 163 OFFCURVE",
"179 157 OFFCURVE",
"179 146 CURVE SMOOTH",
"179 133 OFFCURVE",
"189 127 OFFCURVE",
"208 127 CURVE SMOOTH",
"220 127 OFFCURVE",
"240 130 OFFCURVE",
"267 137 CURVE",
"327 120 OFFCURVE",
"376 108 OFFCURVE",
"414 99 CURVE",
"399 58 OFFCURVE",
"389 24 OFFCURVE",
"385 -1 CURVE",
"348 -2 OFFCURVE",
"322 -3 OFFCURVE",
"307 -3 CURVE SMOOTH",
"304 -3 OFFCURVE",
"303 -6 OFFCURVE",
"303 -13 CURVE SMOOTH",
"303 -26 OFFCURVE",
"305 -32 OFFCURVE",
"310 -32 CURVE SMOOTH"
);
},
{
closed = 1;
nodes = (
"375 134 OFFCURVE",
"331 142 OFFCURVE",
"296 150 CURVE",
"357 175 OFFCURVE",
"425 221 OFFCURVE",
"500 288 CURVE",
"469 227 OFFCURVE",
"445 174 OFFCURVE",
"426 127 CURVE"
);
},
{
closed = 1;
nodes = (
"136 292 OFFCURVE",
"138 295 OFFCURVE",
"138 301 CURVE SMOOTH",
"138 303 OFFCURVE",
"138 306 OFFCURVE",
"138 309 CURVE",
"165 313 OFFCURVE",
"187 315 OFFCURVE",
"204 315 CURVE SMOOTH",
"207 315 OFFCURVE",
"210 315 OFFCURVE",
"215 314 CURVE SMOOTH",
"220 314 OFFCURVE",
"223 314 OFFCURVE",
"225 314 CURVE SMOOTH",
"229 314 OFFCURVE",
"231 316 OFFCURVE",
"231 319 CURVE SMOOTH",
"231 322 OFFCURVE",
"229 323 OFFCURVE",
"226 324 CURVE SMOOTH",
"215 326 OFFCURVE",
"192 327 OFFCURVE",
"159 327 CURVE SMOOTH",
"138 327 LINE",
"138 328 LINE SMOOTH",
"155 417 OFFCURVE",
"199 508 OFFCURVE",
"274 599 CURVE SMOOTH",
"293 622 OFFCURVE",
"309 639 OFFCURVE",
"320 650 CURVE SMOOTH",
"324 654 OFFCURVE",
"326 659 OFFCURVE",
"326 666 CURVE SMOOTH",
"326 677 OFFCURVE",
"321 683 OFFCURVE",
"312 683 CURVE SMOOTH",
"305 683 OFFCURVE",
"289 671 OFFCURVE",
"263 648 CURVE SMOOTH",
"205 596 OFFCURVE",
"167 563 OFFCURVE",
"151 548 CURVE SMOOTH",
"147 544 OFFCURVE",
"145 541 OFFCURVE",
"145 538 CURVE SMOOTH",
"145 536 OFFCURVE",
"147 535 OFFCURVE",
"151 535 CURVE SMOOTH",
"155 535 OFFCURVE",
"173 548 OFFCURVE",
"204 575 CURVE SMOOTH",
"224 593 OFFCURVE",
"242 605 OFFCURVE",
"257 611 CURVE",
"256 609 OFFCURVE",
"254 606 OFFCURVE",
"252 603 CURVE SMOOTH",
"214 541 LINE SMOOTH",
"173 474 OFFCURVE",
"150 440 OFFCURVE",
"149 438 CURVE SMOOTH",
"125 394 OFFCURVE",
"111 357 OFFCURVE",
"108 326 CURVE",
"61 325 OFFCURVE",
"31 324 OFFCURVE",
"18 324 CURVE SMOOTH",
"15 324 OFFCURVE",
"14 320 OFFCURVE",
"14 313 CURVE SMOOTH",
"14 300 OFFCURVE",
"16 294 OFFCURVE",
"21 294 CURVE SMOOTH",
"38 294 OFFCURVE",
"68 297 OFFCURVE",
"110 304 CURVE",
"113 296 OFFCURVE",
"121 292 OFFCURVE",
"133 292 CURVE SMOOTH"
);
}
);
width = 731;
}
);
note = onequarter;
unicode = 00BC;
},
{
glyphname = onesuperior;
lastChange = "2021-05-25 21:23:40 +0000";
layers = (
{
layerId = "89156F97-8AE0-4F29-8E8C-D321EE696556";
paths = (
{
closed = 1;
nodes = (
"133 279 OFFCURVE",
"135 282 OFFCURVE",
"135 288 CURVE SMOOTH",
"135 289 OFFCURVE",
"135 292 OFFCURVE",
"134 295 CURVE",
"161 299 OFFCURVE",
"184 301 OFFCURVE",
"201 301 CURVE SMOOTH",
"203 301 OFFCURVE",
"206 301 OFFCURVE",
"211 301 CURVE SMOOTH",
"216 300 OFFCURVE",
"219 300 OFFCURVE",
"222 300 CURVE SMOOTH",
"225 300 OFFCURVE",
"227 302 OFFCURVE",
"227 306 CURVE SMOOTH",
"227 309 OFFCURVE",
"226 311 OFFCURVE",
"223 311 CURVE SMOOTH",
"211 313 OFFCURVE",
"189 314 OFFCURVE",
"156 314 CURVE SMOOTH",
"135 314 LINE",
"135 315 LINE SMOOTH",
"152 404 OFFCURVE",
"196 495 OFFCURVE",
"271 586 CURVE SMOOTH",
"290 609 OFFCURVE",
"306 625 OFFCURVE",
"316 636 CURVE SMOOTH",
"321 641 OFFCURVE",
"323 646 OFFCURVE",
"323 653 CURVE SMOOTH",
"323 664 OFFCURVE",
"318 670 OFFCURVE",
"309 670 CURVE SMOOTH",
"302 670 OFFCURVE",
"286 658 OFFCURVE",
"260 635 CURVE SMOOTH",
"201 583 OFFCURVE",
"163 550 OFFCURVE",
"147 534 CURVE SMOOTH",
"144 531 OFFCURVE",
"142 528 OFFCURVE",
"142 525 CURVE SMOOTH",
"142 523 OFFCURVE",
"144 522 OFFCURVE",
"148 522 CURVE SMOOTH",
"151 522 OFFCURVE",
"169 535 OFFCURVE",
"201 562 CURVE SMOOTH",
"221 579 OFFCURVE",
"239 591 OFFCURVE",
"254 598 CURVE",
"253 596 OFFCURVE",
"251 593 OFFCURVE",
"249 590 CURVE SMOOTH",
"211 528 LINE SMOOTH",
"170 461 OFFCURVE",
"147 427 OFFCURVE",
"146 425 CURVE SMOOTH",
"121 380 OFFCURVE",
"108 343 OFFCURVE",
"105 313 CURVE",
"58 311 OFFCURVE",
"28 310 OFFCURVE",
"15 310 CURVE SMOOTH",
"12 310 OFFCURVE",
"11 307 OFFCURVE",
"11 300 CURVE SMOOTH",
"11 287 OFFCURVE",
"13 281 OFFCURVE",
"18 281 CURVE SMOOTH",
"35 281 OFFCURVE",
"65 284 OFFCURVE",
"106 291 CURVE",
"110 283 OFFCURVE",
"118 279 OFFCURVE",
"130 279 CURVE SMOOTH"
);
}
);
width = 321;
}
);
note = onesuperior;
unicode = 00B9;
},
{
glyphname = threequarters;
lastChange = "2021-05-25 21:23:40 +0000";
layers = (
{
layerId = "89156F97-8AE0-4F29-8E8C-D321EE696556";
paths = (
{
closed = 1;
nodes = (
"63 -104 OFFCURVE",
"63 -104 OFFCURVE",
"63 -103 CURVE",
"72 -72 OFFCURVE",
"81 -46 OFFCURVE",
"91 -23 CURVE SMOOTH",
"141 86 OFFCURVE",
"243 218 OFFCURVE",
"398 374 CURVE SMOOTH",
"511 489 OFFCURVE",
"639 603 OFFCURVE",
"781 717 CURVE SMOOTH",
"784 720 OFFCURVE",
"786 722 OFFCURVE",
"786 724 CURVE SMOOTH",
"786 727 OFFCURVE",
"782 729 OFFCURVE",
"774 729 CURVE SMOOTH",
"757 729 OFFCURVE",
"738 723 OFFCURVE",
"720 709 CURVE SMOOTH",
"665 665 OFFCURVE",
"624 628 OFFCURVE",
"594 600 CURVE SMOOTH",
"489 503 OFFCURVE",
"390 402 OFFCURVE",
"296 296 CURVE SMOOTH",
"170 154 OFFCURVE",
"90 41 OFFCURVE",
"56 -42 CURVE SMOOTH",
"47 -64 OFFCURVE",
"42 -78 OFFCURVE",
"42 -84 CURVE SMOOTH",
"42 -87 OFFCURVE",
"45 -91 OFFCURVE",
"50 -96 CURVE SMOOTH",
"55 -101 OFFCURVE",
"59 -104 OFFCURVE",
"62 -104 CURVE SMOOTH"
);
},
{
closed = 1;
nodes = (
"248 139 OFFCURVE",
"238 141 OFFCURVE",
"238 145 CURVE SMOOTH",
"238 152 OFFCURVE",
"246 155 OFFCURVE",
"261 155 CURVE SMOOTH",
"272 155 OFFCURVE",
"285 152 OFFCURVE",
"300 145 CURVE",
"286 141 OFFCURVE",
"275 139 OFFCURVE",
"267 139 CURVE SMOOTH"
);
},
{
closed = 1;
nodes = (
"379 -32 OFFCURVE",
"409 -29 OFFCURVE",
"450 -22 CURVE SMOOTH",
"491 -15 OFFCURVE",
"521 -12 OFFCURVE",
"542 -12 CURVE SMOOTH",
"544 -12 OFFCURVE",
"547 -12 OFFCURVE",
"552 -12 CURVE SMOOTH",
"557 -13 OFFCURVE",
"560 -13 OFFCURVE",
"563 -13 CURVE SMOOTH",
"566 -13 OFFCURVE",
"568 -11 OFFCURVE",
"568 -8 CURVE SMOOTH",
"568 -5 OFFCURVE",
"567 -3 OFFCURVE",
"564 -2 CURVE SMOOTH",
"553 0 OFFCURVE",
"531 1 OFFCURVE",
"497 1 CURVE SMOOTH",
"485 1 OFFCURVE",
"471 1 OFFCURVE",
"454 0 CURVE",
"458 24 OFFCURVE",
"469 55 OFFCURVE",
"488 94 CURVE",
"525 87 OFFCURVE",
"556 84 OFFCURVE",
"579 84 CURVE SMOOTH",
"606 84 OFFCURVE",
"630 89 OFFCURVE",
"651 99 CURVE SMOOTH",
"678 112 OFFCURVE",
"692 131 OFFCURVE",
"692 155 CURVE SMOOTH",
"692 175 OFFCURVE",
"683 192 OFFCURVE",
"664 205 CURVE SMOOTH",
"645 218 OFFCURVE",
"626 225 OFFCURVE",
"605 225 CURVE SMOOTH",
"600 225 OFFCURVE",
"598 224 OFFCURVE",
"598 222 CURVE SMOOTH",
"598 221 OFFCURVE",
"599 221 OFFCURVE",
"601 220 CURVE",
"611 219 OFFCURVE",
"619 217 OFFCURVE",
"625 215 CURVE SMOOTH",
"664 202 OFFCURVE",
"683 183 OFFCURVE",
"683 160 CURVE SMOOTH",
"683 142 OFFCURVE",
"665 129 OFFCURVE",
"628 120 CURVE SMOOTH",
"620 118 OFFCURVE",
"608 117 OFFCURVE",
"592 117 CURVE SMOOTH",
"569 117 OFFCURVE",
"539 119 OFFCURVE",
"502 124 CURVE",
"525 167 OFFCURVE",
"542 199 OFFCURVE",
"554 220 CURVE SMOOTH",
"564 237 OFFCURVE",
"571 252 OFFCURVE",
"577 263 CURVE",
"582 268 OFFCURVE",
"586 272 OFFCURVE",
"588 274 CURVE",
"590 275 OFFCURVE",
"600 296 OFFCURVE",
"618 335 CURVE SMOOTH",
"635 374 OFFCURVE",
"644 394 OFFCURVE",
"644 395 CURVE SMOOTH",
"644 399 OFFCURVE",
"639 401 OFFCURVE",
"630 401 CURVE SMOOTH",
"619 401 OFFCURVE",
"609 397 OFFCURVE",
"602 389 CURVE SMOOTH",
"583 368 OFFCURVE",
"568 352 OFFCURVE",
"558 342 CURVE SMOOTH",
"464 239 OFFCURVE",
"388 176 OFFCURVE",
"328 155 CURVE",
"303 160 OFFCURVE",
"283 163 OFFCURVE",
"268 163 CURVE SMOOTH",
"241 163 OFFCURVE",
"228 157 OFFCURVE",
"228 146 CURVE SMOOTH",
"228 133 OFFCURVE",
"238 127 OFFCURVE",
"257 127 CURVE SMOOTH",
"269 127 OFFCURVE",
"289 130 OFFCURVE",
"316 137 CURVE",
"376 120 OFFCURVE",
"425 108 OFFCURVE",
"463 99 CURVE",
"448 58 OFFCURVE",
"438 24 OFFCURVE",
"434 -1 CURVE",
"397 -2 OFFCURVE",
"371 -3 OFFCURVE",
"356 -3 CURVE SMOOTH",
"353 -3 OFFCURVE",
"352 -6 OFFCURVE",
"352 -13 CURVE SMOOTH",
"352 -26 OFFCURVE",
"354 -32 OFFCURVE",
"359 -32 CURVE SMOOTH"
);
},
{
closed = 1;
nodes = (
"423 134 OFFCURVE",
"380 142 OFFCURVE",
"345 150 CURVE",
"406 175 OFFCURVE",
"474 221 OFFCURVE",
"549 288 CURVE",
"518 227 OFFCURVE",
"493 174 OFFCURVE",
"474 127 CURVE"
);
},
{
closed = 1;
nodes = (
"204 370 OFFCURVE",
"252 379 OFFCURVE",
"297 398 CURVE SMOOTH",
"355 422 OFFCURVE",
"384 456 OFFCURVE",
"384 499 CURVE SMOOTH",
"384 540 OFFCURVE",
"351 566 OFFCURVE",
"284 579 CURVE",
"356 592 OFFCURVE",
"392 618 OFFCURVE",
"392 655 CURVE SMOOTH",
"392 674 OFFCURVE",
"378 688 OFFCURVE",
"350 698 CURVE SMOOTH",
"329 705 OFFCURVE",
"307 709 OFFCURVE",
"284 709 CURVE SMOOTH",
"261 709 OFFCURVE",
"238 705 OFFCURVE",
"214 698 CURVE SMOOTH",
"182 688 OFFCURVE",
"166 674 OFFCURVE",
"166 657 CURVE SMOOTH",
"166 646 OFFCURVE",
"170 640 OFFCURVE",
"177 640 CURVE SMOOTH",
"182 640 OFFCURVE",
"185 643 OFFCURVE",
"185 650 CURVE SMOOTH",
"185 666 OFFCURVE",
"198 679 OFFCURVE",
"223 687 CURVE SMOOTH",
"242 693 OFFCURVE",
"261 696 OFFCURVE",
"282 696 CURVE SMOOTH",
"301 696 OFFCURVE",
"320 694 OFFCURVE",
"337 690 CURVE SMOOTH",
"363 684 OFFCURVE",
"376 675 OFFCURVE",
"376 663 CURVE SMOOTH",
"376 646 OFFCURVE",
"360 630 OFFCURVE",
"328 615 CURVE SMOOTH",
"305 604 OFFCURVE",
"281 596 OFFCURVE",
"257 592 CURVE SMOOTH",
"239 589 OFFCURVE",
"226 587 OFFCURVE",
"217 585 CURVE SMOOTH",
"209 584 OFFCURVE",
"205 580 OFFCURVE",
"205 574 CURVE SMOOTH",
"205 569 OFFCURVE",
"208 566 OFFCURVE",
"213 566 CURVE SMOOTH",
"305 566 OFFCURVE",
"351 544 OFFCURVE",
"351 499 CURVE SMOOTH",
"351 460 OFFCURVE",
"325 429 OFFCURVE",
"271 405 CURVE SMOOTH",
"228 386 OFFCURVE",
"184 377 OFFCURVE",
"139 377 CURVE SMOOTH",
"112 377 OFFCURVE",
"89 383 OFFCURVE",
"70 393 CURVE SMOOTH",
"46 406 OFFCURVE",
"34 424 OFFCURVE",
"34 448 CURVE SMOOTH",
"34 474 OFFCURVE",
"56 487 OFFCURVE",
"100 487 CURVE SMOOTH",
"106 487 OFFCURVE",
"109 488 OFFCURVE",
"109 491 CURVE SMOOTH",
"109 496 OFFCURVE",
"100 499 OFFCURVE",
"83 499 CURVE SMOOTH",
"66 499 OFFCURVE",
"50 494 OFFCURVE",
"36 485 CURVE SMOOTH",
"20 475 OFFCURVE",
"12 462 OFFCURVE",
"12 445 CURVE SMOOTH",
"12 417 OFFCURVE",
"30 397 OFFCURVE",
"65 384 CURVE SMOOTH",
"90 375 OFFCURVE",
"119 370 OFFCURVE",
"153 370 CURVE SMOOTH"
);
}
);
width = 750;
}
);
note = threequarters;
unicode = 00BE;
},
{
glyphname = threesuperior;
lastChange = "2021-05-25 21:23:40 +0000";
layers = (
{
layerId = "89156F97-8AE0-4F29-8E8C-D321EE696556";
paths = (
{
closed = 1;
nodes = (
"194 352 OFFCURVE",
"239 360 OFFCURVE",
"282 378 CURVE SMOOTH",
"337 401 OFFCURVE",
"365 433 OFFCURVE",
"365 474 CURVE SMOOTH",
"365 513 OFFCURVE",
"333 538 OFFCURVE",
"270 550 CURVE",
"338 562 OFFCURVE",
"372 587 OFFCURVE",
"372 622 CURVE SMOOTH",
"372 640 OFFCURVE",
"359 654 OFFCURVE",
"333 663 CURVE SMOOTH",
"313 670 OFFCURVE",
"292 674 OFFCURVE",
"270 674 CURVE SMOOTH",
"248 674 OFFCURVE",
"226 670 OFFCURVE",
"203 663 CURVE SMOOTH",
"173 654 OFFCURVE",
"158 640 OFFCURVE",
"158 624 CURVE SMOOTH",
"158 614 OFFCURVE",
"162 608 OFFCURVE",
"168 608 CURVE SMOOTH",
"173 608 OFFCURVE",
"176 611 OFFCURVE",
"176 618 CURVE SMOOTH",
"176 633 OFFCURVE",
"188 645 OFFCURVE",
"212 653 CURVE SMOOTH",
"230 658 OFFCURVE",
"248 661 OFFCURVE",
"268 661 CURVE SMOOTH",
"286 661 OFFCURVE",
"304 659 OFFCURVE",
"320 656 CURVE SMOOTH",
"345 650 OFFCURVE",
"357 641 OFFCURVE",
"357 630 CURVE SMOOTH",
"357 614 OFFCURVE",
"342 599 OFFCURVE",
"312 584 CURVE SMOOTH",
"290 574 OFFCURVE",
"267 566 OFFCURVE",
"244 562 CURVE SMOOTH",
"227 560 OFFCURVE",
"215 558 OFFCURVE",
"206 556 CURVE SMOOTH",
"199 555 OFFCURVE",
"195 551 OFFCURVE",
"195 545 CURVE SMOOTH",
"195 541 OFFCURVE",
"198 538 OFFCURVE",
"202 538 CURVE SMOOTH",
"290 538 OFFCURVE",
"333 517 OFFCURVE",
"333 474 CURVE SMOOTH",
"333 437 OFFCURVE",
"309 408 OFFCURVE",
"257 385 CURVE SMOOTH",
"217 367 OFFCURVE",
"175 358 OFFCURVE",
"132 358 CURVE SMOOTH",
"106 358 OFFCURVE",
"85 364 OFFCURVE",
"67 373 CURVE SMOOTH",
"44 386 OFFCURVE",
"32 403 OFFCURVE",
"32 426 CURVE SMOOTH",
"32 450 OFFCURVE",
"53 463 OFFCURVE",
"95 463 CURVE SMOOTH",
"101 463 OFFCURVE",
"104 464 OFFCURVE",
"104 466 CURVE SMOOTH",
"104 471 OFFCURVE",
"95 474 OFFCURVE",
"79 474 CURVE SMOOTH",
"63 474 OFFCURVE",
"48 469 OFFCURVE",
"34 461 CURVE SMOOTH",
"19 451 OFFCURVE",
"11 439 OFFCURVE",
"11 423 CURVE SMOOTH",
"11 396 OFFCURVE",
"29 377 OFFCURVE",
"62 365 CURVE SMOOTH",
"86 356 OFFCURVE",
"113 352 OFFCURVE",
"145 352 CURVE SMOOTH"
);
}
);
width = 401;
}
);
note = threesuperior;
unicode = 00B3;
},
{
glyphname = twosuperior;
lastChange = "2021-05-25 21:23:40 +0000";
layers = (
{
layerId = "89156F97-8AE0-4F29-8E8C-D321EE696556";
paths = (
{
closed = 1;
nodes = (
"344 362 OFFCURVE",
"371 379 OFFCURVE",
"371 412 CURVE SMOOTH",
"371 427 OFFCURVE",
"364 440 OFFCURVE",
"350 452 CURVE SMOOTH",
"335 465 OFFCURVE",
"322 470 OFFCURVE",
"308 470 CURVE SMOOTH",
"305 470 OFFCURVE",
"304 469 OFFCURVE",
"304 468 CURVE",
"305 467 OFFCURVE",
"306 466 OFFCURVE",
"307 466 CURVE",
"319 463 OFFCURVE",
"332 457 OFFCURVE",
"343 448 CURVE SMOOTH",
"357 438 OFFCURVE",
"364 427 OFFCURVE",
"364 415 CURVE SMOOTH",
"364 395 OFFCURVE",
"346 386 OFFCURVE",
"310 386 CURVE SMOOTH",
"294 386 OFFCURVE",
"270 390 OFFCURVE",
"238 397 CURVE SMOOTH",
"193 409 OFFCURVE",
"159 417 OFFCURVE",
"136 423 CURVE",
"186 447 OFFCURVE",
"232 472 OFFCURVE",
"271 501 CURVE SMOOTH",
"329 542 OFFCURVE",
"357 581 OFFCURVE",
"357 617 CURVE SMOOTH",
"357 635 OFFCURVE",
"350 648 OFFCURVE",
"334 657 CURVE SMOOTH",
"322 666 OFFCURVE",
"306 670 OFFCURVE",
"287 670 CURVE SMOOTH",
"260 670 OFFCURVE",
"233 662 OFFCURVE",
"204 648 CURVE SMOOTH",
"171 631 OFFCURVE",
"155 610 OFFCURVE",
"155 586 CURVE SMOOTH",
"155 568 OFFCURVE",
"159 560 OFFCURVE",
"165 560 CURVE SMOOTH",
"166 560 OFFCURVE",
"166 561 OFFCURVE",
"166 562 CURVE SMOOTH",
"166 564 OFFCURVE",
"166 567 OFFCURVE",
"165 571 CURVE SMOOTH",
"164 574 OFFCURVE",
"164 577 OFFCURVE",
"164 579 CURVE SMOOTH",
"164 602 OFFCURVE",
"179 623 OFFCURVE",
"208 639 CURVE SMOOTH",
"234 654 OFFCURVE",
"259 661 OFFCURVE",
"285 661 CURVE SMOOTH",
"314 661 OFFCURVE",
"330 650 OFFCURVE",
"330 626 CURVE SMOOTH",
"330 594 OFFCURVE",
"306 557 OFFCURVE",
"256 518 CURVE SMOOTH",
"238 504 OFFCURVE",
"223 495 OFFCURVE",
"214 488 CURVE SMOOTH",
"178 465 OFFCURVE",
"145 446 OFFCURVE",
"118 431 CURVE",
"96 438 OFFCURVE",
"79 442 OFFCURVE",
"67 442 CURVE SMOOTH",
"45 442 OFFCURVE",
"33 434 OFFCURVE",
"33 418 CURVE SMOOTH",
"33 406 OFFCURVE",
"42 399 OFFCURVE",
"58 399 CURVE SMOOTH",
"72 399 OFFCURVE",
"93 405 OFFCURVE",
"120 416 CURVE",
"147 405 OFFCURVE",
"175 392 OFFCURVE",
"202 381 CURVE SMOOTH",
"235 368 OFFCURVE",
"264 362 OFFCURVE",
"291 362 CURVE SMOOTH"
);
},
{
closed = 1;
nodes = (
"48 406 OFFCURVE",
"44 409 OFFCURVE",
"44 415 CURVE SMOOTH",
"44 424 OFFCURVE",
"51 428 OFFCURVE",
"67 428 CURVE SMOOTH",
"71 428 OFFCURVE",
"82 426 OFFCURVE",
"98 422 CURVE",
"74 411 OFFCURVE",
"61 406 OFFCURVE",
"57 406 CURVE SMOOTH"
);
}
);
width = 401;
}
);
note = twosuperior;
unicode = 00B2;
},
{
glyphname = brokenbar;
lastChange = "2021-05-25 21:23:40 +0000";
layers = (
{
layerId = "89156F97-8AE0-4F29-8E8C-D321EE696556";
paths = (
{
closed = 1;
nodes = (
"50 -44 OFFCURVE",
"56 -39 OFFCURVE",
"61 -32 CURVE SMOOTH",
"64 -28 OFFCURVE",
"71 7 OFFCURVE",
"83 70 CURVE SMOOTH",
"94 134 OFFCURVE",
"100 172 OFFCURVE",
"100 183 CURVE SMOOTH",
"100 186 OFFCURVE",
"97 187 OFFCURVE",
"91 187 CURVE SMOOTH",
"86 187 OFFCURVE",
"83 186 OFFCURVE",
"82 183 CURVE",
"79 165 OFFCURVE",
"78 149 OFFCURVE",
"77 135 CURVE SMOOTH",
"74 104 OFFCURVE",
"68 73 OFFCURVE",
"63 43 CURVE SMOOTH",
"55 5 OFFCURVE",
"48 -24 OFFCURVE",
"43 -44 CURVE",
"45 -45 LINE"
);
},
{
closed = 1;
nodes = (
"100 225 OFFCURVE",
"105 227 OFFCURVE",
"106 231 CURVE SMOOTH",
"114 243 OFFCURVE",
"117 299 OFFCURVE",
"117 398 CURVE SMOOTH",
"117 439 OFFCURVE",
"107 459 OFFCURVE",
"89 459 CURVE SMOOTH",
"82 459 OFFCURVE",
"78 456 OFFCURVE",
"78 451 CURVE SMOOTH",
"78 447 OFFCURVE",
"79 442 OFFCURVE",
"82 433 CURVE SMOOTH",
"84 425 OFFCURVE",
"85 420 OFFCURVE",
"85 417 CURVE",
"88 396 OFFCURVE",
"89 368 OFFCURVE",
"89 331 CURVE SMOOTH",
"89 319 OFFCURVE",
"88 302 OFFCURVE",
"87 280 CURVE SMOOTH",
"86 258 OFFCURVE",
"86 241 OFFCURVE",
"86 231 CURVE SMOOTH",
"86 227 OFFCURVE",
"88 225 OFFCURVE",
"94 225 CURVE SMOOTH"
);
}
);
width = 158;
}
);
note = brokenbar;
unicode = 00A6;
},
{
glyphname = minus;
lastChange = "2021-05-25 21:23:40 +0000";
layers = (
{
layerId = "89156F97-8AE0-4F29-8E8C-D321EE696556";
paths = (
{
closed = 1;
nodes = (
"42 96 LINE SMOOTH",
"83 96 OFFCURVE",
"112 103 OFFCURVE",
"131 105 CURVE SMOOTH",
"154 106 OFFCURVE",
"171 106 OFFCURVE",
"182 107 CURVE SMOOTH",
"199 108 OFFCURVE",
"207 110 OFFCURVE",
"207 115 CURVE SMOOTH",
"207 119 OFFCURVE",
"199 123 OFFCURVE",
"182 124 CURVE SMOOTH",
"145 130 OFFCURVE",
"116 132 OFFCURVE",
"94 132 CURVE SMOOTH",
"76 132 OFFCURVE",
"62 130 OFFCURVE",
"51 126 CURVE SMOOTH",
"29 119 OFFCURVE",
"18 111 OFFCURVE",
"18 103 CURVE SMOOTH",
"18 98 OFFCURVE",
"25 96 OFFCURVE",
"37 96 CURVE SMOOTH"
);
}
);
width = 217;
}
);
note = minus;
unicode = 2212;
},
{
glyphname = multiply;
lastChange = "2021-05-25 21:23:40 +0000";
layers = (
{
layerId = "89156F97-8AE0-4F29-8E8C-D321EE696556";
paths = (
{
closed = 1;
nodes = (
"53 44 OFFCURVE",
"56 46 OFFCURVE",
"59 48 CURVE SMOOTH",
"89 86 OFFCURVE",
"111 115 OFFCURVE",
"125 135 CURVE",
"131 117 OFFCURVE",
"141 101 OFFCURVE",
"153 85 CURVE SMOOTH",
"169 65 OFFCURVE",
"184 54 OFFCURVE",
"200 54 CURVE SMOOTH",
"206 54 OFFCURVE",
"215 57 OFFCURVE",
"224 63 CURVE SMOOTH",
"234 68 OFFCURVE",
"238 74 OFFCURVE",
"238 80 CURVE",
"236 83 LINE",
"233 83 OFFCURVE",
"230 82 OFFCURVE",
"225 79 CURVE SMOOTH",
"220 77 OFFCURVE",
"217 76 OFFCURVE",
"214 76 CURVE SMOOTH",
"200 76 OFFCURVE",
"185 86 OFFCURVE",
"169 104 CURVE SMOOTH",
"155 120 OFFCURVE",
"146 136 OFFCURVE",
"142 151 CURVE",
"192 201 OFFCURVE",
"219 230 OFFCURVE",
"219 236 CURVE",
"218 238 LINE",
"211 238 OFFCURVE",
"197 227 OFFCURVE",
"176 206 CURVE SMOOTH",
"162 193 OFFCURVE",
"150 178 OFFCURVE",
"137 163 CURVE",
"128 193 OFFCURVE",
"120 215 OFFCURVE",
"113 227 CURVE SMOOTH",
"111 231 OFFCURVE",
"108 233 OFFCURVE",
"105 233 CURVE SMOOTH",
"94 233 OFFCURVE",
"89 230 OFFCURVE",
"89 224 CURVE SMOOTH",
"89 214 OFFCURVE",
"100 188 OFFCURVE",
"121 148 CURVE",
"68 94 OFFCURVE",
"43 62 OFFCURVE",
"43 50 CURVE SMOOTH",
"43 46 OFFCURVE",
"46 44 OFFCURVE",
"50 44 CURVE SMOOTH"
);
}
);
width = 264;
}
);
note = multiply;
unicode = 00D7;
},
{
glyphname = lslash;
lastChange = "2021-05-25 21:23:40 +0000";
layers = (
{
layerId = "89156F97-8AE0-4F29-8E8C-D321EE696556";
paths = (
{
closed = 1;
nodes = (
"117 0 OFFCURVE",
"147 21 OFFCURVE",
"176 62 CURVE SMOOTH",
"178 65 OFFCURVE",
"180 68 OFFCURVE",
"180 70 CURVE SMOOTH",
"180 73 OFFCURVE",
"179 74 OFFCURVE",
"176 74 CURVE SMOOTH",
"177 74 OFFCURVE",
"166 64 OFFCURVE",
"143 45 CURVE SMOOTH",
"120 26 OFFCURVE",
"100 17 OFFCURVE",
"84 17 CURVE SMOOTH",
"69 17 OFFCURVE",
"62 28 OFFCURVE",
"62 50 CURVE SMOOTH",
"62 105 OFFCURVE",
"109 225 OFFCURVE",
"203 408 CURVE SMOOTH",
"231 463 OFFCURVE",
"246 491 OFFCURVE",
"246 491 CURVE",
"253 498 OFFCURVE",
"259 503 OFFCURVE",
"264 506 CURVE",
"274 527 OFFCURVE",
"281 543 OFFCURVE",
"286 554 CURVE SMOOTH",
"310 607 OFFCURVE",
"328 647 OFFCURVE",
"340 674 CURVE SMOOTH",
"341 676 OFFCURVE",
"341 678 OFFCURVE",
"341 679 CURVE SMOOTH",
"341 685 OFFCURVE",
"335 688 OFFCURVE",
"323 688 CURVE SMOOTH",
"302 688 OFFCURVE",
"288 683 OFFCURVE",
"282 671 CURVE SMOOTH",
"259 629 OFFCURVE",
"243 597 OFFCURVE",
"232 575 CURVE SMOOTH",
"199 507 OFFCURVE",
"167 440 OFFCURVE",
"139 373 CURVE SMOOTH",
"123 335 OFFCURVE",
"111 306 OFFCURVE",
"104 287 CURVE SMOOTH",
"102 283 OFFCURVE",
"92 270 OFFCURVE",
"75 248 CURVE SMOOTH",
"58 226 OFFCURVE",
"49 214 OFFCURVE",
"49 213 CURVE SMOOTH",
"49 211 OFFCURVE",
"50 210 OFFCURVE",
"52 210 CURVE SMOOTH",
"58 210 OFFCURVE",
"70 221 OFFCURVE",
"87 244 CURVE",
"53 152 OFFCURVE",
"36 88 OFFCURVE",
"36 51 CURVE SMOOTH",
"36 17 OFFCURVE",
"53 0 OFFCURVE",
"86 0 CURVE SMOOTH"
);
},
{
closed = 1;
nodes = (
"-28 239 OFFCURVE",
"-6 247 OFFCURVE",
"35 265 CURVE SMOOTH",
"92 289 OFFCURVE",
"149 315 OFFCURVE",
"207 340 CURVE SMOOTH",
"274 369 OFFCURVE",
"334 389 OFFCURVE",
"385 401 CURVE SMOOTH",
"406 406 OFFCURVE",
"422 409 OFFCURVE",
"433 411 CURVE SMOOTH",
"438 412 OFFCURVE",
"440 415 OFFCURVE",
"440 419 CURVE SMOOTH",
"440 424 OFFCURVE",
"437 426 OFFCURVE",
"432 426 CURVE SMOOTH",
"420 426 OFFCURVE",
"394 423 OFFCURVE",
"355 416 CURVE SMOOTH",
"306 408 OFFCURVE",
"254 394 OFFCURVE",
"200 374 CURVE SMOOTH",
"171 363 OFFCURVE",
"123 342 OFFCURVE",
"54 312 CURVE SMOOTH",
"13 294 OFFCURVE",
"-18 282 OFFCURVE",
"-39 273 CURVE SMOOTH",
"-42 272 OFFCURVE",
"-43 269 OFFCURVE",
"-43 263 CURVE SMOOTH",
"-43 247 OFFCURVE",
"-39 239 OFFCURVE",
"-30 239 CURVE SMOOTH"
);
}
);
width = 163;
}
);
note = lslash;
unicode = 0142;
},
{
glyphname = exclam;
lastChange = "2021-05-25 21:23:40 +0000";
layers = (
{
layerId = "89156F97-8AE0-4F29-8E8C-D321EE696556";
paths = (
{
closed = 1;
nodes = (
"116 153 OFFCURVE",
"118 155 OFFCURVE",
"119 160 CURVE SMOOTH",
"121 173 OFFCURVE",
"123 183 OFFCURVE",
"124 190 CURVE SMOOTH",
"137 244 OFFCURVE",
"163 315 OFFCURVE",
"204 403 CURVE SMOOTH",
"240 482 OFFCURVE",
"275 550 OFFCURVE",
"310 608 CURVE SMOOTH",
"314 614 OFFCURVE",
"316 619 OFFCURVE",
"316 624 CURVE SMOOTH",
"316 634 OFFCURVE",
"310 639 OFFCURVE",
"297 639 CURVE SMOOTH",
"284 639 OFFCURVE",
"273 632 OFFCURVE",
"264 620 CURVE SMOOTH",
"240 588 OFFCURVE",
"207 513 OFFCURVE",
"166 395 CURVE SMOOTH",
"125 277 OFFCURVE",
"104 199 OFFCURVE",
"104 161 CURVE SMOOTH",
"104 156 OFFCURVE",
"107 153 OFFCURVE",
"112 153 CURVE SMOOTH"
);
},
{
closed = 1;
nodes = (
"70 -15 OFFCURVE",
"77 -11 OFFCURVE",
"85 -2 CURVE SMOOTH",
"93 6 OFFCURVE",
"98 13 OFFCURVE",
"100 20 CURVE SMOOTH",
"101 23 OFFCURVE",
"105 31 OFFCURVE",
"112 45 CURVE SMOOTH",
"118 57 OFFCURVE",
"121 65 OFFCURVE",
"121 69 CURVE SMOOTH",
"121 71 LINE",
"121 71 LINE",
"120 72 OFFCURVE",
"119 72 OFFCURVE",
"118 72 CURVE SMOOTH",
"105 72 OFFCURVE",
"90 66 OFFCURVE",
"72 54 CURVE SMOOTH",
"52 41 OFFCURVE",
"42 29 OFFCURVE",
"42 17 CURVE SMOOTH",
"42 12 OFFCURVE",
"44 5 OFFCURVE",
"49 -3 CURVE SMOOTH",
"53 -11 OFFCURVE",
"58 -15 OFFCURVE",
"63 -15 CURVE SMOOTH"
);
}
);
width = 219;
}
);
note = exclam;
unicode = 0021;
},
{
glyphname = quotedbl;
lastChange = "2021-05-25 21:23:40 +0000";
layers = (
{
layerId = "89156F97-8AE0-4F29-8E8C-D321EE696556";
paths = (
{
closed = 1;
nodes = (
"160 285 OFFCURVE",
"160 285 OFFCURVE",
"161 285 CURVE SMOOTH",
"162 285 OFFCURVE",
"168 295 OFFCURVE",
"177 315 CURVE SMOOTH",
"196 364 OFFCURVE",
"210 401 OFFCURVE",
"219 425 CURVE SMOOTH",
"226 448 OFFCURVE",
"231 460 OFFCURVE",
"231 458 CURVE",
"235 471 OFFCURVE",
"229 478 OFFCURVE",
"215 478 CURVE SMOOTH",
"214 478 OFFCURVE",
"211 478 OFFCURVE",
"208 478 CURVE SMOOTH",
"201 477 OFFCURVE",
"194 473 OFFCURVE",
"184 465 CURVE SMOOTH",
"174 456 OFFCURVE",
"167 448 OFFCURVE",
"167 441 CURVE SMOOTH",
"167 440 OFFCURVE",
"168 440 OFFCURVE",
"168 439 CURVE SMOOTH",
"175 430 OFFCURVE",
"178 417 OFFCURVE",
"178 400 CURVE SMOOTH",
"178 383 OFFCURVE",
"175 362 OFFCURVE",
"169 337 CURVE SMOOTH",
"162 303 OFFCURVE",
"158 286 OFFCURVE",
"160 285 CURVE"
);
},
{
closed = 1;
nodes = (
"63 285 OFFCURVE",
"63 285 OFFCURVE",
"64 285 CURVE SMOOTH",
"66 285 OFFCURVE",
"71 295 OFFCURVE",
"80 315 CURVE SMOOTH",
"99 364 OFFCURVE",
"113 401 OFFCURVE",
"122 425 CURVE SMOOTH",
"129 448 OFFCURVE",
"134 460 OFFCURVE",
"134 458 CURVE",
"138 471 OFFCURVE",
"132 478 OFFCURVE",
"118 478 CURVE SMOOTH",
"117 478 OFFCURVE",
"114 478 OFFCURVE",
"111 478 CURVE SMOOTH",
"105 477 OFFCURVE",
"97 473 OFFCURVE",
"87 465 CURVE SMOOTH",
"77 456 OFFCURVE",
"70 448 OFFCURVE",
"70 441 CURVE SMOOTH",
"70 440 OFFCURVE",
"71 440 OFFCURVE",
"71 439 CURVE SMOOTH",
"78 430 OFFCURVE",
"81 417 OFFCURVE",
"81 400 CURVE SMOOTH",
"81 383 OFFCURVE",
"78 362 OFFCURVE",
"72 337 CURVE SMOOTH",
"65 303 OFFCURVE",
"61 286 OFFCURVE",
"63 285 CURVE"
);
}
);
width = 250;
}
);
note = quotedbl;
unicode = 0022;
},
{
glyphname = numbersign;
lastChange = "2021-05-25 21:23:40 +0000";
layers = (
{
layerId = "89156F97-8AE0-4F29-8E8C-D321EE696556";
paths = (
{
closed = 1;
nodes = (
"187 52 OFFCURVE",
"197 56 OFFCURVE",
"202 65 CURVE SMOOTH",
"210 80 OFFCURVE",
"215 91 OFFCURVE",
"219 99 CURVE SMOOTH",
"231 124 OFFCURVE",
"244 152 OFFCURVE",
"258 185 CURVE",
"301 186 OFFCURVE",
"338 187 OFFCURVE",
"368 187 CURVE SMOOTH",
"376 187 OFFCURVE",
"380 189 OFFCURVE",
"380 192 CURVE SMOOTH",
"380 193 OFFCURVE",
"378 194 OFFCURVE",
"374 195 CURVE SMOOTH",
"327 201 OFFCURVE",
"291 204 OFFCURVE",
"266 205 CURVE",
"293 267 OFFCURVE",
"315 323 OFFCURVE",
"334 374 CURVE",
"373 375 OFFCURVE",
"405 376 OFFCURVE",
"432 376 CURVE SMOOTH",
"440 376 OFFCURVE",
"444 378 OFFCURVE",
"444 381 CURVE SMOOTH",
"444 382 OFFCURVE",
"442 384 OFFCURVE",
"438 385 CURVE SMOOTH",
"395 390 OFFCURVE",
"363 393 OFFCURVE",
"341 394 CURVE",
"366 465 OFFCURVE",
"378 514 OFFCURVE",
"378 541 CURVE SMOOTH",
"378 556 OFFCURVE",
"376 563 OFFCURVE",
"372 563 CURVE SMOOTH",
"369 563 OFFCURVE",
"366 557 OFFCURVE",
"365 544 CURVE SMOOTH",
"362 523 OFFCURVE",
"356 497 OFFCURVE",
"346 468 CURVE SMOOTH",
"342 456 OFFCURVE",
"332 432 OFFCURVE",
"317 395 CURVE",
"290 396 OFFCURVE",
"266 396 OFFCURVE",
"244 396 CURVE SMOOTH",
"216 396 LINE",
"240 461 OFFCURVE",
"252 506 OFFCURVE",
"252 529 CURVE SMOOTH",
"252 540 OFFCURVE",
"250 545 OFFCURVE",
"247 545 CURVE SMOOTH",
"243 545 OFFCURVE",
"240 539 OFFCURVE",
"239 526 CURVE SMOOTH",
"236 495 OFFCURVE",
"221 451 OFFCURVE",
"196 395 CURVE",
"129 394 OFFCURVE",
"85 392 OFFCURVE",
"65 389 CURVE SMOOTH",
"64 389 OFFCURVE",
"63 389 OFFCURVE",
"62 388 CURVE",
"63 384 OFFCURVE",
"68 379 OFFCURVE",
"79 373 CURVE SMOOTH",
"91 366 OFFCURVE",
"98 363 OFFCURVE",
"98 364 CURVE SMOOTH",
"98 365 OFFCURVE",
"127 366 OFFCURVE",
"184 369 CURVE",
"171 341 OFFCURVE",
"153 305 OFFCURVE",
"130 261 CURVE SMOOTH",
"120 241 OFFCURVE",
"112 226 OFFCURVE",
"107 216 CURVE",
"102 211 OFFCURVE",
"97 207 OFFCURVE",
"94 205 CURVE",
"43 203 OFFCURVE",
"12 201 OFFCURVE",
"1 200 CURVE SMOOTH",
"0 200 OFFCURVE",
"-1 200 OFFCURVE",
"-1 199 CURVE SMOOTH",
"-1 195 OFFCURVE",
"4 190 OFFCURVE",
"15 184 CURVE SMOOTH",
"25 178 OFFCURVE",
"32 175 OFFCURVE",
"36 175 CURVE SMOOTH",
"34 175 OFFCURVE",
"49 176 OFFCURVE",
"81 178 CURVE",
"53 115 OFFCURVE",
"39 83 OFFCURVE",
"39 81 CURVE SMOOTH",
"39 76 OFFCURVE",
"43 74 OFFCURVE",
"52 74 CURVE SMOOTH",
"66 74 OFFCURVE",
"76 78 OFFCURVE",
"81 86 CURVE SMOOTH",
"101 125 OFFCURVE",
"116 156 OFFCURVE",
"126 180 CURVE",
"158 181 OFFCURVE",
"190 183 OFFCURVE",
"222 184 CURVE",
"199 139 OFFCURVE",
"179 97 OFFCURVE",
"160 59 CURVE",
"160 54 OFFCURVE",
"164 52 OFFCURVE",
"173 52 CURVE SMOOTH"
);
},
{
closed = 1;
nodes = (
"165 266 OFFCURVE",
"188 321 OFFCURVE",
"207 370 CURVE",
"241 371 OFFCURVE",
"275 373 OFFCURVE",
"308 374 CURVE",
"287 323 OFFCURVE",
"262 267 OFFCURVE",
"233 206 CURVE",
"218 207 OFFCURVE",
"202 207 OFFCURVE",
"186 207 CURVE SMOOTH",
"171 207 OFFCURVE",
"155 207 OFFCURVE",
"138 206 CURVE"
);
}
);
width = 449;
}
);
note = numbersign;
unicode = 0023;
},
{
glyphname = dollar;
lastChange = "2021-05-25 21:23:40 +0000";
layers = (
{
layerId = "89156F97-8AE0-4F29-8E8C-D321EE696556";
paths = (
{
closed = 1;
nodes = (
"65 68 OFFCURVE",
"68 69 OFFCURVE",
"68 71 CURVE SMOOTH",
"70 90 OFFCURVE",
"71 106 OFFCURVE",
"72 118 CURVE SMOOTH",
"77 149 OFFCURVE",
"85 182 OFFCURVE",
"96 219 CURVE",
"139 218 OFFCURVE",
"179 227 OFFCURVE",
"215 246 CURVE SMOOTH",
"258 269 OFFCURVE",
"280 301 OFFCURVE",
"280 341 CURVE SMOOTH",
"280 368 OFFCURVE",
"271 390 OFFCURVE",
"254 407 CURVE SMOOTH",
"247 414 OFFCURVE",
"228 428 OFFCURVE",
"195 449 CURVE",
"218 492 OFFCURVE",
"242 534 OFFCURVE",
"268 577 CURVE",
"285 571 OFFCURVE",
"294 562 OFFCURVE",
"294 549 CURVE SMOOTH",
"294 530 OFFCURVE",
"282 520 OFFCURVE",
"257 520 CURVE SMOOTH",
"250 520 OFFCURVE",
"247 519 OFFCURVE",
"247 517 CURVE SMOOTH",
"247 516 OFFCURVE",
"250 515 OFFCURVE",
"257 515 CURVE SMOOTH",
"296 515 OFFCURVE",
"315 525 OFFCURVE",
"315 546 CURVE SMOOTH",
"315 563 OFFCURVE",
"301 576 OFFCURVE",
"272 584 CURVE",
"296 621 OFFCURVE",
"318 655 OFFCURVE",
"338 686 CURVE",
"338 688 OFFCURVE",
"337 689 OFFCURVE",
"334 689 CURVE SMOOTH",
"315 689 OFFCURVE",
"285 655 OFFCURVE",
"246 588 CURVE",
"216 590 OFFCURVE",
"188 585 OFFCURVE",
"161 572 CURVE SMOOTH",
"129 557 OFFCURVE",
"113 535 OFFCURVE",
"113 507 CURVE SMOOTH",
"113 482 OFFCURVE",
"130 458 OFFCURVE",
"163 435 CURVE",
"126 360 OFFCURVE",
"97 292 OFFCURVE",
"75 229 CURVE",
"52 234 OFFCURVE",
"33 245 OFFCURVE",
"18 263 CURVE SMOOTH",
"3 280 OFFCURVE",
"-5 301 OFFCURVE",
"-5 324 CURVE SMOOTH",
"-5 351 OFFCURVE",
"5 372 OFFCURVE",
"25 387 CURVE SMOOTH",
"43 401 OFFCURVE",
"66 408 OFFCURVE",
"94 408 CURVE SMOOTH",
"104 408 OFFCURVE",
"109 408 OFFCURVE",
"110 409 CURVE",
"109 412 OFFCURVE",
"101 413 OFFCURVE",
"85 413 CURVE SMOOTH",
"54 413 OFFCURVE",
"29 403 OFFCURVE",
"7 384 CURVE SMOOTH",
"-16 364 OFFCURVE",
"-28 340 OFFCURVE",
"-28 310 CURVE SMOOTH",
"-28 259 OFFCURVE",
"6 230 OFFCURVE",
"73 221 CURVE",
"50 156 OFFCURVE",
"39 107 OFFCURVE",
"39 74 CURVE SMOOTH",
"39 70 OFFCURVE",
"46 68 OFFCURVE",
"60 68 CURVE SMOOTH"
);
},
{
closed = 1;
nodes = (
"117 285 OFFCURVE",
"145 351 OFFCURVE",
"181 423 CURVE",
"217 398 OFFCURVE",
"235 370 OFFCURVE",
"235 339 CURVE SMOOTH",
"235 291 OFFCURVE",
"214 258 OFFCURVE",
"172 241 CURVE SMOOTH",
"147 231 OFFCURVE",
"123 226 OFFCURVE",
"102 226 CURVE SMOOTH",
"98 226 LINE"
);
},
{
closed = 1;
nodes = (
"162 477 OFFCURVE",
"154 493 OFFCURVE",
"154 512 CURVE SMOOTH",
"154 560 OFFCURVE",
"180 582 OFFCURVE",
"233 582 CURVE SMOOTH",
"242 582 LINE",
"221 545 OFFCURVE",
"199 506 OFFCURVE",
"177 463 CURVE"
);
}
);
width = 280;
}
);
note = dollar;
unicode = 0024;
},
{
glyphname = percent;
lastChange = "2021-05-25 21:23:40 +0000";
layers = (
{
layerId = "89156F97-8AE0-4F29-8E8C-D321EE696556";
paths = (
{
closed = 1;
nodes = (
"18 -127 OFFCURVE",
"20 -124 OFFCURVE",
"22 -118 CURVE SMOOTH",
"31 -84 OFFCURVE",
"40 -58 OFFCURVE",
"49 -39 CURVE SMOOTH",
"119 111 OFFCURVE",
"295 312 OFFCURVE",
"580 561 CURVE SMOOTH",
"645 618 OFFCURVE",
"696 660 OFFCURVE",
"729 688 CURVE SMOOTH",
"732 691 OFFCURVE",
"733 695 OFFCURVE",
"733 698 CURVE SMOOTH",
"733 709 OFFCURVE",
"727 714 OFFCURVE",
"714 714 CURVE SMOOTH",
"712 714 OFFCURVE",
"710 714 OFFCURVE",
"708 714 CURVE",
"701 730 OFFCURVE",
"679 743 OFFCURVE",
"642 752 CURVE SMOOTH",
"613 759 OFFCURVE",
"585 763 OFFCURVE",
"560 763 CURVE SMOOTH",
"527 763 OFFCURVE",
"488 760 OFFCURVE",
"443 754 CURVE SMOOTH",
"404 749 OFFCURVE",
"366 743 OFFCURVE",
"327 737 CURVE SMOOTH",
"329 737 OFFCURVE",
"319 737 OFFCURVE",
"296 737 CURVE SMOOTH",
"293 737 OFFCURVE",
"291 737 OFFCURVE",
"289 737 CURVE",
"320 726 OFFCURVE",
"335 699 OFFCURVE",
"335 658 CURVE SMOOTH",
"335 621 OFFCURVE",
"323 578 OFFCURVE",
"300 529 CURVE SMOOTH",
"277 481 OFFCURVE",
"250 444 OFFCURVE",
"221 417 CURVE SMOOTH",
"203 401 OFFCURVE",
"188 393 OFFCURVE",
"176 393 CURVE SMOOTH",
"162 393 OFFCURVE",
"155 402 OFFCURVE",
"155 421 CURVE SMOOTH",
"155 449 OFFCURVE",
"175 499 OFFCURVE",
"214 570 CURVE SMOOTH",
"253 641 OFFCURVE",
"273 678 OFFCURVE",
"273 680 CURVE SMOOTH",
"273 689 OFFCURVE",
"266 694 OFFCURVE",
"252 694 CURVE SMOOTH",
"241 694 OFFCURVE",
"226 674 OFFCURVE",
"204 636 CURVE SMOOTH",
"190 610 OFFCURVE",
"177 587 OFFCURVE",
"168 564 CURVE SMOOTH",
"145 510 OFFCURVE",
"134 466 OFFCURVE",
"134 433 CURVE SMOOTH",
"134 396 OFFCURVE",
"148 378 OFFCURVE",
"175 378 CURVE SMOOTH",
"207 378 OFFCURVE",
"243 404 OFFCURVE",
"284 456 CURVE SMOOTH",
"315 496 OFFCURVE",
"340 536 OFFCURVE",
"357 577 CURVE SMOOTH",
"372 612 OFFCURVE",
"379 643 OFFCURVE",
"379 668 CURVE SMOOTH",
"379 693 OFFCURVE",
"371 711 OFFCURVE",
"355 721 CURVE",
"470 737 OFFCURVE",
"541 745 OFFCURVE",
"570 745 CURVE SMOOTH",
"645 745 OFFCURVE",
"687 734 OFFCURVE",
"698 711 CURVE",
"687 708 OFFCURVE",
"677 703 OFFCURVE",
"669 696 CURVE SMOOTH",
"601 639 OFFCURVE",
"551 594 OFFCURVE",
"518 563 CURVE SMOOTH",
"407 458 OFFCURVE",
"305 354 OFFCURVE",
"215 249 CURVE SMOOTH",
"138 159 OFFCURVE",
"81 82 OFFCURVE",
"42 17 CURVE SMOOTH",
"8 -40 OFFCURVE",
"-9 -79 OFFCURVE",
"-9 -101 CURVE SMOOTH",
"-9 -107 OFFCURVE",
"-7 -113 OFFCURVE",
"-2 -119 CURVE SMOOTH",
"2 -124 OFFCURVE",
"7 -127 OFFCURVE",
"13 -127 CURVE SMOOTH"
);
},
{
closed = 1;
nodes = (
"406 -15 OFFCURVE",
"399 -3 OFFCURVE",
"399 20 CURVE SMOOTH",
"399 40 OFFCURVE",
"410 69 OFFCURVE",
"431 106 CURVE",
"446 56 OFFCURVE",
"464 29 OFFCURVE",
"486 26 CURVE",
"461 -1 OFFCURVE",
"439 -15 OFFCURVE",
"420 -15 CURVE SMOOTH"
);
},
{
closed = 1;
nodes = (
"470 37 OFFCURVE",
"453 64 OFFCURVE",
"438 115 CURVE",
"445 128 OFFCURVE",
"464 148 OFFCURVE",
"496 173 CURVE SMOOTH",
"527 198 OFFCURVE",
"550 212 OFFCURVE",
"565 215 CURVE",
"564 192 OFFCURVE",
"555 160 OFFCURVE",
"538 117 CURVE SMOOTH",
"521 74 OFFCURVE",
"505 46 OFFCURVE",
"490 32 CURVE"
);
},
{
closed = 1;
nodes = (
"435 -46 OFFCURVE",
"457 -35 OFFCURVE",
"483 -12 CURVE SMOOTH",
"509 10 OFFCURVE",
"521 21 OFFCURVE",
"519 21 CURVE SMOOTH",
"520 21 OFFCURVE",
"522 21 OFFCURVE",
"524 20 CURVE SMOOTH",
"526 19 OFFCURVE",
"528 19 OFFCURVE",
"529 19 CURVE SMOOTH",
"537 19 OFFCURVE",
"545 21 OFFCURVE",
"553 26 CURVE",
"533 26 OFFCURVE",
"522 26 OFFCURVE",
"521 26 CURVE",
"561 82 OFFCURVE",
"581 138 OFFCURVE",
"581 195 CURVE SMOOTH",
"581 201 OFFCURVE",
"581 207 OFFCURVE",
"580 214 CURVE",
"587 214 OFFCURVE",
"595 216 OFFCURVE",
"604 219 CURVE SMOOTH",
"616 224 OFFCURVE",
"622 228 OFFCURVE",
"622 233 CURVE SMOOTH",
"622 240 OFFCURVE",
"608 244 OFFCURVE",
"579 244 CURVE",
"572 313 OFFCURVE",
"547 348 OFFCURVE",
"502 348 CURVE SMOOTH",
"473 348 OFFCURVE",
"449 333 OFFCURVE",
"430 303 CURVE SMOOTH",
"414 277 OFFCURVE",
"405 249 OFFCURVE",
"405 218 CURVE SMOOTH",
"405 189 OFFCURVE",
"412 160 OFFCURVE",
"425 130 CURVE",
"394 87 OFFCURVE",
"378 45 OFFCURVE",
"378 5 CURVE SMOOTH",
"378 -29 OFFCURVE",
"391 -46 OFFCURVE",
"417 -46 CURVE SMOOTH"
);
},
{
closed = 1;
nodes = (
"433 151 OFFCURVE",
"432 163 OFFCURVE",
"432 177 CURVE SMOOTH",
"432 208 OFFCURVE",
"438 238 OFFCURVE",
"450 266 CURVE SMOOTH",
"468 308 OFFCURVE",
"487 329 OFFCURVE",
"509 329 CURVE SMOOTH",
"532 329 OFFCURVE",
"550 300 OFFCURVE",
"563 243 CURVE",
"520 230 OFFCURVE",
"477 196 OFFCURVE",
"436 141 CURVE"
);
}
);
width = 629;
}
);
note = percent;
unicode = 0025;
},
{
glyphname = ampersand;
lastChange = "2021-05-25 21:23:40 +0000";
layers = (
{
layerId = "89156F97-8AE0-4F29-8E8C-D321EE696556";
paths = (
{
closed = 1;
nodes = (
"269 -242 OFFCURVE",
"351 -149 OFFCURVE",
"408 36 CURVE",
"506 67 OFFCURVE",
"587 118 OFFCURVE",
"651 191 CURVE SMOOTH",
"698 245 OFFCURVE",
"722 290 OFFCURVE",
"722 325 CURVE SMOOTH",
"722 366 OFFCURVE",
"694 387 OFFCURVE",
"639 387 CURVE SMOOTH",
"585 387 OFFCURVE",
"529 368 OFFCURVE",
"472 329 CURVE",
"490 413 OFFCURVE",
"504 469 OFFCURVE",
"515 496 CURVE",
"550 517 OFFCURVE",
"575 533 OFFCURVE",
"590 545 CURVE SMOOTH",
"619 570 OFFCURVE",
"634 594 OFFCURVE",
"634 617 CURVE SMOOTH",
"634 637 OFFCURVE",
"625 647 OFFCURVE",
"608 647 CURVE SMOOTH",
"593 647 OFFCURVE",
"575 636 OFFCURVE",
"555 616 CURVE SMOOTH",
"542 603 OFFCURVE",
"529 584 OFFCURVE",
"517 558 CURVE SMOOTH",
"511 545 OFFCURVE",
"502 523 OFFCURVE",
"491 492 CURVE",
"426 458 OFFCURVE",
"361 424 OFFCURVE",
"296 389 CURVE SMOOTH",
"223 350 OFFCURVE",
"163 308 OFFCURVE",
"114 263 CURVE",
"93 286 OFFCURVE",
"82 312 OFFCURVE",
"82 343 CURVE SMOOTH",
"82 392 OFFCURVE",
"108 434 OFFCURVE",
"160 469 CURVE SMOOTH",
"206 500 OFFCURVE",
"255 516 OFFCURVE",
"307 516 CURVE SMOOTH",
"314 516 OFFCURVE",
"325 514 OFFCURVE",
"339 511 CURVE SMOOTH",
"352 508 OFFCURVE",
"362 507 OFFCURVE",
"369 507 CURVE SMOOTH",
"370 507 OFFCURVE",
"371 508 OFFCURVE",
"372 510 CURVE",
"372 514 OFFCURVE",
"362 518 OFFCURVE",
"341 521 CURVE SMOOTH",
"325 523 OFFCURVE",
"312 524 OFFCURVE",
"303 524 CURVE SMOOTH",
"246 524 OFFCURVE",
"192 507 OFFCURVE",
"140 474 CURVE SMOOTH",
"81 437 OFFCURVE",
"52 391 OFFCURVE",
"52 338 CURVE SMOOTH",
"52 302 OFFCURVE",
"66 271 OFFCURVE",
"94 245 CURVE",
"41 192 OFFCURVE",
"15 146 OFFCURVE",
"15 106 CURVE SMOOTH",
"15 67 OFFCURVE",
"39 38 OFFCURVE",
"88 20 CURVE SMOOTH",
"123 7 OFFCURVE",
"164 0 OFFCURVE",
"211 0 CURVE SMOOTH",
"258 0 OFFCURVE",
"307 6 OFFCURVE",
"358 19 CURVE",
"297 -146 OFFCURVE",
"228 -228 OFFCURVE",
"152 -228 CURVE SMOOTH",
"113 -228 OFFCURVE",
"90 -211 OFFCURVE",
"85 -177 CURVE",
"84 -174 OFFCURVE",
"83 -173 OFFCURVE",
"81 -173 CURVE SMOOTH",
"78 -173 OFFCURVE",
"77 -174 OFFCURVE",
"77 -177 CURVE SMOOTH",
"77 -198 OFFCURVE",
"87 -215 OFFCURVE",
"106 -227 CURVE SMOOTH",
"122 -237 OFFCURVE",
"141 -242 OFFCURVE",
"164 -242 CURVE SMOOTH"
);
},
{
closed = 1;
nodes = (
"206 21 OFFCURVE",
"170 27 OFFCURVE",
"140 39 CURVE SMOOTH",
"99 56 OFFCURVE",
"79 83 OFFCURVE",
"79 119 CURVE SMOOTH",
"79 149 OFFCURVE",
"94 183 OFFCURVE",
"125 222 CURVE",
"153 206 OFFCURVE",
"183 198 OFFCURVE",
"215 198 CURVE SMOOTH",
"279 198 OFFCURVE",
"353 232 OFFCURVE",
"437 299 CURVE",
"407 177 OFFCURVE",
"382 89 OFFCURVE",
"362 35 CURVE",
"323 26 OFFCURVE",
"285 21 OFFCURVE",
"248 21 CURVE SMOOTH"
);
},
{
closed = 1;
nodes = (
"193 218 OFFCURVE",
"166 226 OFFCURVE",
"141 241 CURVE",
"194 300 OFFCURVE",
"261 355 OFFCURVE",
"342 402 CURVE SMOOTH",
"405 438 OFFCURVE",
"454 463 OFFCURVE",
"487 480 CURVE",
"473 437 OFFCURVE",
"457 380 OFFCURVE",
"440 309 CURVE",
"392 279 OFFCURVE",
"358 258 OFFCURVE",
"337 248 CURVE SMOOTH",
"295 228 OFFCURVE",
"257 218 OFFCURVE",
"222 218 CURVE SMOOTH"
);
},
{
closed = 1;
nodes = (
"439 168 OFFCURVE",
"458 257 OFFCURVE",
"469 317 CURVE",
"513 340 OFFCURVE",
"557 351 OFFCURVE",
"601 351 CURVE SMOOTH",
"656 351 OFFCURVE",
"684 333 OFFCURVE",
"684 296 CURVE SMOOTH",
"684 267 OFFCURVE",
"663 228 OFFCURVE",
"622 181 CURVE SMOOTH",
"570 122 OFFCURVE",
"500 78 OFFCURVE",
"411 51 CURVE"
);
},
{
closed = 1;
nodes = (
"542 556 OFFCURVE",
"560 587 OFFCURVE",
"577 602 CURVE SMOOTH",
"590 614 OFFCURVE",
"600 620 OFFCURVE",
"607 620 CURVE SMOOTH",
"612 620 OFFCURVE",
"615 616 OFFCURVE",
"615 609 CURVE SMOOTH",
"615 598 OFFCURVE",
"602 579 OFFCURVE",
"576 554 CURVE SMOOTH",
"555 533 OFFCURVE",
"536 518 OFFCURVE",
"521 509 CURVE"
);
}
);
width = 714;
}
);
note = ampersand;
unicode = 0026;
},
{
glyphname = quotesingle;
lastChange = "2021-05-25 21:23:40 +0000";
layers = (
{
layerId = "89156F97-8AE0-4F29-8E8C-D321EE696556";
paths = (
{
closed = 1;
nodes = (
"63 285 OFFCURVE",
"63 285 OFFCURVE",
"64 285 CURVE SMOOTH",
"66 285 OFFCURVE",
"71 295 OFFCURVE",
"80 315 CURVE SMOOTH",
"99 364 OFFCURVE",
"113 401 OFFCURVE",
"122 425 CURVE SMOOTH",
"129 448 OFFCURVE",
"134 460 OFFCURVE",
"134 458 CURVE",
"138 471 OFFCURVE",
"132 478 OFFCURVE",
"118 478 CURVE SMOOTH",
"117 478 OFFCURVE",
"114 478 OFFCURVE",
"111 478 CURVE SMOOTH",
"105 477 OFFCURVE",
"97 473 OFFCURVE",
"87 465 CURVE SMOOTH",
"77 456 OFFCURVE",
"70 448 OFFCURVE",
"70 441 CURVE SMOOTH",
"70 440 OFFCURVE",
"71 440 OFFCURVE",
"71 439 CURVE SMOOTH",
"78 430 OFFCURVE",
"81 417 OFFCURVE",
"81 400 CURVE SMOOTH",
"81 383 OFFCURVE",
"78 362 OFFCURVE",
"72 337 CURVE SMOOTH",
"65 303 OFFCURVE",
"61 286 OFFCURVE",
"63 285 CURVE"
);
}
);
width = 153;
}
);
note = quotesingle;
unicode = 0027;
},
{
glyphname = parenleft;
lastChange = "2021-05-25 21:23:40 +0000";
layers = (
{
layerId = "89156F97-8AE0-4F29-8E8C-D321EE696556";
paths = (
{
closed = 1;
nodes = (
"120 -62 OFFCURVE",
"133 -60 OFFCURVE",
"148 -57 CURVE SMOOTH",
"167 -53 OFFCURVE",
"177 -49 OFFCURVE",
"177 -44 CURVE SMOOTH",
"177 -41 OFFCURVE",
"175 -39 OFFCURVE",
"171 -39 CURVE SMOOTH",
"169 -39 OFFCURVE",
"166 -39 OFFCURVE",
"162 -40 CURVE SMOOTH",
"158 -41 OFFCURVE",
"155 -41 OFFCURVE",
"152 -41 CURVE SMOOTH",
"97 -41 OFFCURVE",
"69 7 OFFCURVE",
"69 102 CURVE SMOOTH",
"69 143 OFFCURVE",
"73 178 OFFCURVE",
"81 208 CURVE SMOOTH",
"96 264 OFFCURVE",
"119 315 OFFCURVE",
"150 362 CURVE SMOOTH",
"193 429 OFFCURVE",
"251 487 OFFCURVE",
"323 536 CURVE SMOOTH",
"404 591 OFFCURVE",
"480 618 OFFCURVE",
"551 618 CURVE SMOOTH",
"554 618 OFFCURVE",
"556 620 OFFCURVE",
"556 623 CURVE SMOOTH",
"556 626 OFFCURVE",
"554 628 OFFCURVE",
"551 628 CURVE SMOOTH",
"461 628 OFFCURVE",
"372 601 OFFCURVE",
"285 545 CURVE SMOOTH",
"202 492 OFFCURVE",
"136 425 OFFCURVE",
"88 344 CURVE SMOOTH",
"58 294 OFFCURVE",
"37 239 OFFCURVE",
"24 178 CURVE SMOOTH",
"18 149 OFFCURVE",
"14 119 OFFCURVE",
"14 87 CURVE SMOOTH",
"14 -12 OFFCURVE",
"46 -62 OFFCURVE",
"111 -62 CURVE SMOOTH"
);
}
);
width = 287;
}
);
note = parenleft;
unicode = 0028;
},
{
glyphname = parenright;
lastChange = "2021-05-25 21:23:40 +0000";
layers = (
{
layerId = "89156F97-8AE0-4F29-8E8C-D321EE696556";
paths = (
{
closed = 1;
nodes = (
"43 -93 OFFCURVE",
"92 -79 OFFCURVE",
"142 -50 CURVE SMOOTH",
"222 -5 OFFCURVE",
"294 64 OFFCURVE",
"357 156 CURVE SMOOTH",
"424 253 OFFCURVE",
"458 345 OFFCURVE",
"458 432 CURVE SMOOTH",
"458 491 OFFCURVE",
"442 539 OFFCURVE",
"411 575 CURVE SMOOTH",
"380 611 OFFCURVE",
"335 629 OFFCURVE",
"277 629 CURVE SMOOTH",
"251 629 OFFCURVE",
"238 626 OFFCURVE",
"238 620 CURVE SMOOTH",
"238 618 OFFCURVE",
"240 616 OFFCURVE",
"243 616 CURVE SMOOTH",
"268 612 OFFCURVE",
"287 609 OFFCURVE",
"298 605 CURVE SMOOTH",
"369 581 OFFCURVE",
"404 523 OFFCURVE",
"404 431 CURVE SMOOTH",
"404 348 OFFCURVE",
"378 261 OFFCURVE",
"325 171 CURVE SMOOTH",
"273 81 OFFCURVE",
"211 14 OFFCURVE",
"139 -30 CURVE SMOOTH",
"81 -65 OFFCURVE",
"31 -83 OFFCURVE",
"-11 -83 CURVE SMOOTH",
"-22 -83 OFFCURVE",
"-28 -84 OFFCURVE",
"-28 -87 CURVE SMOOTH",
"-28 -91 OFFCURVE",
"-20 -93 OFFCURVE",
"-5 -93 CURVE SMOOTH"
);
}
);
width = 458;
}
);
note = parenright;
unicode = 0029;
},
{
glyphname = asterisk;
lastChange = "2021-05-25 21:23:40 +0000";
layers = (
{
layerId = "89156F97-8AE0-4F29-8E8C-D321EE696556";
paths = (
{
closed = 1;
nodes = (
"315 14 OFFCURVE",
"320 17 OFFCURVE",
"326 22 CURVE SMOOTH",
"332 27 OFFCURVE",
"335 31 OFFCURVE",
"335 34 CURVE SMOOTH",
"335 41 OFFCURVE",
"335 51 OFFCURVE",
"334 64 CURVE SMOOTH",
"333 79 OFFCURVE",
"332 90 OFFCURVE",
"332 95 CURVE SMOOTH",
"331 129 OFFCURVE",
"329 174 OFFCURVE",
"328 231 CURVE",
"425 132 OFFCURVE",
"478 83 OFFCURVE",
"485 83 CURVE SMOOTH",
"489 83 OFFCURVE",
"491 90 OFFCURVE",
"491 105 CURVE SMOOTH",
"491 110 OFFCURVE",
"490 113 OFFCURVE",
"489 115 CURVE",
"483 120 OFFCURVE",
"478 124 OFFCURVE",
"475 127 CURVE SMOOTH",
"412 184 OFFCURVE",
"366 228 OFFCURVE",
"336 257 CURVE",
"350 257 OFFCURVE",
"364 257 OFFCURVE",
"378 257 CURVE SMOOTH",
"467 257 OFFCURVE",
"529 260 OFFCURVE",
"565 264 CURVE",
"566 265 LINE",
"565 269 OFFCURVE",
"562 274 OFFCURVE",
"557 280 CURVE SMOOTH",
"552 286 OFFCURVE",
"548 289 OFFCURVE",
"545 289 CURVE SMOOTH",
"538 289 OFFCURVE",
"527 288 OFFCURVE",
"514 287 CURVE SMOOTH",
"499 286 OFFCURVE",
"489 285 OFFCURVE",
"484 285 CURVE SMOOTH",
"449 284 OFFCURVE",
"403 282 OFFCURVE",
"346 281 CURVE",
"444 383 LINE SMOOTH",
"464 403 OFFCURVE",
"479 418 OFFCURVE",
"490 429 CURVE SMOOTH",
"491 430 OFFCURVE",
"492 432 OFFCURVE",
"492 434 CURVE SMOOTH",
"492 437 OFFCURVE",
"491 438 OFFCURVE",
"488 438 CURVE SMOOTH",
"481 438 OFFCURVE",
"427 390 OFFCURVE",
"327 293 CURVE",
"325 399 OFFCURVE",
"324 472 OFFCURVE",
"324 511 CURVE SMOOTH",
"324 516 OFFCURVE",
"322 518 OFFCURVE",
"319 518 CURVE SMOOTH",
"317 518 OFFCURVE",
"316 517 OFFCURVE",
"315 514 CURVE SMOOTH",
"311 503 OFFCURVE",
"308 467 OFFCURVE",
"306 404 CURVE SMOOTH",
"306 391 OFFCURVE",
"305 352 OFFCURVE",
"304 287 CURVE",
"194 395 LINE SMOOTH",
"171 417 OFFCURVE",
"154 434 OFFCURVE",
"143 445 CURVE",
"141 446 OFFCURVE",
"139 447 OFFCURVE",
"138 447 CURVE SMOOTH",
"135 447 OFFCURVE",
"134 446 OFFCURVE",
"134 443 CURVE SMOOTH",
"134 435 OFFCURVE",
"183 381 OFFCURVE",
"280 280 CURVE",
"177 278 OFFCURVE",
"106 277 OFFCURVE",
"68 277 CURVE SMOOTH",
"63 277 OFFCURVE",
"61 275 OFFCURVE",
"61 272 CURVE SMOOTH",
"61 271 OFFCURVE",
"62 269 OFFCURVE",
"65 268 CURVE SMOOTH",
"76 264 OFFCURVE",
"113 262 OFFCURVE",
"174 260 CURVE SMOOTH",
"184 260 OFFCURVE",
"223 259 OFFCURVE",
"290 258 CURVE",
"183 152 OFFCURVE",
"129 95 OFFCURVE",
"129 87 CURVE SMOOTH",
"129 83 OFFCURVE",
"136 81 OFFCURVE",
"150 81 CURVE SMOOTH",
"155 81 OFFCURVE",
"159 82 OFFCURVE",
"160 83 CURVE SMOOTH",
"165 89 OFFCURVE",
"169 94 OFFCURVE",
"172 97 CURVE SMOOTH",
"230 160 OFFCURVE",
"274 207 OFFCURVE",
"304 238 CURVE",
"304 220 OFFCURVE",
"304 203 OFFCURVE",
"304 186 CURVE SMOOTH",
"304 105 OFFCURVE",
"306 47 OFFCURVE",
"310 14 CURVE",
"312 13 LINE"
);
}
);
width = 599;
}
);
note = asterisk;
unicode = 002A;
},
{
glyphname = plus;
lastChange = "2021-05-25 21:23:40 +0000";
layers = (
{
layerId = "89156F97-8AE0-4F29-8E8C-D321EE696556";
paths = (
{
closed = 1;
nodes = (
"157 11 OFFCURVE",
"159 12 OFFCURVE",
"160 14 CURVE SMOOTH",
"171 39 OFFCURVE",
"183 104 OFFCURVE",
"197 211 CURVE",
"259 214 OFFCURVE",
"312 215 OFFCURVE",
"356 215 CURVE SMOOTH",
"363 215 OFFCURVE",
"367 217 OFFCURVE",
"367 220 CURVE SMOOTH",
"367 222 OFFCURVE",
"365 223 OFFCURVE",
"362 224 CURVE SMOOTH",
"329 231 OFFCURVE",
"275 234 OFFCURVE",
"200 235 CURVE",
"209 308 OFFCURVE",
"212 362 OFFCURVE",
"212 399 CURVE SMOOTH",
"212 412 LINE",
"210 413 LINE",
"206 413 OFFCURVE",
"200 410 OFFCURVE",
"191 405 CURVE SMOOTH",
"182 400 OFFCURVE",
"178 396 OFFCURVE",
"178 393 CURVE SMOOTH",
"178 330 OFFCURVE",
"176 278 OFFCURVE",
"173 235 CURVE",
"100 235 OFFCURVE",
"48 233 OFFCURVE",
"18 229 CURVE",
"17 228 OFFCURVE",
"16 228 OFFCURVE",
"15 227 CURVE",
"16 223 OFFCURVE",
"20 218 OFFCURVE",
"29 212 CURVE SMOOTH",
"37 206 OFFCURVE",
"43 203 OFFCURVE",
"48 203 CURVE SMOOTH",
"46 203 OFFCURVE",
"59 204 OFFCURVE",
"87 206 CURVE SMOOTH",
"114 207 OFFCURVE",
"142 209 OFFCURVE",
"171 210 CURVE",
"166 151 OFFCURVE",
"161 107 OFFCURVE",
"158 78 CURVE SMOOTH",
"154 39 OFFCURVE",
"152 18 OFFCURVE",
"152 17 CURVE SMOOTH",
"152 13 OFFCURVE",
"153 11 OFFCURVE",
"156 11 CURVE SMOOTH"
);
}
);
width = 385;
}
);
note = plus;
unicode = 002B;
},
{
glyphname = comma;
lastChange = "2021-05-25 21:23:40 +0000";
layers = (
{
layerId = "89156F97-8AE0-4F29-8E8C-D321EE696556";
paths = (
{
closed = 1;
nodes = (
"26 -115 OFFCURVE",
"37 -103 OFFCURVE",
"55 -79 CURVE SMOOTH",
"69 -61 OFFCURVE",
"80 -46 OFFCURVE",
"86 -34 CURVE SMOOTH",
"105 -3 OFFCURVE",
"114 22 OFFCURVE",
"114 40 CURVE SMOOTH",
"114 46 OFFCURVE",
"113 50 OFFCURVE",
"112 55 CURVE SMOOTH",
"112 54 LINE",
"104 67 OFFCURVE",
"95 72 OFFCURVE",
"88 72 CURVE SMOOTH",
"84 72 OFFCURVE",
"79 68 OFFCURVE",
"75 61 CURVE SMOOTH",
"71 54 OFFCURVE",
"69 48 OFFCURVE",
"69 43 CURVE SMOOTH",
"69 40 OFFCURVE",
"70 35 OFFCURVE",
"72 29 CURVE SMOOTH",
"74 23 OFFCURVE",
"75 18 OFFCURVE",
"75 15 CURVE SMOOTH",
"75 -8 OFFCURVE",
"66 -35 OFFCURVE",
"48 -67 CURVE SMOOTH",
"29 -100 OFFCURVE",
"20 -115 OFFCURVE",
"20 -114 CURVE",
"20 -115 OFFCURVE",
"20 -115 OFFCURVE",
"21 -115 CURVE SMOOTH"
);
}
);
width = 144;
}
);
note = comma;
unicode = 002C;
},
{
glyphname = hyphen;
lastChange = "2021-05-25 21:23:40 +0000";
layers = (
{
layerId = "89156F97-8AE0-4F29-8E8C-D321EE696556";
paths = (
{
closed = 1;
nodes = (
"94 159 OFFCURVE",
"112 160 OFFCURVE",
"149 163 CURVE SMOOTH",
"194 167 OFFCURVE",
"234 169 OFFCURVE",
"268 169 CURVE SMOOTH",
"272 169 OFFCURVE",
"274 171 OFFCURVE",
"274 174 CURVE SMOOTH",
"274 176 OFFCURVE",
"273 177 OFFCURVE",
"271 178 CURVE SMOOTH",
"249 184 OFFCURVE",
"216 188 OFFCURVE",
"170 188 CURVE SMOOTH",
"141 188 OFFCURVE",
"110 186 OFFCURVE",
"78 182 CURVE",
"76 181 LINE",
"77 178 OFFCURVE",
"80 173 OFFCURVE",
"85 167 CURVE SMOOTH",
"90 161 OFFCURVE",
"94 158 OFFCURVE",
"94 159 CURVE SMOOTH"
);
}
);
width = 283;
}
);
note = hyphen;
unicode = 002D;
},
{
glyphname = period;
lastChange = "2021-05-25 21:23:40 +0000";
layers = (
{
layerId = "89156F97-8AE0-4F29-8E8C-D321EE696556";
paths = (
{
closed = 1;
nodes = (
"72 -14 OFFCURVE",
"83 -4 OFFCURVE",
"88 17 CURVE SMOOTH",
"92 31 OFFCURVE",
"97 42 OFFCURVE",
"102 49 CURVE",
"102 50 OFFCURVE",
"105 53 OFFCURVE",
"109 58 CURVE SMOOTH",
"113 63 OFFCURVE",
"116 66 OFFCURVE",
"116 67 CURVE",
"115 67 LINE",
"115 67 LINE",
"114 68 OFFCURVE",
"114 68 OFFCURVE",
"113 68 CURVE SMOOTH",
"108 68 OFFCURVE",
"98 65 OFFCURVE",
"84 57 CURVE SMOOTH",
"69 49 OFFCURVE",
"61 44 OFFCURVE",
"57 39 CURVE",
"46 34 OFFCURVE",
"40 27 OFFCURVE",
"40 15 CURVE SMOOTH",
"40 10 OFFCURVE",
"42 4 OFFCURVE",
"47 -4 CURVE SMOOTH",
"50 -10 OFFCURVE",
"55 -14 OFFCURVE",
"60 -14 CURVE SMOOTH"
);
}
);
width = 144;
}
);
note = period;
unicode = 002E;
},
{
glyphname = slash;
lastChange = "2021-05-25 21:23:40 +0000";
layers = (
{
layerId = "89156F97-8AE0-4F29-8E8C-D321EE696556";
paths = (
{
closed = 1;
nodes = (
"11 -117 OFFCURVE",
"11 -117 OFFCURVE",
"12 -116 CURVE",
"20 -85 OFFCURVE",
"29 -59 OFFCURVE",
"39 -37 CURVE SMOOTH",
"89 72 OFFCURVE",
"192 204 OFFCURVE",
"347 361 CURVE SMOOTH",
"460 476 OFFCURVE",
"588 590 OFFCURVE",
"730 704 CURVE SMOOTH",
"733 707 OFFCURVE",
"735 709 OFFCURVE",
"735 710 CURVE SMOOTH",
"735 713 OFFCURVE",
"731 715 OFFCURVE",
"722 715 CURVE SMOOTH",
"705 715 OFFCURVE",
"688 709 OFFCURVE",
"669 696 CURVE",
"614 651 OFFCURVE",
"573 615 OFFCURVE",
"543 587 CURVE SMOOTH",
"438 489 OFFCURVE",
"338 388 OFFCURVE",
"245 283 CURVE SMOOTH",
"118 140 OFFCURVE",
"38 28 OFFCURVE",
"4 -55 CURVE SMOOTH",
"-5 -77 OFFCURVE",
"-9 -91 OFFCURVE",
"-9 -97 CURVE SMOOTH",
"-9 -100 OFFCURVE",
"-6 -105 OFFCURVE",
"-1 -110 CURVE SMOOTH",
"4 -115 OFFCURVE",
"7 -117 OFFCURVE",
"10 -117 CURVE SMOOTH"
);
}
);
width = 446;
}
);
note = slash;
unicode = 002F;
},
{
glyphname = zero;
lastChange = "2021-05-25 21:23:40 +0000";
layers = (
{
layerId = "89156F97-8AE0-4F29-8E8C-D321EE696556";
paths = (
{
closed = 1;
nodes = (
"255 -54 OFFCURVE",
"295 -46 OFFCURVE",
"336 -30 CURVE SMOOTH",
"413 -1 OFFCURVE",
"475 46 OFFCURVE",
"522 110 CURVE SMOOTH",
"571 177 OFFCURVE",
"596 250 OFFCURVE",
"596 330 CURVE SMOOTH",
"596 347 OFFCURVE",
"595 363 OFFCURVE",
"593 378 CURVE SMOOTH",
"586 427 OFFCURVE",
"562 467 OFFCURVE",
"520 497 CURVE SMOOTH",
"481 525 OFFCURVE",
"436 540 OFFCURVE",
"385 540 CURVE SMOOTH",
"262 540 OFFCURVE",
"165 501 OFFCURVE",
"92 424 CURVE SMOOTH",
"53 383 OFFCURVE",
"34 339 OFFCURVE",
"34 290 CURVE SMOOTH",
"34 259 OFFCURVE",
"40 230 OFFCURVE",
"51 205 CURVE",
"43 177 OFFCURVE",
"39 149 OFFCURVE",
"39 120 CURVE SMOOTH",
"39 65 OFFCURVE",
"55 23 OFFCURVE",
"87 -8 CURVE SMOOTH",
"118 -39 OFFCURVE",
"161 -54 OFFCURVE",
"216 -54 CURVE SMOOTH"
);
},
{
closed = 1;
nodes = (
"153 -12 OFFCURVE",
"118 -1 OFFCURVE",
"93 21 CURVE SMOOTH",
"68 43 OFFCURVE",
"55 75 OFFCURVE",
"55 118 CURVE SMOOTH",
"55 127 OFFCURVE",
"60 146 OFFCURVE",
"70 174 CURVE",
"88 149 OFFCURVE",
"113 128 OFFCURVE",
"146 113 CURVE SMOOTH",
"179 98 OFFCURVE",
"211 90 OFFCURVE",
"243 90 CURVE SMOOTH",
"276 90 OFFCURVE",
"292 93 OFFCURVE",
"292 100 CURVE SMOOTH",
"292 103 OFFCURVE",
"288 104 OFFCURVE",
"281 104 CURVE SMOOTH",
"280 104 OFFCURVE",
"278 104 OFFCURVE",
"275 104 CURVE SMOOTH",
"272 104 OFFCURVE",
"271 104 OFFCURVE",
"270 104 CURVE SMOOTH",
"237 104 OFFCURVE",
"201 113 OFFCURVE",
"163 131 CURVE SMOOTH",
"122 151 OFFCURVE",
"94 174 OFFCURVE",
"80 201 CURVE",
"107 262 OFFCURVE",
"155 323 OFFCURVE",
"225 383 CURVE SMOOTH",
"301 448 OFFCURVE",
"369 480 OFFCURVE",
"429 480 CURVE SMOOTH",
"443 480 OFFCURVE",
"450 482 OFFCURVE",
"450 486 CURVE SMOOTH",
"450 490 OFFCURVE",
"443 492 OFFCURVE",
"430 492 CURVE SMOOTH",
"361 492 OFFCURVE",
"290 468 OFFCURVE",
"219 418 CURVE SMOOTH",
"152 372 OFFCURVE",
"102 315 OFFCURVE",
"67 250 CURVE",
"66 253 OFFCURVE",
"65 259 OFFCURVE",
"65 266 CURVE SMOOTH",
"65 295 OFFCURVE",
"71 323 OFFCURVE",
"84 350 CURVE SMOOTH",
"110 404 OFFCURVE",
"152 446 OFFCURVE",
"210 477 CURVE SMOOTH",
"263 505 OFFCURVE",
"322 519 OFFCURVE",
"385 519 CURVE SMOOTH",
"431 519 OFFCURVE",
"473 506 OFFCURVE",
"511 481 CURVE SMOOTH",
"552 454 OFFCURVE",
"576 419 OFFCURVE",
"582 376 CURVE SMOOTH",
"583 365 OFFCURVE",
"584 354 OFFCURVE",
"584 342 CURVE SMOOTH",
"584 275 OFFCURVE",
"558 212 OFFCURVE",
"507 151 CURVE SMOOTH",
"463 98 OFFCURVE",
"407 56 OFFCURVE",
"340 24 CURVE SMOOTH",
"289 0 OFFCURVE",
"241 -12 OFFCURVE",
"196 -12 CURVE SMOOTH"
);
}
);
width = 600;
}
);
note = zero;
unicode = 0030;
},
{
glyphname = one;
lastChange = "2021-05-25 21:23:40 +0000";
layers = (
{
layerId = "89156F97-8AE0-4F29-8E8C-D321EE696556";
paths = (
{
closed = 1;
nodes = (
"187 -31 OFFCURVE",
"189 -27 OFFCURVE",
"189 -18 CURVE SMOOTH",
"189 -15 OFFCURVE",
"189 -12 OFFCURVE",
"188 -7 CURVE",
"227 -2 OFFCURVE",
"258 1 OFFCURVE",
"283 1 CURVE SMOOTH",
"286 1 OFFCURVE",
"291 1 OFFCURVE",
"298 1 CURVE SMOOTH",
"305 0 OFFCURVE",
"310 0 OFFCURVE",
"313 0 CURVE SMOOTH",
"318 0 OFFCURVE",
"321 3 OFFCURVE",
"321 8 CURVE SMOOTH",
"321 12 OFFCURVE",
"319 14 OFFCURVE",
"314 15 CURVE SMOOTH",
"297 18 OFFCURVE",
"266 19 OFFCURVE",
"219 19 CURVE SMOOTH",
"188 19 LINE",
"189 21 LINE",
"200 83 OFFCURVE",
"225 151 OFFCURVE",
"264 225 CURVE SMOOTH",
"299 292 OFFCURVE",
"337 353 OFFCURVE",
"383 408 CURVE SMOOTH",
"411 441 OFFCURVE",
"433 465 OFFCURVE",
"448 480 CURVE SMOOTH",
"454 487 OFFCURVE",
"457 495 OFFCURVE",
"457 504 CURVE SMOOTH",
"457 519 OFFCURVE",
"450 527 OFFCURVE",
"437 527 CURVE SMOOTH",
"428 527 OFFCURVE",
"415 521 OFFCURVE",
"400 508 CURVE SMOOTH",
"388 498 OFFCURVE",
"378 488 OFFCURVE",
"367 478 CURVE SMOOTH",
"333 447 OFFCURVE",
"294 413 OFFCURVE",
"253 376 CURVE SMOOTH",
"232 357 OFFCURVE",
"216 344 OFFCURVE",
"206 334 CURVE SMOOTH",
"201 330 OFFCURVE",
"199 325 OFFCURVE",
"199 321 CURVE SMOOTH",
"199 318 OFFCURVE",
"202 316 OFFCURVE",
"207 316 CURVE SMOOTH",
"212 316 OFFCURVE",
"238 335 OFFCURVE",
"283 374 CURVE SMOOTH",
"312 399 OFFCURVE",
"337 416 OFFCURVE",
"358 425 CURVE",
"357 422 OFFCURVE",
"355 419 OFFCURVE",
"352 414 CURVE SMOOTH",
"297 326 LINE SMOOTH",
"237 230 OFFCURVE",
"207 180 OFFCURVE",
"205 177 CURVE SMOOTH",
"170 114 OFFCURVE",
"150 61 OFFCURVE",
"146 18 CURVE",
"79 15 OFFCURVE",
"36 14 OFFCURVE",
"17 14 CURVE SMOOTH",
"13 14 OFFCURVE",
"11 9 OFFCURVE",
"11 -1 CURVE SMOOTH",
"11 -19 OFFCURVE",
"14 -28 OFFCURVE",
"21 -28 CURVE SMOOTH",
"46 -28 OFFCURVE",
"89 -23 OFFCURVE",
"148 -14 CURVE",
"153 -25 OFFCURVE",
"165 -31 OFFCURVE",
"182 -31 CURVE SMOOTH"
);
}
);
width = 354;
}
);
note = one;
unicode = 0031;
},
{
glyphname = two;
lastChange = "2021-05-25 21:23:40 +0000";
layers = (
{
layerId = "89156F97-8AE0-4F29-8E8C-D321EE696556";
paths = (
{
closed = 1;
nodes = (
"525 -63 OFFCURVE",
"557 -56 OFFCURVE",
"583 -44 CURVE SMOOTH",
"618 -28 OFFCURVE",
"635 -4 OFFCURVE",
"635 29 CURVE SMOOTH",
"635 55 OFFCURVE",
"622 79 OFFCURVE",
"596 102 CURVE SMOOTH",
"571 125 OFFCURVE",
"545 136 OFFCURVE",
"519 136 CURVE SMOOTH",
"514 136 OFFCURVE",
"512 135 OFFCURVE",
"512 132 CURVE SMOOTH",
"512 131 OFFCURVE",
"514 130 OFFCURVE",
"517 129 CURVE SMOOTH",
"541 123 OFFCURVE",
"563 111 OFFCURVE",
"584 95 CURVE SMOOTH",
"609 76 OFFCURVE",
"622 55 OFFCURVE",
"622 34 CURVE SMOOTH",
"622 15 OFFCURVE",
"609 1 OFFCURVE",
"584 -8 CURVE SMOOTH",
"565 -15 OFFCURVE",
"545 -18 OFFCURVE",
"522 -18 CURVE SMOOTH",
"494 -18 OFFCURVE",
"450 -11 OFFCURVE",
"391 3 CURVE SMOOTH",
"308 23 OFFCURVE",
"245 39 OFFCURVE",
"204 50 CURVE",
"297 93 OFFCURVE",
"379 140 OFFCURVE",
"451 192 CURVE SMOOTH",
"557 270 OFFCURVE",
"610 341 OFFCURVE",
"610 404 CURVE SMOOTH",
"610 437 OFFCURVE",
"596 462 OFFCURVE",
"569 479 CURVE SMOOTH",
"545 494 OFFCURVE",
"516 501 OFFCURVE",
"481 501 CURVE SMOOTH",
"432 501 OFFCURVE",
"382 488 OFFCURVE",
"330 462 CURVE SMOOTH",
"269 431 OFFCURVE",
"239 393 OFFCURVE",
"239 349 CURVE SMOOTH",
"239 342 OFFCURVE",
"241 332 OFFCURVE",
"244 321 CURVE SMOOTH",
"248 307 OFFCURVE",
"253 300 OFFCURVE",
"258 300 CURVE SMOOTH",
"259 300 OFFCURVE",
"260 302 OFFCURVE",
"260 305 CURVE SMOOTH",
"260 308 OFFCURVE",
"259 313 OFFCURVE",
"258 320 CURVE SMOOTH",
"257 326 OFFCURVE",
"256 331 OFFCURVE",
"256 334 CURVE SMOOTH",
"256 379 OFFCURVE",
"283 416 OFFCURVE",
"337 447 CURVE SMOOTH",
"383 473 OFFCURVE",
"430 486 OFFCURVE",
"478 486 CURVE SMOOTH",
"500 486 OFFCURVE",
"518 481 OFFCURVE",
"533 471 CURVE SMOOTH",
"550 459 OFFCURVE",
"559 443 OFFCURVE",
"559 422 CURVE SMOOTH",
"559 362 OFFCURVE",
"515 294 OFFCURVE",
"424 223 CURVE SMOOTH",
"392 198 OFFCURVE",
"365 181 OFFCURVE",
"347 169 CURVE SMOOTH",
"280 125 OFFCURVE",
"222 90 OFFCURVE",
"172 65 CURVE",
"133 78 OFFCURVE",
"101 84 OFFCURVE",
"77 84 CURVE SMOOTH",
"36 84 OFFCURVE",
"16 70 OFFCURVE",
"16 41 CURVE SMOOTH",
"16 18 OFFCURVE",
"31 6 OFFCURVE",
"61 6 CURVE SMOOTH",
"88 6 OFFCURVE",
"126 16 OFFCURVE",
"175 37 CURVE",
"226 16 OFFCURVE",
"276 -6 OFFCURVE",
"326 -27 CURVE SMOOTH",
"385 -51 OFFCURVE",
"439 -63 OFFCURVE",
"488 -63 CURVE SMOOTH"
);
},
{
closed = 1;
nodes = (
"44 18 OFFCURVE",
"36 24 OFFCURVE",
"36 35 CURVE SMOOTH",
"36 50 OFFCURVE",
"50 58 OFFCURVE",
"77 58 CURVE SMOOTH",
"85 58 OFFCURVE",
"104 55 OFFCURVE",
"135 48 CURVE",
"123 41 OFFCURVE",
"111 35 OFFCURVE",
"99 29 CURVE SMOOTH",
"85 22 OFFCURVE",
"72 18 OFFCURVE",
"61 18 CURVE SMOOTH"
);
}
);
width = 647;
}
);
note = two;
unicode = 0032;
},
{
glyphname = three;
lastChange = "2021-05-25 21:23:40 +0000";
layers = (
{
layerId = "89156F97-8AE0-4F29-8E8C-D321EE696556";
paths = (
{
closed = 1;
nodes = (
"326 -57 OFFCURVE",
"407 -41 OFFCURVE",
"483 -9 CURVE SMOOTH",
"581 32 OFFCURVE",
"630 89 OFFCURVE",
"630 162 CURVE SMOOTH",
"630 231 OFFCURVE",
"574 275 OFFCURVE",
"461 296 CURVE",
"583 319 OFFCURVE",
"644 361 OFFCURVE",
"644 424 CURVE SMOOTH",
"644 456 OFFCURVE",
"620 480 OFFCURVE",
"573 497 CURVE SMOOTH",
"538 509 OFFCURVE",
"501 516 OFFCURVE",
"461 516 CURVE SMOOTH",
"423 516 OFFCURVE",
"384 510 OFFCURVE",
"343 497 CURVE SMOOTH",
"290 480 OFFCURVE",
"263 457 OFFCURVE",
"263 428 CURVE SMOOTH",
"263 409 OFFCURVE",
"269 399 OFFCURVE",
"281 399 CURVE SMOOTH",
"290 399 OFFCURVE",
"294 405 OFFCURVE",
"294 416 CURVE SMOOTH",
"294 443 OFFCURVE",
"316 464 OFFCURVE",
"359 478 CURVE SMOOTH",
"390 488 OFFCURVE",
"423 493 OFFCURVE",
"457 493 CURVE SMOOTH",
"490 493 OFFCURVE",
"521 490 OFFCURVE",
"551 483 CURVE SMOOTH",
"595 473 OFFCURVE",
"617 458 OFFCURVE",
"617 438 CURVE SMOOTH",
"617 410 OFFCURVE",
"590 383 OFFCURVE",
"535 358 CURVE SMOOTH",
"496 340 OFFCURVE",
"456 326 OFFCURVE",
"416 319 CURVE SMOOTH",
"385 314 OFFCURVE",
"362 311 OFFCURVE",
"347 309 CURVE",
"334 305 OFFCURVE",
"328 298 OFFCURVE",
"328 288 CURVE SMOOTH",
"328 279 OFFCURVE",
"333 274 OFFCURVE",
"342 274 CURVE SMOOTH",
"397 274 OFFCURVE",
"445 267 OFFCURVE",
"485 254 CURVE SMOOTH",
"545 235 OFFCURVE",
"575 204 OFFCURVE",
"575 161 CURVE SMOOTH",
"575 96 OFFCURVE",
"530 43 OFFCURVE",
"439 3 CURVE SMOOTH",
"366 -29 OFFCURVE",
"292 -44 OFFCURVE",
"217 -44 CURVE SMOOTH",
"172 -44 OFFCURVE",
"134 -35 OFFCURVE",
"101 -18 CURVE SMOOTH",
"60 3 OFFCURVE",
"40 35 OFFCURVE",
"40 76 CURVE SMOOTH",
"40 99 OFFCURVE",
"53 117 OFFCURVE",
"80 128 CURVE SMOOTH",
"100 137 OFFCURVE",
"123 141 OFFCURVE",
"150 141 CURVE SMOOTH",
"161 141 OFFCURVE",
"166 143 OFFCURVE",
"166 147 CURVE SMOOTH",
"166 156 OFFCURVE",
"152 160 OFFCURVE",
"123 160 CURVE SMOOTH",
"93 160 OFFCURVE",
"66 153 OFFCURVE",
"43 138 CURVE SMOOTH",
"16 121 OFFCURVE",
"2 98 OFFCURVE",
"2 70 CURVE SMOOTH",
"2 23 OFFCURVE",
"32 -11 OFFCURVE",
"92 -33 CURVE SMOOTH",
"134 -49 OFFCURVE",
"184 -57 OFFCURVE",
"241 -57 CURVE SMOOTH"
);
}
);
width = 652;
}
);
note = three;
unicode = 0033;
},
{
glyphname = four;
lastChange = "2021-05-25 21:23:40 +0000";
layers = (
{
layerId = "89156F97-8AE0-4F29-8E8C-D321EE696556";
paths = (
{
closed = 1;
nodes = (
"214 -54 OFFCURVE",
"258 -49 OFFCURVE",
"316 -39 CURVE SMOOTH",
"373 -29 OFFCURVE",
"417 -24 OFFCURVE",
"447 -24 CURVE SMOOTH",
"450 -24 OFFCURVE",
"454 -24 OFFCURVE",
"461 -25 CURVE SMOOTH",
"468 -26 OFFCURVE",
"473 -26 OFFCURVE",
"476 -26 CURVE SMOOTH",
"481 -26 OFFCURVE",
"484 -23 OFFCURVE",
"484 -18 CURVE SMOOTH",
"484 -14 OFFCURVE",
"482 -12 OFFCURVE",
"477 -11 CURVE SMOOTH",
"462 -8 OFFCURVE",
"431 -7 OFFCURVE",
"382 -7 CURVE SMOOTH",
"365 -7 OFFCURVE",
"344 -7 OFFCURVE",
"321 -8 CURVE",
"327 27 OFFCURVE",
"343 72 OFFCURVE",
"369 127 CURVE",
"422 117 OFFCURVE",
"466 112 OFFCURVE",
"499 112 CURVE SMOOTH",
"537 112 OFFCURVE",
"571 119 OFFCURVE",
"602 134 CURVE SMOOTH",
"641 153 OFFCURVE",
"661 179 OFFCURVE",
"661 214 CURVE SMOOTH",
"661 242 OFFCURVE",
"647 267 OFFCURVE",
"619 287 CURVE SMOOTH",
"594 305 OFFCURVE",
"566 314 OFFCURVE",
"536 314 CURVE SMOOTH",
"529 314 OFFCURVE",
"526 313 OFFCURVE",
"526 310 CURVE SMOOTH",
"526 309 OFFCURVE",
"528 308 OFFCURVE",
"531 307 CURVE",
"545 305 OFFCURVE",
"556 303 OFFCURVE",
"565 300 CURVE SMOOTH",
"584 294 OFFCURVE",
"602 284 OFFCURVE",
"618 271 CURVE SMOOTH",
"638 255 OFFCURVE",
"648 239 OFFCURVE",
"648 222 CURVE SMOOTH",
"648 195 OFFCURVE",
"622 176 OFFCURVE",
"570 164 CURVE SMOOTH",
"557 161 OFFCURVE",
"540 160 OFFCURVE",
"518 160 CURVE SMOOTH",
"485 160 OFFCURVE",
"442 163 OFFCURVE",
"390 169 CURVE",
"423 231 OFFCURVE",
"448 277 OFFCURVE",
"464 307 CURVE SMOOTH",
"477 331 OFFCURVE",
"487 352 OFFCURVE",
"496 368 CURVE",
"504 375 OFFCURVE",
"510 380 OFFCURVE",
"514 383 CURVE",
"516 386 OFFCURVE",
"530 415 OFFCURVE",
"555 471 CURVE SMOOTH",
"579 526 OFFCURVE",
"592 555 OFFCURVE",
"592 556 CURVE SMOOTH",
"592 563 OFFCURVE",
"586 566 OFFCURVE",
"573 566 CURVE SMOOTH",
"556 566 OFFCURVE",
"542 560 OFFCURVE",
"532 548 CURVE SMOOTH",
"505 518 OFFCURVE",
"484 496 OFFCURVE",
"470 481 CURVE SMOOTH",
"406 411 OFFCURVE",
"357 360 OFFCURVE",
"320 328 CURVE SMOOTH",
"257 273 OFFCURVE",
"197 235 OFFCURVE",
"140 214 CURVE",
"105 222 OFFCURVE",
"76 226 OFFCURVE",
"54 226 CURVE SMOOTH",
"17 226 OFFCURVE",
"-2 218 OFFCURVE",
"-2 201 CURVE SMOOTH",
"-2 182 OFFCURVE",
"12 173 OFFCURVE",
"39 173 CURVE SMOOTH",
"56 173 OFFCURVE",
"84 178 OFFCURVE",
"123 189 CURVE",
"208 164 OFFCURVE",
"279 146 OFFCURVE",
"334 135 CURVE",
"311 76 OFFCURVE",
"298 28 OFFCURVE",
"293 -9 CURVE",
"240 -10 OFFCURVE",
"203 -11 OFFCURVE",
"181 -11 CURVE SMOOTH",
"177 -11 OFFCURVE",
"175 -16 OFFCURVE",
"175 -26 CURVE SMOOTH",
"175 -45 OFFCURVE",
"178 -54 OFFCURVE",
"185 -54 CURVE SMOOTH"
);
},
{
closed = 1;
nodes = (
"26 191 OFFCURVE",
"12 194 OFFCURVE",
"12 200 CURVE SMOOTH",
"12 209 OFFCURVE",
"23 214 OFFCURVE",
"44 214 CURVE SMOOTH",
"61 214 OFFCURVE",
"80 209 OFFCURVE",
"101 200 CURVE",
"80 194 OFFCURVE",
"64 191 OFFCURVE",
"53 191 CURVE SMOOTH"
);
},
{
closed = 1;
nodes = (
"277 185 OFFCURVE",
"215 196 OFFCURVE",
"165 207 CURVE",
"252 242 OFFCURVE",
"350 308 OFFCURVE",
"457 405 CURVE",
"413 318 OFFCURVE",
"377 241 OFFCURVE",
"350 175 CURVE"
);
}
);
width = 607;
}
);
note = four;
unicode = 0034;
},
{
glyphname = five;
lastChange = "2021-05-25 21:23:40 +0000";
layers = (
{
layerId = "89156F97-8AE0-4F29-8E8C-D321EE696556";
paths = (
{
closed = 1;
nodes = (
"228 -86 OFFCURVE",
"322 -72 OFFCURVE",
"410 -42 CURVE SMOOTH",
"513 -7 OFFCURVE",
"591 45 OFFCURVE",
"645 111 CURVE SMOOTH",
"674 147 OFFCURVE",
"689 181 OFFCURVE",
"689 213 CURVE SMOOTH",
"689 250 OFFCURVE",
"671 277 OFFCURVE",
"635 295 CURVE SMOOTH",
"607 309 OFFCURVE",
"573 316 OFFCURVE",
"532 316 CURVE SMOOTH",
"504 316 OFFCURVE",
"470 309 OFFCURVE",
"430 297 CURVE SMOOTH",
"397 287 OFFCURVE",
"363 277 OFFCURVE",
"330 266 CURVE",
"339 281 OFFCURVE",
"356 312 OFFCURVE",
"383 360 CURVE SMOOTH",
"412 413 OFFCURVE",
"427 441 OFFCURVE",
"427 445 CURVE SMOOTH",
"427 454 OFFCURVE",
"420 458 OFFCURVE",
"405 458 CURVE SMOOTH",
"392 458 OFFCURVE",
"381 452 OFFCURVE",
"372 440 CURVE",
"362 421 OFFCURVE",
"355 404 OFFCURVE",
"349 392 CURVE SMOOTH",
"324 338 OFFCURVE",
"303 302 OFFCURVE",
"290 283 CURVE SMOOTH",
"277 265 OFFCURVE",
"271 254 OFFCURVE",
"271 250 CURVE SMOOTH",
"271 243 OFFCURVE",
"275 240 OFFCURVE",
"284 240 CURVE SMOOTH",
"287 240 OFFCURVE",
"297 242 OFFCURVE",
"314 248 CURVE SMOOTH",
"402 278 OFFCURVE",
"475 293 OFFCURVE",
"532 293 CURVE SMOOTH",
"601 293 OFFCURVE",
"635 271 OFFCURVE",
"635 226 CURVE SMOOTH",
"635 193 OFFCURVE",
"618 158 OFFCURVE",
"583 119 CURVE SMOOTH",
"530 60 OFFCURVE",
"461 14 OFFCURVE",
"375 -19 CURVE SMOOTH",
"296 -49 OFFCURVE",
"214 -64 OFFCURVE",
"129 -64 CURVE SMOOTH",
"106 -64 OFFCURVE",
"84 -61 OFFCURVE",
"65 -56 CURVE SMOOTH",
"36 -48 OFFCURVE",
"21 -37 OFFCURVE",
"21 -20 CURVE SMOOTH",
"21 7 OFFCURVE",
"64 36 OFFCURVE",
"150 65 CURVE SMOOTH",
"225 91 OFFCURVE",
"282 104 OFFCURVE",
"321 104 CURVE SMOOTH",
"334 104 OFFCURVE",
"341 106 OFFCURVE",
"341 109 CURVE SMOOTH",
"341 114 OFFCURVE",
"334 116 OFFCURVE",
"321 116 CURVE SMOOTH",
"263 116 OFFCURVE",
"198 106 OFFCURVE",
"125 86 CURVE SMOOTH",
"31 60 OFFCURVE",
"-16 27 OFFCURVE",
"-16 -13 CURVE SMOOTH",
"-16 -39 OFFCURVE",
"3 -59 OFFCURVE",
"41 -72 CURVE SMOOTH",
"68 -81 OFFCURVE",
"97 -86 OFFCURVE",
"129 -86 CURVE SMOOTH"
);
},
{
closed = 1;
nodes = (
"659 425 OFFCURVE",
"694 432 OFFCURVE",
"724 445 CURVE SMOOTH",
"764 462 OFFCURVE",
"784 489 OFFCURVE",
"784 524 CURVE SMOOTH",
"784 552 OFFCURVE",
"771 576 OFFCURVE",
"744 596 CURVE SMOOTH",
"717 616 OFFCURVE",
"690 626 OFFCURVE",
"661 626 CURVE SMOOTH",
"655 626 OFFCURVE",
"652 625 OFFCURVE",
"652 622 CURVE SMOOTH",
"652 621 OFFCURVE",
"654 620 OFFCURVE",
"658 619 CURVE SMOOTH",
"671 616 OFFCURVE",
"683 614 OFFCURVE",
"692 610 CURVE SMOOTH",
"711 603 OFFCURVE",
"728 593 OFFCURVE",
"743 580 CURVE SMOOTH",
"762 564 OFFCURVE",
"771 547 OFFCURVE",
"771 531 CURVE SMOOTH",
"771 512 OFFCURVE",
"757 496 OFFCURVE",
"728 485 CURVE SMOOTH",
"706 477 OFFCURVE",
"683 473 OFFCURVE",
"660 473 CURVE SMOOTH",
"633 473 OFFCURVE",
"591 477 OFFCURVE",
"535 486 CURVE SMOOTH",
"495 493 OFFCURVE",
"455 501 OFFCURVE",
"415 508 CURVE SMOOTH",
"362 518 OFFCURVE",
"322 523 OFFCURVE",
"297 523 CURVE SMOOTH",
"261 523 OFFCURVE",
"243 512 OFFCURVE",
"243 489 CURVE SMOOTH",
"243 481 OFFCURVE",
"247 473 OFFCURVE",
"255 465 CURVE SMOOTH",
"263 457 OFFCURVE",
"271 453 OFFCURVE",
"278 453 CURVE SMOOTH",
"282 453 OFFCURVE",
"284 455 OFFCURVE",
"284 460 CURVE SMOOTH",
"284 462 OFFCURVE",
"280 466 OFFCURVE",
"273 471 CURVE SMOOTH",
"266 476 OFFCURVE",
"262 482 OFFCURVE",
"262 487 CURVE SMOOTH",
"262 496 OFFCURVE",
"272 501 OFFCURVE",
"291 501 CURVE SMOOTH",
"307 501 OFFCURVE",
"342 492 OFFCURVE",
"397 474 CURVE SMOOTH",
"496 441 OFFCURVE",
"570 425 OFFCURVE",
"620 425 CURVE SMOOTH"
);
}
);
width = 720;
}
);
note = five;
unicode = 0035;
},
{
glyphname = six;
lastChange = "2021-05-25 21:23:40 +0000";
layers = (
{
layerId = "89156F97-8AE0-4F29-8E8C-D321EE696556";
paths = (
{
closed = 1;
nodes = (
"64 -104 OFFCURVE",
"70 -97 OFFCURVE",
"73 -82 CURVE SMOOTH",
"74 -71 OFFCURVE",
"76 -61 OFFCURVE",
"77 -50 CURVE",
"99 -58 OFFCURVE",
"124 -62 OFFCURVE",
"153 -62 CURVE SMOOTH",
"190 -62 OFFCURVE",
"230 -56 OFFCURVE",
"273 -44 CURVE SMOOTH",
"328 -29 OFFCURVE",
"377 -6 OFFCURVE",
"419 24 CURVE SMOOTH",
"475 63 OFFCURVE",
"503 105 OFFCURVE",
"503 151 CURVE SMOOTH",
"503 203 OFFCURVE",
"471 229 OFFCURVE",
"408 229 CURVE SMOOTH",
"345 229 OFFCURVE",
"280 205 OFFCURVE",
"212 157 CURVE SMOOTH",
"149 112 OFFCURVE",
"101 61 OFFCURVE",
"69 2 CURVE",
"64 13 OFFCURVE",
"62 26 OFFCURVE",
"62 40 CURVE SMOOTH",
"62 115 OFFCURVE",
"105 193 OFFCURVE",
"190 275 CURVE SMOOTH",
"251 333 OFFCURVE",
"326 388 OFFCURVE",
"417 438 CURVE SMOOTH",
"464 464 OFFCURVE",
"500 481 OFFCURVE",
"525 492 CURVE SMOOTH",
"536 497 OFFCURVE",
"542 502 OFFCURVE",
"542 507 CURVE SMOOTH",
"542 512 OFFCURVE",
"539 514 OFFCURVE",
"532 514 CURVE SMOOTH",
"529 514 OFFCURVE",
"525 514 OFFCURVE",
"521 512 CURVE SMOOTH",
"412 468 OFFCURVE",
"307 406 OFFCURVE",
"205 325 CURVE SMOOTH",
"75 222 OFFCURVE",
"10 127 OFFCURVE",
"10 40 CURVE SMOOTH",
"10 5 OFFCURVE",
"24 -21 OFFCURVE",
"53 -38 CURVE",
"49 -51 OFFCURVE",
"47 -64 OFFCURVE",
"47 -76 CURVE SMOOTH",
"47 -95 OFFCURVE",
"50 -104 OFFCURVE",
"57 -104 CURVE SMOOTH"
);
},
{
closed = 1;
nodes = (
"129 -44 OFFCURVE",
"104 -37 OFFCURVE",
"87 -22 CURVE",
"110 34 OFFCURVE",
"151 85 OFFCURVE",
"209 130 CURVE SMOOTH",
"270 177 OFFCURVE",
"329 201 OFFCURVE",
"387 201 CURVE SMOOTH",
"432 201 OFFCURVE",
"454 184 OFFCURVE",
"454 151 CURVE SMOOTH",
"454 114 OFFCURVE",
"430 77 OFFCURVE",
"382 40 CURVE SMOOTH",
"345 11 OFFCURVE",
"304 -11 OFFCURVE",
"259 -26 CURVE SMOOTH",
"223 -38 OFFCURVE",
"190 -44 OFFCURVE",
"160 -44 CURVE SMOOTH"
);
}
);
width = 543;
}
);
note = six;
unicode = 0036;
},
{
glyphname = seven;
lastChange = "2021-05-25 21:23:40 +0000";
layers = (
{
layerId = "89156F97-8AE0-4F29-8E8C-D321EE696556";
paths = (
{
closed = 1;
nodes = (
"102 -58 OFFCURVE",
"109 -56 OFFCURVE",
"119 -53 CURVE SMOOTH",
"128 -50 OFFCURVE",
"133 -47 OFFCURVE",
"133 -44 CURVE SMOOTH",
"133 -37 OFFCURVE",
"129 -33 OFFCURVE",
"120 -33 CURVE SMOOTH",
"118 -33 OFFCURVE",
"116 -34 OFFCURVE",
"114 -34 CURVE",
"112 -36 OFFCURVE",
"111 -36 OFFCURVE",
"110 -36 CURVE SMOOTH",
"106 -36 OFFCURVE",
"104 -29 OFFCURVE",
"104 -16 CURVE SMOOTH",
"104 61 OFFCURVE",
"162 158 OFFCURVE",
"278 277 CURVE SMOOTH",
"369 370 OFFCURVE",
"461 446 OFFCURVE",
"556 507 CURVE",
"542 524 LINE",
"522 504 OFFCURVE",
"494 494 OFFCURVE",
"458 494 CURVE SMOOTH",
"430 494 OFFCURVE",
"386 501 OFFCURVE",
"327 515 CURVE SMOOTH",
"268 528 OFFCURVE",
"222 535 OFFCURVE",
"190 535 CURVE SMOOTH",
"149 535 OFFCURVE",
"112 527 OFFCURVE",
"78 511 CURVE SMOOTH",
"34 490 OFFCURVE",
"12 462 OFFCURVE",
"12 426 CURVE SMOOTH",
"12 395 OFFCURVE",
"27 371 OFFCURVE",
"57 353 CURVE SMOOTH",
"83 337 OFFCURVE",
"111 329 OFFCURVE",
"144 329 CURVE SMOOTH",
"151 329 OFFCURVE",
"154 331 OFFCURVE",
"154 334 CURVE SMOOTH",
"154 335 OFFCURVE",
"152 337 OFFCURVE",
"148 337 CURVE SMOOTH",
"133 339 OFFCURVE",
"120 340 OFFCURVE",
"109 343 CURVE SMOOTH",
"90 349 OFFCURVE",
"72 358 OFFCURVE",
"56 370 CURVE SMOOTH",
"36 385 OFFCURVE",
"26 400 OFFCURVE",
"26 417 CURVE SMOOTH",
"26 442 OFFCURVE",
"51 462 OFFCURVE",
"100 477 CURVE SMOOTH",
"116 482 OFFCURVE",
"143 484 OFFCURVE",
"180 484 CURVE SMOOTH",
"207 484 OFFCURVE",
"247 483 OFFCURVE",
"301 480 CURVE SMOOTH",
"355 477 OFFCURVE",
"395 476 OFFCURVE",
"422 476 CURVE SMOOTH",
"446 476 OFFCURVE",
"467 477 OFFCURVE",
"484 478 CURVE",
"369 397 OFFCURVE",
"281 326 OFFCURVE",
"220 267 CURVE SMOOTH",
"112 162 OFFCURVE",
"58 70 OFFCURVE",
"58 -7 CURVE SMOOTH",
"58 -41 OFFCURVE",
"71 -58 OFFCURVE",
"97 -58 CURVE SMOOTH"
);
}
);
width = 405;
}
);
note = seven;
unicode = 0037;
},
{
glyphname = eight;
lastChange = "2021-05-25 21:23:40 +0000";
layers = (
{
layerId = "89156F97-8AE0-4F29-8E8C-D321EE696556";
paths = (
{
closed = 1;
nodes = (
"221 -19 OFFCURVE",
"261 -4 OFFCURVE",
"295 24 CURVE SMOOTH",
"332 54 OFFCURVE",
"351 91 OFFCURVE",
"351 136 CURVE SMOOTH",
"351 189 OFFCURVE",
"323 245 OFFCURVE",
"268 303 CURVE",
"285 320 OFFCURVE",
"300 332 OFFCURVE",
"311 341 CURVE SMOOTH",
"390 414 OFFCURVE",
"430 477 OFFCURVE",
"430 531 CURVE SMOOTH",
"430 564 OFFCURVE",
"414 594 OFFCURVE",
"382 620 CURVE SMOOTH",
"379 622 OFFCURVE",
"377 623 OFFCURVE",
"375 623 CURVE SMOOTH",
"371 623 OFFCURVE",
"369 620 OFFCURVE",
"369 614 CURVE SMOOTH",
"369 613 OFFCURVE",
"369 612 OFFCURVE",
"369 610 CURVE",
"398 593 OFFCURVE",
"412 567 OFFCURVE",
"412 534 CURVE SMOOTH",
"412 501 OFFCURVE",
"399 466 OFFCURVE",
"374 431 CURVE SMOOTH",
"361 412 OFFCURVE",
"342 392 OFFCURVE",
"318 372 CURVE SMOOTH",
"297 354 OFFCURVE",
"275 337 OFFCURVE",
"254 320 CURVE",
"227 363 OFFCURVE",
"214 404 OFFCURVE",
"214 443 CURVE SMOOTH",
"214 498 OFFCURVE",
"251 526 OFFCURVE",
"325 526 CURVE SMOOTH",
"349 526 OFFCURVE",
"374 522 OFFCURVE",
"401 516 CURVE SMOOTH",
"432 508 OFFCURVE",
"455 498 OFFCURVE",
"470 485 CURVE",
"473 488 OFFCURVE",
"474 490 OFFCURVE",
"474 491 CURVE",
"474 491 OFFCURVE",
"472 493 OFFCURVE",
"468 498 CURVE SMOOTH",
"460 508 OFFCURVE",
"456 513 OFFCURVE",
"455 514 CURVE SMOOTH",
"428 540 OFFCURVE",
"388 553 OFFCURVE",
"336 553 CURVE SMOOTH",
"290 553 OFFCURVE",
"254 542 OFFCURVE",
"227 521 CURVE SMOOTH",
"198 498 OFFCURVE",
"183 464 OFFCURVE",
"183 419 CURVE SMOOTH",
"183 375 OFFCURVE",
"196 334 OFFCURVE",
"222 297 CURVE",
"105 218 OFFCURVE",
"46 150 OFFCURVE",
"46 91 CURVE SMOOTH",
"46 56 OFFCURVE",
"59 28 OFFCURVE",
"85 8 CURVE SMOOTH",
"108 -10 OFFCURVE",
"138 -19 OFFCURVE",
"175 -19 CURVE SMOOTH"
);
},
{
closed = 1;
nodes = (
"149 5 OFFCURVE",
"128 13 OFFCURVE",
"110 27 CURVE SMOOTH",
"91 43 OFFCURVE",
"81 63 OFFCURVE",
"81 89 CURVE SMOOTH",
"81 122 OFFCURVE",
"99 159 OFFCURVE",
"135 198 CURVE SMOOTH",
"164 230 OFFCURVE",
"197 256 OFFCURVE",
"234 277 CURVE",
"278 219 OFFCURVE",
"300 167 OFFCURVE",
"300 121 CURVE SMOOTH",
"300 87 OFFCURVE",
"288 59 OFFCURVE",
"264 37 CURVE SMOOTH",
"240 16 OFFCURVE",
"211 5 OFFCURVE",
"176 5 CURVE SMOOTH"
);
}
);
width = 415;
}
);
note = eight;
unicode = 0038;
},
{
glyphname = nine;
lastChange = "2021-05-25 21:23:40 +0000";
layers = (
{
layerId = "89156F97-8AE0-4F29-8E8C-D321EE696556";
paths = (
{
closed = 1;
nodes = (
"220 -147 OFFCURVE",
"222 -146 OFFCURVE",
"222 -145 CURVE",
"222 -145 OFFCURVE",
"217 -140 OFFCURVE",
"207 -131 CURVE SMOOTH",
"199 -124 OFFCURVE",
"195 -111 OFFCURVE",
"195 -93 CURVE SMOOTH",
"195 -56 OFFCURVE",
"222 5 OFFCURVE",
"276 90 CURVE SMOOTH",
"307 139 OFFCURVE",
"356 209 OFFCURVE",
"425 302 CURVE SMOOTH",
"479 375 OFFCURVE",
"506 415 OFFCURVE",
"506 422 CURVE SMOOTH",
"506 432 OFFCURVE",
"500 437 OFFCURVE",
"488 437 CURVE SMOOTH",
"477 437 OFFCURVE",
"463 428 OFFCURVE",
"447 408 CURVE SMOOTH",
"435 394 OFFCURVE",
"425 378 OFFCURVE",
"413 364 CURVE SMOOTH",
"374 319 OFFCURVE",
"333 279 OFFCURVE",
"290 244 CURVE SMOOTH",
"229 194 OFFCURVE",
"180 169 OFFCURVE",
"145 169 CURVE SMOOTH",
"102 169 OFFCURVE",
"81 193 OFFCURVE",
"81 241 CURVE SMOOTH",
"81 290 OFFCURVE",
"101 339 OFFCURVE",
"140 389 CURVE SMOOTH",
"176 435 OFFCURVE",
"218 467 OFFCURVE",
"266 487 CURVE SMOOTH",
"308 504 OFFCURVE",
"354 513 OFFCURVE",
"404 513 CURVE SMOOTH",
"436 513 OFFCURVE",
"466 509 OFFCURVE",
"494 502 CURVE SMOOTH",
"535 492 OFFCURVE",
"556 477 OFFCURVE",
"556 456 CURVE SMOOTH",
"556 448 OFFCURVE",
"554 441 OFFCURVE",
"549 434 CURVE SMOOTH",
"544 427 OFFCURVE",
"542 423 OFFCURVE",
"542 422 CURVE SMOOTH",
"542 420 OFFCURVE",
"543 419 OFFCURVE",
"545 419 CURVE SMOOTH",
"551 419 OFFCURVE",
"560 427 OFFCURVE",
"571 443 CURVE SMOOTH",
"582 459 OFFCURVE",
"588 470 OFFCURVE",
"588 477 CURVE SMOOTH",
"588 498 OFFCURVE",
"568 512 OFFCURVE",
"529 522 CURVE SMOOTH",
"502 529 OFFCURVE",
"473 533 OFFCURVE",
"442 533 CURVE SMOOTH",
"379 533 OFFCURVE",
"318 522 OFFCURVE",
"260 500 CURVE SMOOTH",
"212 482 OFFCURVE",
"163 449 OFFCURVE",
"113 401 CURVE SMOOTH",
"57 347 OFFCURVE",
"29 297 OFFCURVE",
"29 253 CURVE SMOOTH",
"29 223 OFFCURVE",
"41 199 OFFCURVE",
"66 181 CURVE SMOOTH",
"88 165 OFFCURVE",
"115 156 OFFCURVE",
"146 156 CURVE SMOOTH",
"198 156 OFFCURVE",
"268 197 OFFCURVE",
"357 278 CURVE",
"232 109 OFFCURVE",
"170 -11 OFFCURVE",
"170 -82 CURVE SMOOTH",
"170 -98 OFFCURVE",
"174 -112 OFFCURVE",
"181 -125 CURVE SMOOTH",
"190 -140 OFFCURVE",
"202 -147 OFFCURVE",
"217 -147 CURVE SMOOTH"
);
}
);
width = 536;
}
);
note = nine;
unicode = 0039;
},
{
glyphname = colon;
lastChange = "2021-05-25 21:23:40 +0000";
layers = (
{
layerId = "89156F97-8AE0-4F29-8E8C-D321EE696556";
paths = (
{
closed = 1;
nodes = (
"72 -14 OFFCURVE",
"83 -4 OFFCURVE",
"88 17 CURVE SMOOTH",
"92 31 OFFCURVE",
"97 42 OFFCURVE",
"102 49 CURVE",
"102 50 OFFCURVE",
"105 53 OFFCURVE",
"109 58 CURVE SMOOTH",
"113 63 OFFCURVE",
"116 66 OFFCURVE",
"116 67 CURVE",
"115 67 LINE",
"115 67 LINE",
"114 68 OFFCURVE",
"114 68 OFFCURVE",
"113 68 CURVE SMOOTH",
"108 68 OFFCURVE",
"98 65 OFFCURVE",
"84 57 CURVE SMOOTH",
"69 49 OFFCURVE",
"61 44 OFFCURVE",
"57 39 CURVE",
"46 34 OFFCURVE",
"40 27 OFFCURVE",
"40 15 CURVE SMOOTH",
"40 10 OFFCURVE",
"42 4 OFFCURVE",
"47 -4 CURVE SMOOTH",
"50 -10 OFFCURVE",
"55 -14 OFFCURVE",
"60 -14 CURVE SMOOTH"
);
},
{
closed = 1;
nodes = (
"144 134 OFFCURVE",
"154 144 OFFCURVE",
"161 165 CURVE SMOOTH",
"167 189 OFFCURVE",
"171 204 OFFCURVE",
"171 209 CURVE SMOOTH",
"171 215 OFFCURVE",
"169 218 OFFCURVE",
"166 218 CURVE SMOOTH",
"160 218 OFFCURVE",
"147 207 OFFCURVE",
"129 187 CURVE",
"118 182 OFFCURVE",
"112 175 OFFCURVE",
"112 163 CURVE SMOOTH",
"112 159 OFFCURVE",
"114 152 OFFCURVE",
"119 144 CURVE SMOOTH",
"124 138 OFFCURVE",
"127 134 OFFCURVE",
"132 134 CURVE SMOOTH"
);
}
);
width = 144;
}
);
note = colon;
unicode = 003A;
},
{
glyphname = semicolon;
lastChange = "2021-05-25 21:23:40 +0000";
layers = (
{
layerId = "89156F97-8AE0-4F29-8E8C-D321EE696556";
paths = (
{
closed = 1;
nodes = (
"23 -139 OFFCURVE",
"34 -126 OFFCURVE",
"52 -103 CURVE SMOOTH",
"67 -85 OFFCURVE",
"77 -69 OFFCURVE",
"84 -58 CURVE SMOOTH",
"103 -27 OFFCURVE",
"112 -2 OFFCURVE",
"112 16 CURVE SMOOTH",
"112 22 OFFCURVE",
"111 27 OFFCURVE",
"109 31 CURVE",
"109 30 LINE",
"101 43 OFFCURVE",
"92 48 OFFCURVE",
"86 48 CURVE SMOOTH",
"81 48 OFFCURVE",
"77 45 OFFCURVE",
"72 37 CURVE SMOOTH",
"68 30 OFFCURVE",
"67 24 OFFCURVE",
"67 19 CURVE SMOOTH",
"67 16 OFFCURVE",
"67 11 OFFCURVE",
"69 5 CURVE SMOOTH",
"71 -1 OFFCURVE",
"72 -6 OFFCURVE",
"72 -9 CURVE SMOOTH",
"72 -31 OFFCURVE",
"63 -59 OFFCURVE",
"45 -91 CURVE SMOOTH",
"27 -124 OFFCURVE",
"17 -139 OFFCURVE",
"17 -138 CURVE",
"17 -139 OFFCURVE",
"17 -139 OFFCURVE",
"18 -139 CURVE SMOOTH"
);
},
{
closed = 1;
nodes = (
"144 134 OFFCURVE",
"154 144 OFFCURVE",
"161 165 CURVE SMOOTH",
"167 189 OFFCURVE",
"171 204 OFFCURVE",
"171 209 CURVE SMOOTH",
"171 215 OFFCURVE",
"169 218 OFFCURVE",
"166 218 CURVE SMOOTH",
"160 218 OFFCURVE",
"147 207 OFFCURVE",
"129 187 CURVE",
"118 182 OFFCURVE",
"112 175 OFFCURVE",
"112 163 CURVE SMOOTH",
"112 159 OFFCURVE",
"114 152 OFFCURVE",
"119 144 CURVE SMOOTH",
"124 138 OFFCURVE",
"127 134 OFFCURVE",
"132 134 CURVE SMOOTH"
);
}
);
width = 144;
}
);
note = semicolon;
unicode = 003B;
},
{
glyphname = less;
lastChange = "2021-05-25 21:23:40 +0000";
layers = (
{
layerId = "89156F97-8AE0-4F29-8E8C-D321EE696556";
paths = (
{
closed = 1;
nodes = (
"213 128 OFFCURVE",
"216 133 OFFCURVE",
"216 142 CURVE SMOOTH",
"216 148 OFFCURVE",
"185 191 OFFCURVE",
"124 269 CURVE",
"186 356 OFFCURVE",
"218 405 OFFCURVE",
"218 414 CURVE SMOOTH",
"218 418 OFFCURVE",
"216 420 OFFCURVE",
"211 420 CURVE SMOOTH",
"204 420 OFFCURVE",
"199 416 OFFCURVE",
"193 409 CURVE SMOOTH",
"181 394 OFFCURVE",
"159 366 OFFCURVE",
"130 325 CURVE SMOOTH",
"97 277 OFFCURVE",
"81 250 OFFCURVE",
"81 243 CURVE SMOOTH",
"81 240 OFFCURVE",
"82 238 OFFCURVE",
"84 238 CURVE",
"104 221 OFFCURVE",
"124 205 OFFCURVE",
"144 189 CURVE SMOOTH",
"166 171 OFFCURVE",
"184 152 OFFCURVE",
"199 133 CURVE",
"206 129 LINE"
);
}
);
width = 302;
}
);
note = less;
unicode = 003C;
},
{
glyphname = equal;
lastChange = "2021-05-25 21:23:40 +0000";
layers = (
{
layerId = "89156F97-8AE0-4F29-8E8C-D321EE696556";
paths = (
{
closed = 1;
nodes = (
"95 61 OFFCURVE",
"129 63 OFFCURVE",
"176 67 CURVE SMOOTH",
"221 70 OFFCURVE",
"256 72 OFFCURVE",
"279 72 CURVE SMOOTH",
"283 72 OFFCURVE",
"285 74 OFFCURVE",
"285 77 CURVE SMOOTH",
"285 78 OFFCURVE",
"284 79 OFFCURVE",
"282 80 CURVE SMOOTH",
"266 87 OFFCURVE",
"224 91 OFFCURVE",
"157 91 CURVE SMOOTH",
"100 91 OFFCURVE",
"66 89 OFFCURVE",
"53 85 CURVE",
"52 83 LINE",
"53 80 OFFCURVE",
"56 75 OFFCURVE",
"61 69 CURVE SMOOTH",
"66 64 OFFCURVE",
"68 61 OFFCURVE",
"71 61 CURVE SMOOTH"
);
},
{
closed = 1;
nodes = (
"95 159 OFFCURVE",
"129 161 OFFCURVE",
"176 164 CURVE SMOOTH",
"221 167 OFFCURVE",
"256 169 OFFCURVE",
"279 169 CURVE SMOOTH",
"283 169 OFFCURVE",
"285 171 OFFCURVE",
"285 175 CURVE SMOOTH",
"285 176 OFFCURVE",
"284 177 OFFCURVE",
"282 178 CURVE SMOOTH",
"266 184 OFFCURVE",
"224 188 OFFCURVE",
"157 188 CURVE SMOOTH",
"100 188 OFFCURVE",
"66 186 OFFCURVE",
"53 182 CURVE",
"52 181 LINE",
"53 178 OFFCURVE",
"56 173 OFFCURVE",
"61 167 CURVE SMOOTH",
"66 162 OFFCURVE",
"68 159 OFFCURVE",
"71 159 CURVE SMOOTH"
);
}
);
width = 331;
}
);
note = equal;
unicode = 003D;
},
{
glyphname = greater;
lastChange = "2021-05-25 21:23:40 +0000";
layers = (
{
layerId = "89156F97-8AE0-4F29-8E8C-D321EE696556";
paths = (
{
closed = 1;
nodes = (
"93 123 OFFCURVE",
"99 126 OFFCURVE",
"105 133 CURVE SMOOTH",
"118 148 OFFCURVE",
"139 177 OFFCURVE",
"167 218 CURVE SMOOTH",
"200 265 OFFCURVE",
"218 293 OFFCURVE",
"218 299 CURVE SMOOTH",
"218 302 OFFCURVE",
"217 304 OFFCURVE",
"215 305 CURVE",
"195 321 OFFCURVE",
"174 337 OFFCURVE",
"152 355 CURVE SMOOTH",
"131 372 OFFCURVE",
"114 390 OFFCURVE",
"100 409 CURVE",
"92 413 LINE",
"86 414 OFFCURVE",
"82 409 OFFCURVE",
"82 401 CURVE SMOOTH",
"82 394 OFFCURVE",
"113 352 OFFCURVE",
"175 274 CURVE",
"112 186 OFFCURVE",
"81 138 OFFCURVE",
"81 128 CURVE SMOOTH",
"81 124 OFFCURVE",
"83 123 OFFCURVE",
"86 123 CURVE SMOOTH"
);
}
);
width = 302;
}
);
note = greater;
unicode = 003E;
},
{
glyphname = question;
lastChange = "2021-05-25 21:23:40 +0000";
layers = (
{
layerId = "89156F97-8AE0-4F29-8E8C-D321EE696556";
paths = (
{
closed = 1;
nodes = (
"123 144 OFFCURVE",
"127 148 OFFCURVE",
"127 155 CURVE",
"127 155 OFFCURVE",
"124 159 OFFCURVE",
"118 166 CURVE SMOOTH",
"112 173 OFFCURVE",
"109 181 OFFCURVE",
"109 190 CURVE SMOOTH",
"109 232 OFFCURVE",
"179 291 OFFCURVE",
"320 368 CURVE SMOOTH",
"353 386 OFFCURVE",
"377 399 OFFCURVE",
"394 408 CURVE",
"472 458 OFFCURVE",
"511 516 OFFCURVE",
"511 583 CURVE SMOOTH",
"511 627 OFFCURVE",
"493 662 OFFCURVE",
"459 688 CURVE SMOOTH",
"427 712 OFFCURVE",
"389 725 OFFCURVE",
"344 725 CURVE SMOOTH",
"293 725 OFFCURVE",
"242 711 OFFCURVE",
"191 681 CURVE SMOOTH",
"137 650 OFFCURVE",
"101 612 OFFCURVE",
"83 567 CURVE SMOOTH",
"75 548 OFFCURVE",
"71 533 OFFCURVE",
"71 520 CURVE SMOOTH",
"71 491 OFFCURVE",
"90 476 OFFCURVE",
"128 476 CURVE SMOOTH",
"147 476 OFFCURVE",
"171 480 OFFCURVE",
"199 489 CURVE SMOOTH",
"230 498 OFFCURVE",
"251 509 OFFCURVE",
"263 520 CURVE SMOOTH",
"264 521 OFFCURVE",
"265 523 OFFCURVE",
"265 525 CURVE SMOOTH",
"265 528 OFFCURVE",
"264 530 OFFCURVE",
"263 530 CURVE",
"263 530 OFFCURVE",
"255 526 OFFCURVE",
"240 520 CURVE SMOOTH",
"201 504 OFFCURVE",
"170 496 OFFCURVE",
"147 496 CURVE SMOOTH",
"121 496 OFFCURVE",
"108 507 OFFCURVE",
"108 528 CURVE SMOOTH",
"108 538 OFFCURVE",
"111 551 OFFCURVE",
"118 568 CURVE SMOOTH",
"136 613 OFFCURVE",
"166 648 OFFCURVE",
"208 675 CURVE SMOOTH",
"249 702 OFFCURVE",
"295 715 OFFCURVE",
"344 715 CURVE SMOOTH",
"383 715 OFFCURVE",
"416 706 OFFCURVE",
"444 688 CURVE SMOOTH",
"477 667 OFFCURVE",
"493 638 OFFCURVE",
"493 601 CURVE SMOOTH",
"493 545 OFFCURVE",
"455 492 OFFCURVE",
"378 443 CURVE SMOOTH",
"343 421 OFFCURVE",
"307 399 OFFCURVE",
"272 376 CURVE SMOOTH",
"219 342 OFFCURVE",
"179 311 OFFCURVE",
"150 284 CURVE SMOOTH",
"111 247 OFFCURVE",
"91 215 OFFCURVE",
"91 188 CURVE SMOOTH",
"91 171 OFFCURVE",
"98 157 OFFCURVE",
"113 145 CURVE SMOOTH",
"114 144 OFFCURVE",
"115 144 OFFCURVE",
"115 144 CURVE"
);
},
{
closed = 1;
nodes = (
"76 -15 OFFCURVE",
"87 -4 OFFCURVE",
"93 18 CURVE SMOOTH",
"97 33 OFFCURVE",
"102 44 OFFCURVE",
"107 52 CURVE",
"107 53 OFFCURVE",
"110 56 OFFCURVE",
"115 61 CURVE SMOOTH",
"119 66 OFFCURVE",
"122 69 OFFCURVE",
"122 70 CURVE",
"121 71 LINE",
"121 71 LINE",
"120 72 OFFCURVE",
"120 72 OFFCURVE",
"119 72 CURVE SMOOTH",
"114 72 OFFCURVE",
"103 68 OFFCURVE",
"88 60 CURVE SMOOTH",
"73 52 OFFCURVE",
"64 46 OFFCURVE",
"60 41 CURVE",
"48 36 OFFCURVE",
"42 28 OFFCURVE",
"42 16 CURVE SMOOTH",
"42 11 OFFCURVE",
"44 4 OFFCURVE",
"49 -4 CURVE SMOOTH",
"53 -11 OFFCURVE",
"58 -15 OFFCURVE",
"63 -15 CURVE SMOOTH"
);
}
);
width = 528;
}
);
note = question;
unicode = 003F;
},
{
glyphname = at;
lastChange = "2021-05-25 21:23:40 +0000";
layers = (
{
layerId = "89156F97-8AE0-4F29-8E8C-D321EE696556";
paths = (
{
closed = 1;
nodes = (
"389 28 OFFCURVE",
"462 44 OFFCURVE",
"538 75 CURVE SMOOTH",
"618 108 OFFCURVE",
"679 151 OFFCURVE",
"721 201 CURVE SMOOTH",
"751 237 OFFCURVE",
"766 270 OFFCURVE",
"766 303 CURVE SMOOTH",
"766 347 OFFCURVE",
"750 386 OFFCURVE",
"718 420 CURVE",
"719 430 OFFCURVE",
"720 440 OFFCURVE",
"720 449 CURVE SMOOTH",
"720 512 OFFCURVE",
"699 560 OFFCURVE",
"659 595 CURVE SMOOTH",
"621 628 OFFCURVE",
"570 645 OFFCURVE",
"507 645 CURVE SMOOTH",
"400 645 OFFCURVE",
"299 609 OFFCURVE",
"204 536 CURVE SMOOTH",
"102 458 OFFCURVE",
"52 367 OFFCURVE",
"52 264 CURVE SMOOTH",
"52 224 OFFCURVE",
"60 186 OFFCURVE",
"76 149 CURVE SMOOTH",
"94 108 OFFCURVE",
"128 77 OFFCURVE",
"179 55 CURVE SMOOTH",
"221 37 OFFCURVE",
"268 28 OFFCURVE",
"319 28 CURVE SMOOTH"
);
},
{
closed = 1;
nodes = (
"222 179 OFFCURVE",
"212 189 OFFCURVE",
"212 208 CURVE SMOOTH",
"212 253 OFFCURVE",
"247 319 OFFCURVE",
"317 404 CURVE SMOOTH",
"387 489 OFFCURVE",
"444 532 OFFCURVE",
"488 532 CURVE SMOOTH",
"505 532 OFFCURVE",
"514 522 OFFCURVE",
"514 503 CURVE SMOOTH",
"514 484 OFFCURVE",
"507 466 OFFCURVE",
"494 447 CURVE",
"499 459 OFFCURVE",
"501 468 OFFCURVE",
"501 475 CURVE SMOOTH",
"501 483 OFFCURVE",
"498 487 OFFCURVE",
"492 487 CURVE SMOOTH",
"478 487 OFFCURVE",
"463 475 OFFCURVE",
"446 451 CURVE SMOOTH",
"429 428 OFFCURVE",
"420 408 OFFCURVE",
"418 393 CURVE",
"400 383 OFFCURVE",
"387 375 OFFCURVE",
"378 370 CURVE",
"366 366 OFFCURVE",
"360 362 OFFCURVE",
"360 358 CURVE SMOOTH",
"360 355 OFFCURVE",
"362 353 OFFCURVE",
"366 353 CURVE SMOOTH",
"375 353 OFFCURVE",
"386 355 OFFCURVE",
"399 360 CURVE",
"381 317 OFFCURVE",
"361 280 OFFCURVE",
"338 249 CURVE SMOOTH",
"304 202 OFFCURVE",
"272 179 OFFCURVE",
"241 179 CURVE SMOOTH"
);
},
{
closed = 1;
nodes = (
"250 43 OFFCURVE",
"194 58 OFFCURVE",
"151 88 CURVE SMOOTH",
"101 123 OFFCURVE",
"76 173 OFFCURVE",
"76 239 CURVE SMOOTH",
"76 334 OFFCURVE",
"129 421 OFFCURVE",
"235 501 CURVE SMOOTH",
"334 576 OFFCURVE",
"433 614 OFFCURVE",
"532 614 CURVE SMOOTH",
"622 614 OFFCURVE",
"676 577 OFFCURVE",
"694 504 CURVE SMOOTH",
"696 495 OFFCURVE",
"697 485 OFFCURVE",
"697 476 CURVE SMOOTH",
"697 465 OFFCURVE",
"696 454 OFFCURVE",
"693 442 CURVE",
"671 457 OFFCURVE",
"650 464 OFFCURVE",
"630 464 CURVE SMOOTH",
"619 464 OFFCURVE",
"614 461 OFFCURVE",
"614 456 CURVE SMOOTH",
"614 455 OFFCURVE",
"615 455 OFFCURVE",
"616 454 CURVE",
"645 441 OFFCURVE",
"667 424 OFFCURVE",
"684 403 CURVE",
"676 373 OFFCURVE",
"664 341 OFFCURVE",
"647 307 CURVE SMOOTH",
"629 270 OFFCURVE",
"606 234 OFFCURVE",
"579 200 CURVE SMOOTH",
"541 152 OFFCURVE",
"509 128 OFFCURVE",
"483 128 CURVE SMOOTH",
"456 128 OFFCURVE",
"443 156 OFFCURVE",
"443 211 CURVE SMOOTH",
"443 278 OFFCURVE",
"455 342 OFFCURVE",
"480 403 CURVE",
"529 439 OFFCURVE",
"554 475 OFFCURVE",
"554 512 CURVE SMOOTH",
"554 541 OFFCURVE",
"537 555 OFFCURVE",
"503 555 CURVE SMOOTH",
"476 555 OFFCURVE",
"445 547 OFFCURVE",
"409 530 CURVE SMOOTH",
"353 504 OFFCURVE",
"302 459 OFFCURVE",
"256 395 CURVE SMOOTH",
"208 328 OFFCURVE",
"183 266 OFFCURVE",
"183 207 CURVE SMOOTH",
"183 161 OFFCURVE",
"201 138 OFFCURVE",
"236 138 CURVE SMOOTH",
"293 138 OFFCURVE",
"349 199 OFFCURVE",
"404 320 CURVE",
"395 282 OFFCURVE",
"391 250 OFFCURVE",
"391 224 CURVE SMOOTH",
"391 211 OFFCURVE",
"392 199 OFFCURVE",
"394 189 CURVE SMOOTH",
"398 168 OFFCURVE",
"408 150 OFFCURVE",
"423 133 CURVE SMOOTH",
"438 116 OFFCURVE",
"456 108 OFFCURVE",
"475 108 CURVE SMOOTH",
"518 108 OFFCURVE",
"564 143 OFFCURVE",
"614 214 CURVE SMOOTH",
"654 271 OFFCURVE",
"683 326 OFFCURVE",
"700 379 CURVE",
"712 356 OFFCURVE",
"718 333 OFFCURVE",
"718 309 CURVE SMOOTH",
"718 296 OFFCURVE",
"716 283 OFFCURVE",
"712 271 CURVE SMOOTH",
"688 202 OFFCURVE",
"634 145 OFFCURVE",
"551 102 CURVE SMOOTH",
"476 63 OFFCURVE",
"398 43 OFFCURVE",
"319 43 CURVE SMOOTH"
);
}
);
width = 795;
}
);
note = at;
unicode = 0040;
},
{
glyphname = A;
lastChange = "2021-05-25 21:23:40 +0000";
layers = (
{
anchors = (
{
name = bottom;
position = "{269, -128}";
},
{
name = ogonek;
position = "{599, -117}";
},
{
name = top;
position = "{449, 670}";
}
);
background = {
paths = (
{
closed = 1;
nodes = (
"284 148 QCURVE",
"367 258 OFFCURVE",
"423 359 QCURVE SMOOTH",
"502 505 OFFCURVE",
"502 586 QCURVE SMOOTH",
"502 622 OFFCURVE",
"482 647 QCURVE SMOOTH",
"461 670 OFFCURVE",
"425 670 QCURVE SMOOTH",
"414 670 OFFCURVE",
"414 660 OFFCURVE",
"423 658 QCURVE SMOOTH",
"464 652 OFFCURVE",
"464 606 QCURVE SMOOTH",
"464 532 OFFCURVE",
"305 234 OFFCURVE",
"239 144 QCURVE",
"191 139 LINE",
"268 246 OFFCURVE",
"334 373 QCURVE SMOOTH",
"424 544 OFFCURVE",
"424 624 QCURVE SMOOTH",
"424 625 OFFCURVE",
"423 626 QCURVE",
"416 626 OFFCURVE",
"415 619 QCURVE",
"385 520 OFFCURVE",
"381 511 QCURVE SMOOTH",
"307 318 OFFCURVE",
"168 135 QCURVE",
"87 119 OFFCURVE",
"27 88 QCURVE SMOOTH",
"-64 42 OFFCURVE",
"-64 -15 QCURVE SMOOTH",
"-64 -46 OFFCURVE",
"-34 -75 QCURVE",
"-77 -106 OFFCURVE",
"-127 -123 QCURVE",
"-137 -124 OFFCURVE",
"-137 -131 QCURVE SMOOTH",
"-137 -135 OFFCURVE",
"-130 -135 QCURVE SMOOTH",
"-90 -135 OFFCURVE",
"-22 -86 QCURVE",
"-1 -100 OFFCURVE",
"9 -105 QCURVE",
"-77 -170 OFFCURVE",
"-143 -170 QCURVE SMOOTH",
"-181 -170 OFFCURVE",
"-181 -143 QCURVE SMOOTH",
"-181 -133 OFFCURVE",
"-178 -124 QCURVE",
"-190 -133 OFFCURVE",
"-190 -154 QCURVE SMOOTH",
"-190 -183 OFFCURVE",
"-144 -183 QCURVE SMOOTH",
"-72 -183 OFFCURVE",
"26 -113 QCURVE",
"84 -140 OFFCURVE",
"124 -140 QCURVE SMOOTH",
"134 -140 OFFCURVE",
"134 -130 OFFCURVE",
"125 -129 QCURVE SMOOTH",
"63 -118 OFFCURVE",
"36 -105 QCURVE",
"149 -21 OFFCURVE",
"269 129 QCURVE",
"295 133 OFFCURVE",
"439 143 QCURVE SMOOTH",
"457 144 OFFCURVE",
"457 154 QCURVE SMOOTH",
"457 157 OFFCURVE",
"450 157 QCURVE SMOOTH",
"445 157 LINE",
"419 156 LINE SMOOTH",
"372 156 OFFCURVE"
);
},
{
closed = 1;
nodes = (
"614 -112 QCURVE SMOOTH",
"580 -112 OFFCURVE",
"554 -53 QCURVE SMOOTH",
"511 43 OFFCURVE",
"511 307 QCURVE SMOOTH",
"511 466 LINE SMOOTH",
"510 487 OFFCURVE",
"501 487 QCURVE SMOOTH",
"495 487 OFFCURVE",
"491 426 OFFCURVE",
"461 171 OFFCURVE",
"461 20 OFFCURVE",
"498 -61 OFFCURVE",
"574 -122 OFFCURVE",
"630 -122 OFFCURVE",
"668 -101 OFFCURVE",
"712 -42 OFFCURVE",
"712 -26 QCURVE",
"659 -112 OFFCURVE"
);
},
{
closed = 1;
nodes = (
"20 -97 QCURVE",
"2 -86 OFFCURVE",
"-7 -74 QCURVE",
"81 -4 OFFCURVE",
"168 108 QCURVE",
"199 117 OFFCURVE",
"222 122 QCURVE",
"112 -24 OFFCURVE"
);
},
{
closed = 1;
nodes = (
"-15 -61 QCURVE",
"-20 -48 OFFCURVE",
"-20 -36 QCURVE SMOOTH",
"-20 36 OFFCURVE",
"142 100 QCURVE",
"61 0 OFFCURVE"
);
}
);
};
layerId = "89156F97-8AE0-4F29-8E8C-D321EE696556";
paths = (
{
closed = 1;
nodes = (
"-97 -183 OFFCURVE",
"-40 -160 OFFCURVE",
"26 -113 CURVE",
"65 -131 OFFCURVE",
"98 -140 OFFCURVE",
"124 -140 CURVE SMOOTH",
"131 -140 OFFCURVE",
"134 -138 OFFCURVE",
"134 -135 CURVE SMOOTH",
"134 -132 OFFCURVE",
"131 -130 OFFCURVE",
"125 -129 CURVE SMOOTH",
"84 -122 OFFCURVE",
"54 -114 OFFCURVE",
"36 -105 CURVE",
"111 -49 OFFCURVE",
"188 29 OFFCURVE",
"269 129 CURVE",
"298 133 OFFCURVE",
"336 136 OFFCURVE",
"384 139 CURVE SMOOTH",
"408 141 OFFCURVE",
"427 143 OFFCURVE",
"439 143 CURVE SMOOTH",
"451 144 OFFCURVE",
"457 148 OFFCURVE",
"457 154 CURVE SMOOTH",
"457 156 OFFCURVE",
"455 157 OFFCURVE",
"450 157 CURVE",
"455 157 OFFCURVE",
"438 157 OFFCURVE",
"398 155 CURVE SMOOTH",
"345 153 OFFCURVE",
"307 150 OFFCURVE",
"284 148 CURVE",
"336 217 OFFCURVE",
"383 287 OFFCURVE",
"423 359 CURVE SMOOTH",
"475 455 OFFCURVE",
"502 530 OFFCURVE",
"502 586 CURVE SMOOTH",
"502 611 OFFCURVE",
"495 631 OFFCURVE",
"482 647 CURVE SMOOTH",
"468 662 OFFCURVE",
"449 670 OFFCURVE",
"425 670 CURVE SMOOTH",
"418 670 OFFCURVE",
"414 668 OFFCURVE",
"414 664 CURVE SMOOTH",
"414 661 OFFCURVE",
"417 659 OFFCURVE",
"423 658 CURVE SMOOTH",
"450 654 OFFCURVE",
"464 637 OFFCURVE",
"464 606 CURVE SMOOTH",
"464 555 OFFCURVE",
"435 477 OFFCURVE",
"379 371 CURVE SMOOTH",
"335 290 OFFCURVE",
"290 214 OFFCURVE",
"239 144 CURVE",
"222 143 OFFCURVE",
"206 141 OFFCURVE",
"191 139 CURVE",
"238 204 OFFCURVE",
"287 282 OFFCURVE",
"334 373 CURVE SMOOTH",
"394 487 OFFCURVE",
"424 572 OFFCURVE",
"424 624 CURVE SMOOTH",
"424 625 OFFCURVE",
"424 625 OFFCURVE",
"423 626 CURVE",
"419 626 OFFCURVE",
"416 624 OFFCURVE",
"415 619 CURVE SMOOTH",
"397 560 OFFCURVE",
"386 523 OFFCURVE",
"381 511 CURVE SMOOTH",
"333 384 OFFCURVE",
"261 258 OFFCURVE",
"168 135 CURVE",
"116 125 OFFCURVE",
"69 110 OFFCURVE",
"27 88 CURVE SMOOTH",
"-33 58 OFFCURVE",
"-64 24 OFFCURVE",
"-64 -15 CURVE SMOOTH",
"-64 -36 OFFCURVE",
"-54 -56 OFFCURVE",
"-34 -75 CURVE",
"-62 -95 OFFCURVE",
"-92 -111 OFFCURVE",
"-127 -123 CURVE SMOOTH",
"-134 -124 OFFCURVE",
"-137 -127 OFFCURVE",
"-137 -131 CURVE SMOOTH",
"-137 -134 OFFCURVE",
"-135 -135 OFFCURVE",
"-130 -135 CURVE SMOOTH",
"-105 -135 OFFCURVE",
"-68 -119 OFFCURVE",
"-22 -86 CURVE",
"-13 -92 OFFCURVE",
"-3 -99 OFFCURVE",
"9 -105 CURVE",
"-48 -148 OFFCURVE",
"-99 -170 OFFCURVE",
"-143 -170 CURVE SMOOTH",
"-168 -170 OFFCURVE",
"-181 -161 OFFCURVE",
"-181 -143 CURVE SMOOTH",
"-181 -137 OFFCURVE",
"-180 -130 OFFCURVE",
"-178 -124 CURVE",
"-186 -130 OFFCURVE",
"-190 -140 OFFCURVE",
"-190 -154 CURVE SMOOTH",
"-190 -174 OFFCURVE",
"-175 -183 OFFCURVE",
"-144 -183 CURVE SMOOTH"
);
},
{
closed = 1;
nodes = (
"-18 -53 OFFCURVE",
"-20 -45 OFFCURVE",
"-20 -36 CURVE SMOOTH",
"-20 -7 OFFCURVE",
"0 22 OFFCURVE",
"40 49 CURVE SMOOTH",
"68 69 OFFCURVE",
"103 86 OFFCURVE",
"142 100 CURVE",
"87 32 OFFCURVE",
"35 -21 OFFCURVE",
"-15 -61 CURVE"
);
},
{
closed = 1;
nodes = (
"10 -90 OFFCURVE",
"0 -83 OFFCURVE",
"-7 -74 CURVE",
"49 -30 OFFCURVE",
"108 30 OFFCURVE",
"168 108 CURVE",
"185 113 OFFCURVE",
"203 118 OFFCURVE",
"222 122 CURVE",
"151 28 OFFCURVE",
"84 -46 OFFCURVE",
"20 -97 CURVE"
);
},
{
closed = 1;
nodes = (
"624 -122 OFFCURVE",
"639 -117 OFFCURVE",
"655 -108 CURVE SMOOTH",
"666 -102 OFFCURVE",
"678 -88 OFFCURVE",
"692 -70 CURVE SMOOTH",
"705 -52 OFFCURVE",
"712 -38 OFFCURVE",
"713 -26 CURVE",
"676 -84 OFFCURVE",
"643 -112 OFFCURVE",
"614 -112 CURVE SMOOTH",
"591 -112 OFFCURVE",
"571 -92 OFFCURVE",
"554 -53 CURVE SMOOTH",
"525 12 OFFCURVE",
"511 133 OFFCURVE",
"511 307 CURVE SMOOTH",
"511 321 OFFCURVE",
"511 342 OFFCURVE",
"511 370 CURVE SMOOTH",
"511 397 OFFCURVE",
"511 417 OFFCURVE",
"511 431 CURVE SMOOTH",
"511 452 OFFCURVE",
"511 464 OFFCURVE",
"511 466 CURVE SMOOTH",
"510 481 OFFCURVE",
"506 487 OFFCURVE",
"501 487 CURVE SMOOTH",
"497 487 OFFCURVE",
"495 482 OFFCURVE",
"494 469 CURVE SMOOTH",
"490 414 OFFCURVE",
"486 382 OFFCURVE",
"485 373 CURVE SMOOTH",
"468 230 OFFCURVE",
"461 141 OFFCURVE",
"461 106 CURVE SMOOTH",
"461 50 OFFCURVE",
"467 7 OFFCURVE",
"482 -25 CURVE SMOOTH",
"492 -48 OFFCURVE",
"510 -71 OFFCURVE",
"535 -91 CURVE SMOOTH",
"560 -111 OFFCURVE",
"584 -122 OFFCURVE",
"608 -122 CURVE SMOOTH"
);
}
);
width = 624;
}
);
note = A;
unicode = 0041;
},
{
glyphname = B;
lastChange = "2021-05-25 21:23:40 +0000";
layers = (
{
layerId = "89156F97-8AE0-4F29-8E8C-D321EE696556";
paths = (
{
closed = 1;
nodes = (
"165 -111 OFFCURVE",
"209 -104 OFFCURVE",
"242 -88 CURVE SMOOTH",
"275 -74 OFFCURVE",
"308 -46 OFFCURVE",
"343 -4 CURVE",
"437 -43 OFFCURVE",
"487 -64 OFFCURVE",
"493 -66 CURVE SMOOTH",
"540 -81 OFFCURVE",
"593 -88 OFFCURVE",
"655 -88 CURVE SMOOTH",
"695 -88 OFFCURVE",
"732 -75 OFFCURVE",
"765 -48 CURVE SMOOTH",
"797 -22 OFFCURVE",
"813 11 OFFCURVE",
"813 50 CURVE SMOOTH",
"813 133 OFFCURVE",
"748 205 OFFCURVE",
"617 266 CURVE",
"666 269 OFFCURVE",
"709 280 OFFCURVE",
"746 299 CURVE SMOOTH",
"795 324 OFFCURVE",
"820 358 OFFCURVE",
"820 401 CURVE SMOOTH",
"820 436 OFFCURVE",
"803 467 OFFCURVE",
"768 495 CURVE SMOOTH",
"740 517 OFFCURVE",
"707 534 OFFCURVE",
"667 546 CURVE",
"696 570 OFFCURVE",
"724 582 OFFCURVE",
"750 582 CURVE SMOOTH",
"787 582 OFFCURVE",
"808 568 OFFCURVE",
"811 540 CURVE SMOOTH",
"814 522 OFFCURVE",
"815 513 OFFCURVE",
"818 513 CURVE SMOOTH",
"821 513 OFFCURVE",
"823 518 OFFCURVE",
"823 526 CURVE SMOOTH",
"823 550 OFFCURVE",
"815 570 OFFCURVE",
"799 586 CURVE SMOOTH",
"783 602 OFFCURVE",
"764 611 OFFCURVE",
"740 611 CURVE SMOOTH",
"699 611 OFFCURVE",
"659 593 OFFCURVE",
"622 558 CURVE",
"581 567 OFFCURVE",
"538 574 OFFCURVE",
"496 574 CURVE SMOOTH",
"489 574 OFFCURVE",
"482 573 OFFCURVE",
"475 573 CURVE SMOOTH",
"456 572 LINE",
"457 616 OFFCURVE",
"455 653 OFFCURVE",
"450 682 CURVE",
"449 685 OFFCURVE",
"448 687 OFFCURVE",
"447 687 CURVE SMOOTH",
"445 687 OFFCURVE",
"443 685 OFFCURVE",
"443 680 CURVE SMOOTH",
"443 674 OFFCURVE",
"443 665 OFFCURVE",
"444 653 CURVE SMOOTH",
"445 640 OFFCURVE",
"445 632 OFFCURVE",
"445 625 CURVE SMOOTH",
"445 608 OFFCURVE",
"444 590 OFFCURVE",
"443 572 CURVE",
"294 566 OFFCURVE",
"185 527 OFFCURVE",
"116 456 CURVE SMOOTH",
"92 432 OFFCURVE",
"81 406 OFFCURVE",
"81 378 CURVE SMOOTH",
"81 339 OFFCURVE",
"100 305 OFFCURVE",
"137 274 CURVE SMOOTH",
"171 245 OFFCURVE",
"208 228 OFFCURVE",
"247 225 CURVE",
"250 224 LINE",
"255 224 OFFCURVE",
"257 226 OFFCURVE",
"257 229 CURVE SMOOTH",
"257 231 OFFCURVE",
"255 232 OFFCURVE",
"251 233 CURVE SMOOTH",
"233 237 OFFCURVE",
"219 241 OFFCURVE",
"211 245 CURVE SMOOTH",
"155 268 OFFCURVE",
"127 305 OFFCURVE",
"127 356 CURVE SMOOTH",
"127 388 OFFCURVE",
"140 416 OFFCURVE",
"165 443 CURVE SMOOTH",
"229 509 OFFCURVE",
"321 547 OFFCURVE",
"442 556 CURVE",
"435 466 OFFCURVE",
"417 375 OFFCURVE",
"387 284 CURVE SMOOTH",
"352 181 OFFCURVE",
"310 100 OFFCURVE",
"258 41 CURVE",
"212 55 OFFCURVE",
"170 62 OFFCURVE",
"133 62 CURVE SMOOTH",
"100 62 OFFCURVE",
"71 56 OFFCURVE",
"48 44 CURVE SMOOTH",
"16 29 OFFCURVE",
"1 6 OFFCURVE",
"1 -24 CURVE SMOOTH",
"1 -48 OFFCURVE",
"13 -68 OFFCURVE",
"39 -86 CURVE SMOOTH",
"62 -103 OFFCURVE",
"86 -111 OFFCURVE",
"110 -111 CURVE SMOOTH"
);
},
{
closed = 1;
nodes = (
"93 -89 OFFCURVE",
"71 -83 OFFCURVE",
"51 -69 CURVE SMOOTH",
"29 -55 OFFCURVE",
"18 -36 OFFCURVE",
"18 -13 CURVE SMOOTH",
"18 10 OFFCURVE",
"31 29 OFFCURVE",
"58 40 CURVE SMOOTH",
"78 48 OFFCURVE",
"101 53 OFFCURVE",
"128 53 CURVE SMOOTH",
"167 53 OFFCURVE",
"208 46 OFFCURVE",
"251 31 CURVE",
"207 -16 OFFCURVE",
"163 -40 OFFCURVE",
"119 -40 CURVE SMOOTH",
"107 -40 OFFCURVE",
"102 -42 OFFCURVE",
"102 -45 CURVE SMOOTH",
"102 -49 OFFCURVE",
"108 -52 OFFCURVE",
"121 -52 CURVE SMOOTH",
"172 -52 OFFCURVE",
"221 -27 OFFCURVE",
"268 26 CURVE",
"282 20 OFFCURVE",
"295 14 OFFCURVE",
"306 9 CURVE",
"289 -17 OFFCURVE",
"261 -40 OFFCURVE",
"222 -60 CURVE SMOOTH",
"184 -80 OFFCURVE",
"149 -89 OFFCURVE",
"117 -89 CURVE SMOOTH"
);
},
{
closed = 1;
nodes = (
"276 35 LINE",
"328 96 OFFCURVE",
"371 179 OFFCURVE",
"404 282 CURVE SMOOTH",
"434 376 OFFCURVE",
"450 467 OFFCURVE",
"455 557 CURVE",
"466 558 OFFCURVE",
"478 558 OFFCURVE",
"489 558 CURVE SMOOTH",
"530 558 OFFCURVE",
"571 554 OFFCURVE",
"611 546 CURVE",
"574 507 OFFCURVE",
"535 448 OFFCURVE",
"495 367 CURVE SMOOTH",
"464 302 OFFCURVE",
"433 236 OFFCURVE",
"403 170 CURVE SMOOTH",
"370 100 OFFCURVE",
"340 50 OFFCURVE",
"314 22 CURVE"
);
},
{
closed = 1;
nodes = (
"603 -68 OFFCURVE",
"553 -60 OFFCURVE",
"498 -42 CURVE SMOOTH",
"449 -26 OFFCURVE",
"402 -8 OFFCURVE",
"354 10 CURVE",
"388 48 OFFCURVE",
"422 105 OFFCURVE",
"457 182 CURVE SMOOTH",
"486 247 OFFCURVE",
"515 312 OFFCURVE",
"545 376 CURVE SMOOTH",
"580 448 OFFCURVE",
"618 501 OFFCURVE",
"655 535 CURVE",
"687 524 OFFCURVE",
"714 509 OFFCURVE",
"735 488 CURVE SMOOTH",
"760 464 OFFCURVE",
"772 436 OFFCURVE",
"772 405 CURVE SMOOTH",
"772 371 OFFCURVE",
"757 344 OFFCURVE",
"729 321 CURVE SMOOTH",
"704 302 OFFCURVE",
"675 290 OFFCURVE",
"637 283 CURVE SMOOTH",
"627 281 OFFCURVE",
"616 279 OFFCURVE",
"604 279 CURVE SMOOTH",
"596 279 OFFCURVE",
"589 279 OFFCURVE",
"585 279 CURVE",
"567 276 OFFCURVE",
"558 265 OFFCURVE",
"558 247 CURVE SMOOTH",
"558 242 OFFCURVE",
"559 238 OFFCURVE",
"561 238 CURVE SMOOTH",
"586 226 OFFCURVE",
"605 219 OFFCURVE",
"618 213 CURVE SMOOTH",
"724 162 OFFCURVE",
"776 97 OFFCURVE",
"776 19 CURVE SMOOTH",
"776 -39 OFFCURVE",
"733 -68 OFFCURVE",
"648 -68 CURVE SMOOTH"
);
}
);
width = 865;
}
);
note = B;
unicode = 0042;
},
{
glyphname = C;
lastChange = "2021-05-25 21:23:40 +0000";
layers = (
{
anchors = (
{
name = bottom;
position = "{294, -83}";
},
{
name = top;
position = "{516, 594}";
}
);
layerId = "89156F97-8AE0-4F29-8E8C-D321EE696556";
paths = (
{
closed = 1;
nodes = (
"185 -208 OFFCURVE",
"225 -169 OFFCURVE",
"268 -92 CURVE",
"349 -91 OFFCURVE",
"432 -70 OFFCURVE",
"518 -27 CURVE SMOOTH",
"607 19 OFFCURVE",
"671 75 OFFCURVE",
"710 142 CURVE SMOOTH",
"713 146 OFFCURVE",
"713 151 OFFCURVE",
"713 156 CURVE SMOOTH",
"713 157 OFFCURVE",
"713 158 OFFCURVE",
"713 159 CURVE",
"712 159 OFFCURVE",
"708 155 OFFCURVE",
"703 147 CURVE SMOOTH",
"664 86 OFFCURVE",
"607 38 OFFCURVE",
"532 0 CURVE SMOOTH",
"460 -36 OFFCURVE",
"387 -55 OFFCURVE",
"313 -55 CURVE SMOOTH",
"304 -55 OFFCURVE",
"295 -55 OFFCURVE",
"287 -54 CURVE",
"324 23 OFFCURVE",
"355 116 OFFCURVE",
"384 226 CURVE SMOOTH",
"409 328 OFFCURVE",
"428 425 OFFCURVE",
"438 518 CURVE",
"479 505 OFFCURVE",
"521 487 OFFCURVE",
"563 465 CURVE SMOOTH",
"583 454 OFFCURVE",
"622 432 OFFCURVE",
"680 397 CURVE SMOOTH",
"687 393 OFFCURVE",
"693 391 OFFCURVE",
"698 391 CURVE SMOOTH",
"708 391 OFFCURVE",
"712 397 OFFCURVE",
"712 408 CURVE SMOOTH",
"712 412 LINE SMOOTH",
"712 470 OFFCURVE",
"691 516 OFFCURVE",
"656 547 CURVE SMOOTH",
"623 578 OFFCURVE",
"576 594 OFFCURVE",
"516 594 CURVE SMOOTH",
"493 594 OFFCURVE",
"469 591 OFFCURVE",
"444 586 CURVE",
"445 600 OFFCURVE",
"445 614 OFFCURVE",
"445 626 CURVE SMOOTH",
"445 659 OFFCURVE",
"442 685 OFFCURVE",
"437 703 CURVE SMOOTH",
"436 706 OFFCURVE",
"435 708 OFFCURVE",
"433 708 CURVE SMOOTH",
"430 708 OFFCURVE",
"428 705 OFFCURVE",
"428 700 CURVE SMOOTH",
"428 694 OFFCURVE",
"428 684 OFFCURVE",
"429 671 CURVE SMOOTH",
"430 658 OFFCURVE",
"430 649 OFFCURVE",
"430 642 CURVE SMOOTH",
"430 624 OFFCURVE",
"430 604 OFFCURVE",
"429 583 CURVE",
"397 576 OFFCURVE",
"366 564 OFFCURVE",
"334 550 CURVE",
"309 553 OFFCURVE",
"287 555 OFFCURVE",
"271 555 CURVE SMOOTH",
"219 555 OFFCURVE",
"167 547 OFFCURVE",
"116 532 CURVE SMOOTH",
"46 511 OFFCURVE",
"10 480 OFFCURVE",
"10 441 CURVE SMOOTH",
"10 432 OFFCURVE",
"13 422 OFFCURVE",
"18 411 CURVE SMOOTH",
"22 401 OFFCURVE",
"29 395 OFFCURVE",
"36 395 CURVE SMOOTH",
"42 395 OFFCURVE",
"45 400 OFFCURVE",
"45 409 CURVE SMOOTH",
"45 410 OFFCURVE",
"45 413 OFFCURVE",
"45 416 CURVE",
"44 419 OFFCURVE",
"44 422 OFFCURVE",
"44 424 CURVE SMOOTH",
"44 451 OFFCURVE",
"63 477 OFFCURVE",
"102 500 CURVE SMOOTH",
"129 516 OFFCURVE",
"161 528 OFFCURVE",
"197 537 CURVE SMOOTH",
"224 543 OFFCURVE",
"252 546 OFFCURVE",
"277 546 CURVE SMOOTH",
"288 546 OFFCURVE",
"302 545 OFFCURVE",
"320 543 CURVE",
"244 504 OFFCURVE",
"179 446 OFFCURVE",
"123 367 CURVE SMOOTH",
"64 283 OFFCURVE",
"34 201 OFFCURVE",
"34 121 CURVE SMOOTH",
"34 53 OFFCURVE",
"55 0 OFFCURVE",
"96 -37 CURVE SMOOTH",
"135 -72 OFFCURVE",
"188 -90 OFFCURVE",
"257 -92 CURVE",
"226 -146 OFFCURVE",
"195 -180 OFFCURVE",
"163 -191 CURVE",
"155 -193 OFFCURVE",
"149 -194 OFFCURVE",
"144 -195 CURVE SMOOTH",
"140 -196 OFFCURVE",
"138 -198 OFFCURVE",
"138 -201 CURVE SMOOTH",
"138 -206 OFFCURVE",
"141 -208 OFFCURVE",
"147 -208 CURVE SMOOTH"
);
},
{
closed = 1;
nodes = (
"218 -48 OFFCURVE",
"172 -27 OFFCURVE",
"139 9 CURVE SMOOTH",
"105 44 OFFCURVE",
"89 90 OFFCURVE",
"89 150 CURVE SMOOTH",
"89 229 OFFCURVE",
"113 306 OFFCURVE",
"161 380 CURVE SMOOTH",
"208 454 OFFCURVE",
"268 507 OFFCURVE",
"339 541 CURVE",
"369 536 OFFCURVE",
"397 530 OFFCURVE",
"425 522 CURVE",
"415 426 OFFCURVE",
"398 328 OFFCURVE",
"373 228 CURVE SMOOTH",
"346 116 OFFCURVE",
"314 22 OFFCURVE",
"277 -53 CURVE"
);
},
{
closed = 1;
nodes = (
"405 540 OFFCURVE",
"381 543 OFFCURVE",
"355 547 CURVE",
"377 556 OFFCURVE",
"402 562 OFFCURVE",
"428 566 CURVE",
"427 556 OFFCURVE",
"427 546 OFFCURVE",
"426 536 CURVE"
);
},
{
closed = 1;
nodes = (
"670 447 OFFCURVE",
"666 448 OFFCURVE",
"660 451 CURVE SMOOTH",
"589 490 OFFCURVE",
"515 517 OFFCURVE",
"439 533 CURVE",
"440 545 OFFCURVE",
"441 557 OFFCURVE",
"442 567 CURVE",
"454 568 OFFCURVE",
"466 569 OFFCURVE",
"478 569 CURVE SMOOTH",
"517 569 OFFCURVE",
"553 562 OFFCURVE",
"588 548 CURVE SMOOTH",
"629 532 OFFCURVE",
"657 509 OFFCURVE",
"674 480 CURVE SMOOTH",
"678 471 OFFCURVE",
"680 464 OFFCURVE",
"680 457 CURVE SMOOTH",
"680 450 OFFCURVE",
"677 447 OFFCURVE",
"673 447 CURVE SMOOTH"
);
}
);
width = 681;
}
);
note = C;
unicode = 0043;
},
{
glyphname = D;
lastChange = "2021-05-25 21:23:40 +0000";
layers = (
{
anchors = (
{
name = bottom;
position = "{480, -46}";
},
{
name = center;
position = "{467, 351}";
},
{
name = top;
position = "{769, 650}";
}
);
layerId = "89156F97-8AE0-4F29-8E8C-D321EE696556";
paths = (
{
closed = 1;
nodes = (
"235 -89 OFFCURVE",
"298 -61 OFFCURVE",
"343 -4 CURVE",
"424 -37 OFFCURVE",
"501 -54 OFFCURVE",
"572 -54 CURVE SMOOTH",
"642 -54 OFFCURVE",
"706 -37 OFFCURVE",
"763 -4 CURVE SMOOTH",
"819 29 OFFCURVE",
"862 77 OFFCURVE",
"891 139 CURVE SMOOTH",
"911 182 OFFCURVE",
"922 228 OFFCURVE",
"922 276 CURVE SMOOTH",
"922 349 OFFCURVE",
"892 411 OFFCURVE",
"833 464 CURVE SMOOTH",
"781 510 OFFCURVE",
"716 541 OFFCURVE",
"640 553 CURVE",
"675 599 OFFCURVE",
"713 623 OFFCURVE",
"755 623 CURVE SMOOTH",
"771 623 OFFCURVE",
"788 618 OFFCURVE",
"804 610 CURVE SMOOTH",
"822 600 OFFCURVE",
"833 588 OFFCURVE",
"837 574 CURVE SMOOTH",
"839 565 OFFCURVE",
"842 561 OFFCURVE",
"845 561 CURVE SMOOTH",
"846 561 OFFCURVE",
"847 562 OFFCURVE",
"847 565 CURVE SMOOTH",
"847 572 OFFCURVE",
"846 580 OFFCURVE",
"843 589 CURVE SMOOTH",
"836 608 OFFCURVE",
"824 623 OFFCURVE",
"806 634 CURVE SMOOTH",
"788 644 OFFCURVE",
"769 650 OFFCURVE",
"748 650 CURVE SMOOTH",
"697 650 OFFCURVE",
"650 619 OFFCURVE",
"603 558 CURVE",
"557 568 OFFCURVE",
"507 573 OFFCURVE",
"456 572 CURVE",
"457 617 OFFCURVE",
"455 653 OFFCURVE",
"450 682 CURVE",
"449 685 OFFCURVE",
"448 687 OFFCURVE",
"447 687 CURVE SMOOTH",
"445 687 OFFCURVE",
"443 685 OFFCURVE",
"443 680 CURVE SMOOTH",
"443 674 OFFCURVE",
"443 665 OFFCURVE",
"444 653 CURVE SMOOTH",
"445 640 OFFCURVE",
"445 632 OFFCURVE",
"445 625 CURVE SMOOTH",
"445 607 OFFCURVE",
"444 590 OFFCURVE",
"443 572 CURVE",
"296 567 OFFCURVE",
"188 528 OFFCURVE",
"117 453 CURVE SMOOTH",
"93 428 OFFCURVE",
"82 402 OFFCURVE",
"82 373 CURVE SMOOTH",
"82 335 OFFCURVE",
"99 301 OFFCURVE",
"134 271 CURVE SMOOTH",
"166 243 OFFCURVE",
"201 228 OFFCURVE",
"240 225 CURVE",
"242 224 LINE",
"247 224 OFFCURVE",
"249 226 OFFCURVE",
"249 229 CURVE SMOOTH",
"249 231 OFFCURVE",
"247 232 OFFCURVE",
"244 233 CURVE SMOOTH",
"223 238 OFFCURVE",
"207 242 OFFCURVE",
"197 247 CURVE SMOOTH",
"143 272 OFFCURVE",
"116 310 OFFCURVE",
"116 360 CURVE SMOOTH",
"116 390 OFFCURVE",
"128 417 OFFCURVE",
"152 443 CURVE SMOOTH",
"217 512 OFFCURVE",
"314 549 OFFCURVE",
"442 556 CURVE",
"435 467 OFFCURVE",
"417 378 OFFCURVE",
"388 288 CURVE SMOOTH",
"354 186 OFFCURVE",
"314 105 OFFCURVE",
"263 46 CURVE",
"197 73 OFFCURVE",
"144 87 OFFCURVE",
"107 87 CURVE SMOOTH",
"80 87 OFFCURVE",
"57 82 OFFCURVE",
"38 71 CURVE SMOOTH",
"14 58 OFFCURVE",
"2 40 OFFCURVE",
"2 15 CURVE SMOOTH",
"2 -10 OFFCURVE",
"15 -33 OFFCURVE",
"41 -54 CURVE SMOOTH",
"65 -73 OFFCURVE",
"89 -85 OFFCURVE",
"115 -87 CURVE SMOOTH",
"126 -88 OFFCURVE",
"139 -89 OFFCURVE",
"152 -89 CURVE SMOOTH"
);
},
{
closed = 1;
nodes = (
"107 -67 OFFCURVE",
"82 -59 OFFCURVE",
"58 -43 CURVE SMOOTH",
"31 -25 OFFCURVE",
"18 -3 OFFCURVE",
"18 22 CURVE SMOOTH",
"18 42 OFFCURVE",
"28 56 OFFCURVE",
"47 66 CURVE SMOOTH",
"62 73 OFFCURVE",
"80 78 OFFCURVE",
"101 78 CURVE SMOOTH",
"142 78 OFFCURVE",
"194 64 OFFCURVE",
"256 36 CURVE",
"211 -14 OFFCURVE",
"165 -40 OFFCURVE",
"119 -40 CURVE SMOOTH",
"107 -40 OFFCURVE",
"102 -42 OFFCURVE",
"102 -45 CURVE SMOOTH",
"102 -49 OFFCURVE",
"108 -52 OFFCURVE",
"121 -52 CURVE SMOOTH",
"173 -52 OFFCURVE",
"223 -25 OFFCURVE",
"271 29 CURVE",
"282 24 OFFCURVE",
"294 18 OFFCURVE",
"305 12 CURVE",
"290 -11 OFFCURVE",
"264 -30 OFFCURVE",
"229 -46 CURVE SMOOTH",
"197 -60 OFFCURVE",
"165 -67 OFFCURVE",
"134 -67 CURVE SMOOTH"
);
},
{
closed = 1;
nodes = (
"279 39 LINE",
"330 100 OFFCURVE",
"371 181 OFFCURVE",
"404 284 CURVE SMOOTH",
"433 377 OFFCURVE",
"450 468 OFFCURVE",
"455 557 CURVE",
"462 557 OFFCURVE",
"469 557 OFFCURVE",
"476 557 CURVE SMOOTH",
"517 557 OFFCURVE",
"556 553 OFFCURVE",
"594 546 CURVE",
"564 515 OFFCURVE",
"528 454 OFFCURVE",
"485 361 CURVE SMOOTH",
"454 293 OFFCURVE",
"425 224 OFFCURVE",
"392 156 CURVE SMOOTH",
"363 93 OFFCURVE",
"335 49 OFFCURVE",
"313 26 CURVE"
);
},
{
closed = 1;
nodes = (
"498 -38 OFFCURVE",
"428 -23 OFFCURVE",
"353 9 CURVE",
"383 43 OFFCURVE",
"415 93 OFFCURVE",
"448 161 CURVE SMOOTH",
"498 260 OFFCURVE",
"531 337 OFFCURVE",
"554 389 CURVE SMOOTH",
"585 459 OFFCURVE",
"612 509 OFFCURVE",
"632 540 CURVE",
"697 528 OFFCURVE",
"752 496 OFFCURVE",
"797 443 CURVE SMOOTH",
"842 390 OFFCURVE",
"865 331 OFFCURVE",
"865 265 CURVE SMOOTH",
"865 178 OFFCURVE",
"836 105 OFFCURVE",
"779 48 CURVE SMOOTH",
"722 -10 OFFCURVE",
"650 -38 OFFCURVE",
"562 -38 CURVE SMOOTH"
);
}
);
width = 934;
}
);
note = D;
unicode = 0044;
},
{
glyphname = E;
lastChange = "2021-05-25 21:23:40 +0000";
layers = (
{
anchors = (
{
name = bottom;
position = "{506, -52}";
},
{
name = ogonek;
position = "{517, -60}";
},
{
name = top;
position = "{867, 639}";
},
{
name = topleft;
position = "{20, 701}";
}
);
layerId = "89156F97-8AE0-4F29-8E8C-D321EE696556";
paths = (
{
closed = 1;
nodes = (
"815 -135 OFFCURVE",
"851 -123 OFFCURVE",
"881 -99 CURVE SMOOTH",
"913 -73 OFFCURVE",
"929 -39 OFFCURVE",
"929 3 CURVE SMOOTH",
"929 50 OFFCURVE",
"908 91 OFFCURVE",
"867 125 CURVE SMOOTH",
"862 130 OFFCURVE",
"858 132 OFFCURVE",
"856 132 CURVE SMOOTH",
"855 132 OFFCURVE",
"855 132 OFFCURVE",
"855 131 CURVE",
"855 131 OFFCURVE",
"865 115 OFFCURVE",
"884 83 CURVE SMOOTH",
"904 50 OFFCURVE",
"914 23 OFFCURVE",
"914 0 CURVE SMOOTH",
"914 -30 OFFCURVE",
"897 -53 OFFCURVE",
"863 -68 CURVE SMOOTH",
"837 -80 OFFCURVE",
"807 -85 OFFCURVE",
"771 -85 CURVE SMOOTH",
"716 -85 OFFCURVE",
"649 -73 OFFCURVE",
"568 -50 CURVE SMOOTH",
"502 -31 OFFCURVE",
"435 -11 OFFCURVE",
"369 9 CURVE",
"406 52 OFFCURVE",
"445 111 OFFCURVE",
"485 184 CURVE",
"491 168 OFFCURVE",
"498 160 OFFCURVE",
"505 160 CURVE",
"505 162 LINE",
"502 169 OFFCURVE",
"500 176 OFFCURVE",
"500 181 CURVE SMOOTH",
"500 212 OFFCURVE",
"536 234 OFFCURVE",
"609 247 CURVE SMOOTH",
"654 256 OFFCURVE",
"702 259 OFFCURVE",
"754 259 CURVE SMOOTH",
"763 259 OFFCURVE",
"775 258 OFFCURVE",
"791 257 CURVE SMOOTH",
"808 255 OFFCURVE",
"819 254 OFFCURVE",
"827 254 CURVE SMOOTH",
"829 254 OFFCURVE",
"831 255 OFFCURVE",
"831 257 CURVE SMOOTH",
"831 258 OFFCURVE",
"829 260 OFFCURVE",
"826 261 CURVE SMOOTH",
"782 276 OFFCURVE",
"723 284 OFFCURVE",
"648 284 CURVE SMOOTH",
"593 284 OFFCURVE",
"553 279 OFFCURVE",
"528 271 CURVE",
"594 407 OFFCURVE",
"636 487 OFFCURVE",
"652 514 CURVE",
"788 484 OFFCURVE",
"879 468 OFFCURVE",
"924 468 CURVE SMOOTH",
"998 468 OFFCURVE",
"1035 491 OFFCURVE",
"1035 537 CURVE SMOOTH",
"1035 543 OFFCURVE",
"1033 552 OFFCURVE",
"1029 563 CURVE SMOOTH",
"1026 574 OFFCURVE",
"1021 580 OFFCURVE",
"1017 580 CURVE SMOOTH",
"1015 580 OFFCURVE",
"1014 579 OFFCURVE",
"1014 577 CURVE SMOOTH",
"1014 576 OFFCURVE",
"1015 573 OFFCURVE",
"1017 568 CURVE SMOOTH",
"1020 564 OFFCURVE",
"1021 560 OFFCURVE",
"1021 554 CURVE SMOOTH",
"1021 534 OFFCURVE",
"1007 520 OFFCURVE",
"979 510 CURVE SMOOTH",
"960 504 OFFCURVE",
"938 501 OFFCURVE",
"912 501 CURVE SMOOTH",
"867 501 OFFCURVE",
"786 512 OFFCURVE",
"666 536 CURVE",
"709 598 OFFCURVE",
"751 629 OFFCURVE",
"794 629 CURVE SMOOTH",
"809 629 OFFCURVE",
"823 626 OFFCURVE",
"834 619 CURVE SMOOTH",
"847 612 OFFCURVE",
"853 599 OFFCURVE",
"853 585 CURVE SMOOTH",
"853 579 OFFCURVE",
"854 576 OFFCURVE",
"857 576 CURVE SMOOTH",
"860 576 OFFCURVE",
"862 580 OFFCURVE",
"862 587 CURVE SMOOTH",
"862 628 OFFCURVE",
"837 648 OFFCURVE",
"789 648 CURVE SMOOTH",
"733 648 OFFCURVE",
"678 613 OFFCURVE",
"624 543 CURVE",
"553 558 OFFCURVE",
"497 567 OFFCURVE",
"456 573 CURVE",
"457 616 OFFCURVE",
"455 653 OFFCURVE",
"450 682 CURVE",
"449 685 OFFCURVE",
"448 687 OFFCURVE",
"447 687 CURVE SMOOTH",
"445 687 OFFCURVE",
"443 685 OFFCURVE",
"443 680 CURVE SMOOTH",
"443 674 OFFCURVE",
"443 665 OFFCURVE",
"444 653 CURVE SMOOTH",
"445 640 OFFCURVE",
"445 632 OFFCURVE",
"445 625 CURVE SMOOTH",
"445 609 OFFCURVE",
"444 592 OFFCURVE",
"443 575 CURVE",
"392 581 OFFCURVE",
"350 585 OFFCURVE",
"313 585 CURVE SMOOTH",
"293 585 OFFCURVE",
"276 584 OFFCURVE",
"259 582 CURVE SMOOTH",
"219 578 OFFCURVE",
"185 566 OFFCURVE",
"160 547 CURVE SMOOTH",
"128 524 OFFCURVE",
"113 495 OFFCURVE",
"113 457 CURVE SMOOTH",
"113 390 OFFCURVE",
"155 333 OFFCURVE",
"239 285 CURVE SMOOTH",
"241 284 OFFCURVE",
"243 283 OFFCURVE",
"245 283 CURVE SMOOTH",
"248 283 OFFCURVE",
"249 284 OFFCURVE",
"249 286 CURVE SMOOTH",
"249 288 OFFCURVE",
"247 290 OFFCURVE",
"244 291 CURVE",
"181 335 OFFCURVE",
"150 385 OFFCURVE",
"150 439 CURVE SMOOTH",
"150 498 OFFCURVE",
"181 537 OFFCURVE",
"243 554 CURVE SMOOTH",
"267 561 OFFCURVE",
"295 563 OFFCURVE",
"331 563 CURVE SMOOTH",
"362 563 OFFCURVE",
"399 561 OFFCURVE",
"442 555 CURVE",
"435 465 OFFCURVE",
"416 374 OFFCURVE",
"386 284 CURVE SMOOTH",
"352 181 OFFCURVE",
"310 100 OFFCURVE",
"258 41 CURVE",
"212 55 OFFCURVE",
"175 62 OFFCURVE",
"146 62 CURVE SMOOTH",
"111 62 OFFCURVE",
"81 56 OFFCURVE",
"56 44 CURVE SMOOTH",
"24 28 OFFCURVE",
"8 4 OFFCURVE",
"8 -28 CURVE SMOOTH",
"8 -53 OFFCURVE",
"23 -74 OFFCURVE",
"53 -91 CURVE SMOOTH",
"79 -105 OFFCURVE",
"106 -113 OFFCURVE",
"134 -113 CURVE SMOOTH",
"216 -113 OFFCURVE",
"290 -77 OFFCURVE",
"357 -4 CURVE",
"427 -30 OFFCURVE",
"496 -57 OFFCURVE",
"565 -84 CURVE SMOOTH",
"656 -118 OFFCURVE",
"724 -135 OFFCURVE",
"772 -135 CURVE SMOOTH"
);
},
{
closed = 1;
nodes = (
"102 -93 OFFCURVE",
"81 -87 OFFCURVE",
"63 -76 CURVE SMOOTH",
"42 -64 OFFCURVE",
"31 -46 OFFCURVE",
"31 -24 CURVE SMOOTH",
"31 2 OFFCURVE",
"46 21 OFFCURVE",
"73 33 CURVE SMOOTH",
"95 43 OFFCURVE",
"120 48 OFFCURVE",
"148 48 CURVE SMOOTH",
"178 48 OFFCURVE",
"211 42 OFFCURVE",
"249 30 CURVE",
"206 -16 OFFCURVE",
"163 -40 OFFCURVE",
"119 -40 CURVE SMOOTH",
"107 -40 OFFCURVE",
"102 -42 OFFCURVE",
"102 -45 CURVE SMOOTH",
"102 -49 OFFCURVE",
"108 -52 OFFCURVE",
"121 -52 CURVE SMOOTH",
"171 -52 OFFCURVE",
"220 -27 OFFCURVE",
"267 25 CURVE",
"289 18 OFFCURVE",
"304 13 OFFCURVE",
"313 10 CURVE",
"295 -15 OFFCURVE",
"266 -39 OFFCURVE",
"229 -60 CURVE SMOOTH",
"190 -83 OFFCURVE",
"155 -93 OFFCURVE",
"124 -93 CURVE SMOOTH"
);
},
{
closed = 1;
nodes = (
"276 35 LINE",
"327 95 OFFCURVE",
"370 177 OFFCURVE",
"403 280 CURVE SMOOTH",
"432 372 OFFCURVE",
"450 464 OFFCURVE",
"455 553 CURVE",
"496 546 OFFCURVE",
"547 537 OFFCURVE",
"609 523 CURVE",
"580 483 OFFCURVE",
"547 431 OFFCURVE",
"516 371 CURVE SMOOTH",
"488 317 OFFCURVE",
"463 263 OFFCURVE",
"436 210 CURVE SMOOTH",
"389 116 OFFCURVE",
"350 53 OFFCURVE",
"319 22 CURVE"
);
}
);
width = 931;
}
);
note = E;
unicode = 0045;
},
{
glyphname = F;
lastChange = "2021-05-25 21:23:40 +0000";
layers = (
{
layerId = "89156F97-8AE0-4F29-8E8C-D321EE696556";
paths = (
{
closed = 1;
nodes = (
"203 -103 OFFCURVE",
"268 -67 OFFCURVE",
"330 2 CURVE SMOOTH",
"369 46 OFFCURVE",
"409 110 OFFCURVE",
"454 197 CURVE",
"455 190 OFFCURVE",
"458 183 OFFCURVE",
"463 175 CURVE SMOOTH",
"466 166 OFFCURVE",
"471 162 OFFCURVE",
"475 162 CURVE",
"475 162 LINE",
"475 164 OFFCURVE",
"474 167 OFFCURVE",
"472 172 CURVE SMOOTH",
"471 176 OFFCURVE",
"470 179 OFFCURVE",
"470 181 CURVE SMOOTH",
"470 208 OFFCURVE",
"502 228 OFFCURVE",
"565 239 CURVE SMOOTH",
"604 247 OFFCURVE",
"647 250 OFFCURVE",
"692 250 CURVE SMOOTH",
"699 250 OFFCURVE",
"710 249 OFFCURVE",
"724 247 CURVE SMOOTH",
"737 246 OFFCURVE",
"748 245 OFFCURVE",
"754 245 CURVE SMOOTH",
"757 245 OFFCURVE",
"758 246 OFFCURVE",
"758 248 CURVE SMOOTH",
"758 250 OFFCURVE",
"756 251 OFFCURVE",
"753 252 CURVE SMOOTH",
"714 264 OFFCURVE",
"663 271 OFFCURVE",
"599 271 CURVE SMOOTH",
"540 271 OFFCURVE",
"501 265 OFFCURVE",
"483 255 CURVE",
"545 383 OFFCURVE",
"579 451 OFFCURVE",
"583 460 CURVE",
"665 442 OFFCURVE",
"725 433 OFFCURVE",
"762 433 CURVE SMOOTH",
"827 433 OFFCURVE",
"860 453 OFFCURVE",
"860 494 CURVE SMOOTH",
"860 500 OFFCURVE",
"859 507 OFFCURVE",
"856 516 CURVE SMOOTH",
"852 527 OFFCURVE",
"848 533 OFFCURVE",
"844 533 CURVE SMOOTH",
"843 533 OFFCURVE",
"842 532 OFFCURVE",
"842 530 CURVE SMOOTH",
"842 529 OFFCURVE",
"843 526 OFFCURVE",
"846 523 CURVE SMOOTH",
"847 520 OFFCURVE",
"848 515 OFFCURVE",
"848 510 CURVE SMOOTH",
"848 478 OFFCURVE",
"816 462 OFFCURVE",
"751 462 CURVE SMOOTH",
"716 462 OFFCURVE",
"665 468 OFFCURVE",
"596 481 CURVE",
"649 575 OFFCURVE",
"699 622 OFFCURVE",
"748 622 CURVE SMOOTH",
"783 622 OFFCURVE",
"800 609 OFFCURVE",
"800 583 CURVE SMOOTH",
"800 578 OFFCURVE",
"801 575 OFFCURVE",
"804 575 CURVE SMOOTH",
"807 575 OFFCURVE",
"808 579 OFFCURVE",
"808 585 CURVE SMOOTH",
"808 621 OFFCURVE",
"786 639 OFFCURVE",
"743 639 CURVE SMOOTH",
"672 639 OFFCURVE",
"607 590 OFFCURVE",
"547 490 CURVE",
"485 503 OFFCURVE",
"454 508 OFFCURVE",
"451 508 CURVE",
"454 540 OFFCURVE",
"456 569 OFFCURVE",
"456 597 CURVE SMOOTH",
"456 632 OFFCURVE",
"454 660 OFFCURVE",
"450 682 CURVE SMOOTH",
"449 685 OFFCURVE",
"448 687 OFFCURVE",
"447 687 CURVE SMOOTH",
"445 687 OFFCURVE",
"443 685 OFFCURVE",
"443 680 CURVE SMOOTH",
"443 674 OFFCURVE",
"443 665 OFFCURVE",
"444 653 CURVE SMOOTH",
"445 640 OFFCURVE",
"445 632 OFFCURVE",
"445 625 CURVE SMOOTH",
"445 588 OFFCURVE",
"442 550 OFFCURVE",
"437 511 CURVE",
"343 529 OFFCURVE",
"269 538 OFFCURVE",
"217 538 CURVE SMOOTH",
"169 538 OFFCURVE",
"130 530 OFFCURVE",
"100 516 CURVE SMOOTH",
"59 496 OFFCURVE",
"39 466 OFFCURVE",
"39 423 CURVE SMOOTH",
"39 364 OFFCURVE",
"76 313 OFFCURVE",
"151 270 CURVE SMOOTH",
"153 269 OFFCURVE",
"155 268 OFFCURVE",
"156 268 CURVE SMOOTH",
"159 268 OFFCURVE",
"160 269 OFFCURVE",
"160 271 CURVE SMOOTH",
"160 272 OFFCURVE",
"159 274 OFFCURVE",
"156 276 CURVE SMOOTH",
"100 314 OFFCURVE",
"71 359 OFFCURVE",
"71 408 CURVE SMOOTH",
"71 482 OFFCURVE",
"124 519 OFFCURVE",
"232 519 CURVE SMOOTH",
"281 519 OFFCURVE",
"349 510 OFFCURVE",
"435 492 CURVE",
"426 425 OFFCURVE",
"410 358 OFFCURVE",
"390 294 CURVE SMOOTH",
"364 214 OFFCURVE",
"331 144 OFFCURVE",
"293 86 CURVE SMOOTH",
"238 2 OFFCURVE",
"180 -40 OFFCURVE",
"119 -40 CURVE SMOOTH",
"107 -40 OFFCURVE",
"102 -42 OFFCURVE",
"102 -45 CURVE SMOOTH",
"102 -49 OFFCURVE",
"108 -52 OFFCURVE",
"121 -52 CURVE SMOOTH",
"187 -52 OFFCURVE",
"249 -10 OFFCURVE",
"307 76 CURVE SMOOTH",
"348 136 OFFCURVE",
"380 209 OFFCURVE",
"407 294 CURVE SMOOTH",
"427 358 OFFCURVE",
"441 424 OFFCURVE",
"449 489 CURVE",
"536 470 LINE",
"514 431 OFFCURVE",
"487 378 OFFCURVE",
"457 309 CURVE SMOOTH",
"421 228 OFFCURVE",
"395 174 OFFCURVE",
"381 145 CURVE SMOOTH",
"347 78 OFFCURVE",
"314 28 OFFCURVE",
"282 -7 CURVE SMOOTH",
"235 -59 OFFCURVE",
"182 -85 OFFCURVE",
"126 -85 CURVE SMOOTH",
"105 -85 OFFCURVE",
"87 -80 OFFCURVE",
"71 -70 CURVE SMOOTH",
"53 -59 OFFCURVE",
"44 -43 OFFCURVE",
"44 -23 CURVE SMOOTH",
"44 1 OFFCURVE",
"56 19 OFFCURVE",
"80 31 CURVE SMOOTH",
"99 42 OFFCURVE",
"121 47 OFFCURVE",
"146 47 CURVE SMOOTH",
"152 47 OFFCURVE",
"155 48 OFFCURVE",
"155 50 CURVE SMOOTH",
"155 52 OFFCURVE",
"152 53 OFFCURVE",
"146 53 CURVE SMOOTH",
"116 53 OFFCURVE",
"89 48 OFFCURVE",
"66 35 CURVE SMOOTH",
"36 20 OFFCURVE",
"21 -1 OFFCURVE",
"21 -29 CURVE SMOOTH",
"21 -54 OFFCURVE",
"34 -74 OFFCURVE",
"62 -87 CURVE SMOOTH",
"83 -98 OFFCURVE",
"107 -103 OFFCURVE",
"135 -103 CURVE SMOOTH"
);
}
);
width = 722;
}
);
note = F;
unicode = 0046;
},
{
glyphname = G;
lastChange = "2021-05-25 21:23:40 +0000";
layers = (
{
anchors = (
{
name = bottom;
position = "{263, -292}";
},
{
name = top;
position = "{540, 593}";
}
);
layerId = "89156F97-8AE0-4F29-8E8C-D321EE696556";
paths = (
{
closed = 1;
nodes = (
"257 -264 OFFCURVE",
"274 -257 OFFCURVE",
"291 -244 CURVE SMOOTH",
"334 -210 OFFCURVE",
"375 -138 OFFCURVE",
"417 -29 CURVE SMOOTH",
"446 46 OFFCURVE",
"470 127 OFFCURVE",
"491 218 CURVE",
"538 282 OFFCURVE",
"561 321 OFFCURVE",
"561 333 CURVE SMOOTH",
"561 334 OFFCURVE",
"560 335 OFFCURVE",
"559 336 CURVE",
"558 336 OFFCURVE",
"555 333 OFFCURVE",
"550 325 CURVE SMOOTH",
"531 295 OFFCURVE",
"514 271 OFFCURVE",
"499 251 CURVE",
"517 333 OFFCURVE",
"529 409 OFFCURVE",
"536 479 CURVE",
"600 444 OFFCURVE",
"649 416 OFFCURVE",
"680 397 CURVE SMOOTH",
"687 393 OFFCURVE",
"693 391 OFFCURVE",
"698 391 CURVE SMOOTH",
"708 391 OFFCURVE",
"712 397 OFFCURVE",
"712 408 CURVE SMOOTH",
"712 412 LINE SMOOTH",
"712 523 OFFCURVE",
"649 584 OFFCURVE",
"540 593 CURVE",
"539 632 OFFCURVE",
"535 652 OFFCURVE",
"529 652 CURVE SMOOTH",
"526 652 OFFCURVE",
"524 649 OFFCURVE",
"524 644 CURVE SMOOTH",
"524 638 OFFCURVE",
"524 630 OFFCURVE",
"525 618 CURVE SMOOTH",
"526 608 OFFCURVE",
"526 599 OFFCURVE",
"526 594 CURVE",
"466 597 OFFCURVE",
"402 581 OFFCURVE",
"334 550 CURVE",
"309 553 OFFCURVE",
"287 555 OFFCURVE",
"271 555 CURVE SMOOTH",
"219 555 OFFCURVE",
"167 547 OFFCURVE",
"116 532 CURVE SMOOTH",
"46 511 OFFCURVE",
"10 480 OFFCURVE",
"10 441 CURVE SMOOTH",
"10 432 OFFCURVE",
"13 423 OFFCURVE",
"17 413 CURVE SMOOTH",
"23 401 OFFCURVE",
"29 395 OFFCURVE",
"36 395 CURVE SMOOTH",
"42 395 OFFCURVE",
"45 400 OFFCURVE",
"45 409 CURVE SMOOTH",
"45 410 OFFCURVE",
"45 413 OFFCURVE",
"45 416 CURVE",
"44 419 OFFCURVE",
"44 422 OFFCURVE",
"44 424 CURVE SMOOTH",
"44 451 OFFCURVE",
"63 477 OFFCURVE",
"102 500 CURVE SMOOTH",
"129 516 OFFCURVE",
"161 528 OFFCURVE",
"197 537 CURVE SMOOTH",
"224 543 OFFCURVE",
"252 546 OFFCURVE",
"277 546 CURVE SMOOTH",
"288 546 OFFCURVE",
"302 545 OFFCURVE",
"320 543 CURVE",
"243 504 OFFCURVE",
"176 444 OFFCURVE",
"120 363 CURVE SMOOTH",
"61 277 OFFCURVE",
"31 193 OFFCURVE",
"31 110 CURVE SMOOTH",
"31 69 OFFCURVE",
"40 37 OFFCURVE",
"57 10 CURVE SMOOTH",
"77 -20 OFFCURVE",
"105 -36 OFFCURVE",
"143 -36 CURVE SMOOTH",
"196 -36 OFFCURVE",
"257 -9 OFFCURVE",
"328 48 CURVE SMOOTH",
"385 92 OFFCURVE",
"434 142 OFFCURVE",
"475 197 CURVE",
"455 110 OFFCURVE",
"430 31 OFFCURVE",
"404 -38 CURVE SMOOTH",
"363 -143 OFFCURVE",
"321 -210 OFFCURVE",
"276 -238 CURVE SMOOTH",
"268 -243 OFFCURVE",
"256 -248 OFFCURVE",
"241 -251 CURVE SMOOTH",
"237 -252 OFFCURVE",
"234 -255 OFFCURVE",
"234 -257 CURVE SMOOTH",
"234 -262 OFFCURVE",
"237 -264 OFFCURVE",
"243 -264 CURVE SMOOTH"
);
},
{
closed = 1;
nodes = (
"283 -305 OFFCURVE",
"310 -299 OFFCURVE",
"333 -287 CURVE SMOOTH",
"409 -246 OFFCURVE",
"472 -162 OFFCURVE",
"523 -33 CURVE SMOOTH",
"545 24 OFFCURVE",
"577 129 OFFCURVE",
"615 283 CURVE SMOOTH",
"629 341 OFFCURVE",
"640 371 OFFCURVE",
"650 373 CURVE",
"651 373 OFFCURVE",
"652 373 OFFCURVE",
"652 373 CURVE",
"644 380 OFFCURVE",
"635 384 OFFCURVE",
"622 384 CURVE SMOOTH",
"595 384 OFFCURVE",
"567 335 OFFCURVE",
"540 239 CURVE SMOOTH",
"485 48 OFFCURVE",
"457 -48 OFFCURVE",
"456 -48 CURVE",
"415 -162 OFFCURVE",
"367 -233 OFFCURVE",
"312 -263 CURVE SMOOTH",
"287 -276 OFFCURVE",
"260 -283 OFFCURVE",
"233 -283 CURVE SMOOTH",
"175 -283 OFFCURVE",
"132 -252 OFFCURVE",
"105 -190 CURVE SMOOTH",
"104 -186 OFFCURVE",
"102 -184 OFFCURVE",
"101 -184 CURVE SMOOTH",
"99 -184 OFFCURVE",
"98 -185 OFFCURVE",
"98 -188 CURVE SMOOTH",
"98 -218 OFFCURVE",
"117 -244 OFFCURVE",
"156 -270 CURVE SMOOTH",
"191 -294 OFFCURVE",
"224 -305 OFFCURVE",
"256 -305 CURVE SMOOTH"
);
},
{
closed = 1;
nodes = (
"137 10 OFFCURVE",
"111 25 OFFCURVE",
"94 53 CURVE SMOOTH",
"80 77 OFFCURVE",
"72 106 OFFCURVE",
"72 143 CURVE SMOOTH",
"72 223 OFFCURVE",
"99 301 OFFCURVE",
"152 378 CURVE SMOOTH",
"203 453 OFFCURVE",
"266 507 OFFCURVE",
"339 541 CURVE",
"401 532 OFFCURVE",
"462 513 OFFCURVE",
"523 485 CURVE",
"516 405 OFFCURVE",
"503 320 OFFCURVE",
"483 231 CURVE",
"440 178 OFFCURVE",
"392 132 OFFCURVE",
"343 92 CURVE SMOOTH",
"276 38 OFFCURVE",
"219 10 OFFCURVE",
"172 10 CURVE SMOOTH"
);
},
{
closed = 1;
nodes = (
"478 525 OFFCURVE",
"422 538 OFFCURVE",
"355 547 CURVE",
"392 561 OFFCURVE",
"433 569 OFFCURVE",
"478 569 CURVE SMOOTH",
"495 569 OFFCURVE",
"511 568 OFFCURVE",
"526 566 CURVE",
"526 548 OFFCURVE",
"525 530 OFFCURVE",
"524 511 CURVE"
);
},
{
closed = 1;
nodes = (
"670 447 OFFCURVE",
"666 448 OFFCURVE",
"660 451 CURVE SMOOTH",
"613 477 OFFCURVE",
"572 495 OFFCURVE",
"538 506 CURVE",
"539 527 OFFCURVE",
"540 546 OFFCURVE",
"541 563 CURVE",
"604 550 OFFCURVE",
"649 523 OFFCURVE",
"674 480 CURVE SMOOTH",
"678 472 OFFCURVE",
"680 465 OFFCURVE",
"680 457 CURVE SMOOTH",
"680 450 OFFCURVE",
"677 447 OFFCURVE",
"673 447 CURVE SMOOTH"
);
}
);
width = 681;
}
);
note = G;
unicode = 0047;
},
{
glyphname = H;
lastChange = "2021-05-25 21:23:40 +0000";
layers = (
{
layerId = "89156F97-8AE0-4F29-8E8C-D321EE696556";
paths = (
{
closed = 1;
nodes = (
"-20 -219 OFFCURVE",
"66 -169 OFFCURVE",
"161 -69 CURVE",
"188 -78 OFFCURVE",
"208 -82 OFFCURVE",
"220 -82 CURVE SMOOTH",
"227 -82 OFFCURVE",
"230 -80 OFFCURVE",
"230 -77 CURVE SMOOTH",
"230 -74 OFFCURVE",
"227 -73 OFFCURVE",
"222 -72 CURVE SMOOTH",
"195 -67 OFFCURVE",
"177 -63 OFFCURVE",
"169 -61 CURVE",
"235 10 OFFCURVE",
"293 91 OFFCURVE",
"342 181 CURVE",
"381 188 OFFCURVE",
"432 193 OFFCURVE",
"495 196 CURVE SMOOTH",
"528 198 OFFCURVE",
"555 199 OFFCURVE",
"575 200 CURVE",
"589 202 OFFCURVE",
"596 206 OFFCURVE",
"596 212 CURVE SMOOTH",
"596 214 OFFCURVE",
"594 215 OFFCURVE",
"590 215 CURVE SMOOTH",
"581 215 OFFCURVE",
"570 215 OFFCURVE",
"556 214 CURVE SMOOTH",
"538 213 OFFCURVE",
"526 212 OFFCURVE",
"521 212 CURVE SMOOTH",
"444 210 OFFCURVE",
"388 207 OFFCURVE",
"353 204 CURVE",
"408 311 OFFCURVE",
"435 396 OFFCURVE",
"435 462 CURVE SMOOTH",
"435 540 OFFCURVE",
"401 586 OFFCURVE",
"333 600 CURVE",
"333 630 OFFCURVE",
"331 644 OFFCURVE",
"328 644 CURVE SMOOTH",
"324 644 OFFCURVE",
"322 641 OFFCURVE",
"322 637 CURVE SMOOTH",
"322 634 OFFCURVE",
"322 628 OFFCURVE",
"322 620 CURVE SMOOTH",
"322 613 OFFCURVE",
"322 607 OFFCURVE",
"322 602 CURVE",
"313 603 OFFCURVE",
"302 604 OFFCURVE",
"292 604 CURVE SMOOTH",
"260 604 OFFCURVE",
"228 599 OFFCURVE",
"195 588 CURVE SMOOTH",
"152 574 OFFCURVE",
"115 553 OFFCURVE",
"82 525 CURVE SMOOTH",
"40 491 OFFCURVE",
"19 455 OFFCURVE",
"19 417 CURVE SMOOTH",
"19 390 OFFCURVE",
"32 363 OFFCURVE",
"58 338 CURVE SMOOTH",
"79 318 OFFCURVE",
"105 302 OFFCURVE",
"134 290 CURVE",
"135 290 OFFCURVE",
"137 290 OFFCURVE",
"138 290 CURVE SMOOTH",
"143 290 OFFCURVE",
"145 293 OFFCURVE",
"145 297 CURVE SMOOTH",
"145 300 OFFCURVE",
"144 302 OFFCURVE",
"142 303 CURVE",
"85 333 OFFCURVE",
"56 368 OFFCURVE",
"56 408 CURVE SMOOTH",
"56 453 OFFCURVE",
"84 497 OFFCURVE",
"138 538 CURVE SMOOTH",
"189 577 OFFCURVE",
"238 596 OFFCURVE",
"286 596 CURVE SMOOTH",
"299 596 OFFCURVE",
"312 594 OFFCURVE",
"322 590 CURVE",
"317 464 OFFCURVE",
"282 327 OFFCURVE",
"215 181 CURVE",
"173 170 OFFCURVE",
"136 154 OFFCURVE",
"104 134 CURVE SMOOTH",
"59 106 OFFCURVE",
"36 76 OFFCURVE",
"36 43 CURVE SMOOTH",
"36 15 OFFCURVE",
"52 -10 OFFCURVE",
"85 -34 CURVE",
"38 -92 OFFCURVE",
"-6 -128 OFFCURVE",
"-48 -141 CURVE SMOOTH",
"-59 -143 OFFCURVE",
"-67 -145 OFFCURVE",
"-73 -145 CURVE",
"-78 -147 OFFCURVE",
"-81 -149 OFFCURVE",
"-81 -152 CURVE SMOOTH",
"-81 -157 OFFCURVE",
"-78 -159 OFFCURVE",
"-72 -159 CURVE SMOOTH",
"-24 -159 OFFCURVE",
"31 -119 OFFCURVE",
"94 -40 CURVE",
"105 -47 OFFCURVE",
"117 -53 OFFCURVE",
"129 -58 CURVE",
"47 -157 OFFCURVE",
"-29 -206 OFFCURVE",
"-97 -206 CURVE SMOOTH",
"-124 -206 OFFCURVE",
"-139 -194 OFFCURVE",
"-139 -169 CURVE SMOOTH",
"-139 -166 OFFCURVE",
"-139 -162 OFFCURVE",
"-139 -159 CURVE",
"-144 -163 OFFCURVE",
"-147 -173 OFFCURVE",
"-147 -185 CURVE SMOOTH",
"-147 -208 OFFCURVE",
"-130 -219 OFFCURVE",
"-97 -219 CURVE SMOOTH"
);
},
{
closed = 1;
nodes = (
"83 -7 OFFCURVE",
"76 9 OFFCURVE",
"76 25 CURVE SMOOTH",
"76 67 OFFCURVE",
"116 105 OFFCURVE",
"195 140 CURVE",
"163 78 OFFCURVE",
"131 25 OFFCURVE",
"96 -21 CURVE"
);
},
{
closed = 1;
nodes = (
"124 -43 OFFCURVE",
"112 -36 OFFCURVE",
"104 -28 CURVE",
"141 21 OFFCURVE",
"176 79 OFFCURVE",
"209 146 CURVE",
"231 155 OFFCURVE",
"254 162 OFFCURVE",
"277 168 CURVE",
"234 86 OFFCURVE",
"187 13 OFFCURVE",
"137 -48 CURVE"
);
},
{
closed = 1;
nodes = (
"297 335 OFFCURVE",
"333 469 OFFCURVE",
"333 585 CURVE",
"367 569 OFFCURVE",
"383 536 OFFCURVE",
"383 484 CURVE SMOOTH",
"383 414 OFFCURVE",
"352 318 OFFCURVE",
"293 197 CURVE",
"269 194 OFFCURVE",
"248 189 OFFCURVE",
"228 184 CURVE"
);
},
{
closed = 1;
nodes = (
"697 -172 OFFCURVE",
"732 -160 OFFCURVE",
"769 -135 CURVE SMOOTH",
"801 -113 OFFCURVE",
"827 -86 OFFCURVE",
"848 -55 CURVE SMOOTH",
"850 -52 OFFCURVE",
"851 -50 OFFCURVE",
"851 -48 CURVE SMOOTH",
"851 -48 OFFCURVE",
"850 -48 OFFCURVE",
"849 -47 CURVE",
"849 -47 OFFCURVE",
"839 -56 OFFCURVE",
"819 -75 CURVE SMOOTH",
"795 -98 OFFCURVE",
"775 -116 OFFCURVE",
"756 -129 CURVE SMOOTH",
"729 -148 OFFCURVE",
"705 -158 OFFCURVE",
"686 -158 CURVE SMOOTH",
"638 -158 OFFCURVE",
"615 -119 OFFCURVE",
"615 -41 CURVE SMOOTH",
"615 17 OFFCURVE",
"629 95 OFFCURVE",
"657 195 CURVE SMOOTH",
"675 253 OFFCURVE",
"700 333 OFFCURVE",
"735 433 CURVE SMOOTH",
"762 510 OFFCURVE",
"778 559 OFFCURVE",
"783 578 CURVE SMOOTH",
"784 582 OFFCURVE",
"785 586 OFFCURVE",
"785 590 CURVE SMOOTH",
"785 599 OFFCURVE",
"783 603 OFFCURVE",
"778 603 CURVE SMOOTH",
"773 603 OFFCURVE",
"769 596 OFFCURVE",
"763 580 CURVE SMOOTH",
"745 535 OFFCURVE",
"732 500 OFFCURVE",
"722 477 CURVE SMOOTH",
"649 300 OFFCURVE",
"609 204 OFFCURVE",
"602 186 CURVE SMOOTH",
"568 90 OFFCURVE",
"551 13 OFFCURVE",
"551 -43 CURVE SMOOTH",
"551 -129 OFFCURVE",
"589 -172 OFFCURVE",
"664 -172 CURVE SMOOTH"
);
}
);
width = 705;
}
);
note = H;
unicode = 0048;
},
{
glyphname = I;
lastChange = "2021-05-25 21:23:40 +0000";
layers = (
{
anchors = (
{
name = bottom;
position = "{159, -139}";
},
{
name = ogonek;
position = "{165, -138}";
},
{
name = top;
position = "{659, 576}";
},
{
name = topleft;
position = "{20, 701}";
}
);
layerId = "89156F97-8AE0-4F29-8E8C-D321EE696556";
paths = (
{
closed = 1;
nodes = (
"257 -142 OFFCURVE",
"335 -99 OFFCURVE",
"409 -11 CURVE SMOOTH",
"510 105 OFFCURVE",
"587 258 OFFCURVE",
"642 447 CURVE SMOOTH",
"657 501 OFFCURVE",
"665 539 OFFCURVE",
"665 561 CURVE SMOOTH",
"665 571 OFFCURVE",
"659 576 OFFCURVE",
"648 576 CURVE SMOOTH",
"624 576 OFFCURVE",
"587 562 OFFCURVE",
"539 535 CURVE",
"544 575 OFFCURVE",
"547 612 OFFCURVE",
"547 645 CURVE SMOOTH",
"547 680 OFFCURVE",
"545 699 OFFCURVE",
"542 701 CURVE",
"539 700 OFFCURVE",
"537 697 OFFCURVE",
"537 694 CURVE SMOOTH",
"537 636 OFFCURVE",
"532 580 OFFCURVE",
"523 525 CURVE",
"481 500 OFFCURVE",
"443 472 OFFCURVE",
"409 440 CURVE SMOOTH",
"362 396 OFFCURVE",
"339 357 OFFCURVE",
"339 324 CURVE SMOOTH",
"339 312 OFFCURVE",
"344 301 OFFCURVE",
"352 291 CURVE SMOOTH",
"361 281 OFFCURVE",
"371 276 OFFCURVE",
"383 276 CURVE SMOOTH",
"386 276 OFFCURVE",
"388 277 OFFCURVE",
"388 278 CURVE SMOOTH",
"388 279 OFFCURVE",
"386 281 OFFCURVE",
"383 283 CURVE SMOOTH",
"372 290 OFFCURVE",
"368 298 OFFCURVE",
"368 311 CURVE SMOOTH",
"368 328 OFFCURVE",
"376 352 OFFCURVE",
"393 382 CURVE SMOOTH",
"409 409 OFFCURVE",
"424 430 OFFCURVE",
"439 446 CURVE SMOOTH",
"459 466 OFFCURVE",
"485 485 OFFCURVE",
"520 506 CURVE",
"509 445 OFFCURVE",
"493 382 OFFCURVE",
"472 320 CURVE SMOOTH",
"445 238 OFFCURVE",
"411 163 OFFCURVE",
"372 97 CURVE SMOOTH",
"319 8 OFFCURVE",
"265 -50 OFFCURVE",
"209 -76 CURVE",
"189 -82 OFFCURVE",
"174 -86 OFFCURVE",
"164 -87 CURVE SMOOTH",
"159 -88 OFFCURVE",
"156 -91 OFFCURVE",
"156 -94 CURVE SMOOTH",
"156 -99 OFFCURVE",
"159 -101 OFFCURVE",
"164 -101 CURVE SMOOTH",
"188 -101 OFFCURVE",
"217 -90 OFFCURVE",
"248 -69 CURVE SMOOTH",
"320 -22 OFFCURVE",
"384 67 OFFCURVE",
"441 196 CURVE SMOOTH",
"487 301 OFFCURVE",
"520 409 OFFCURVE",
"537 516 CURVE",
"583 542 OFFCURVE",
"611 556 OFFCURVE",
"619 556 CURVE SMOOTH",
"620 556 OFFCURVE",
"620 556 OFFCURVE",
"620 555 CURVE SMOOTH",
"620 548 OFFCURVE",
"614 524 OFFCURVE",
"600 485 CURVE SMOOTH",
"542 301 OFFCURVE",
"471 148 OFFCURVE",
"389 27 CURVE SMOOTH",
"318 -77 OFFCURVE",
"248 -129 OFFCURVE",
"179 -129 CURVE SMOOTH",
"142 -129 OFFCURVE",
"111 -116 OFFCURVE",
"88 -88 CURVE SMOOTH",
"67 -63 OFFCURVE",
"56 -31 OFFCURVE",
"56 7 CURVE SMOOTH",
"56 51 OFFCURVE",
"68 99 OFFCURVE",
"93 149 CURVE SMOOTH",
"97 158 OFFCURVE",
"99 163 OFFCURVE",
"99 168 CURVE SMOOTH",
"99 171 OFFCURVE",
"99 173 OFFCURVE",
"98 174 CURVE",
"105 173 OFFCURVE",
"113 173 OFFCURVE",
"122 173 CURVE SMOOTH",
"132 173 OFFCURVE",
"147 173 OFFCURVE",
"168 175 CURVE SMOOTH",
"188 175 OFFCURVE",
"203 176 OFFCURVE",
"214 176 CURVE SMOOTH",
"283 176 OFFCURVE",
"318 164 OFFCURVE",
"318 142 CURVE SMOOTH",
"318 140 OFFCURVE",
"314 135 OFFCURVE",
"308 126 CURVE SMOOTH",
"301 119 OFFCURVE",
"297 114 OFFCURVE",
"297 111 CURVE SMOOTH",
"297 110 OFFCURVE",
"298 109 OFFCURVE",
"301 109 CURVE",
"323 122 OFFCURVE",
"333 136 OFFCURVE",
"333 154 CURVE SMOOTH",
"333 178 OFFCURVE",
"320 193 OFFCURVE",
"294 200 CURVE SMOOTH",
"279 204 OFFCURVE",
"257 206 OFFCURVE",
"225 206 CURVE SMOOTH",
"209 206 OFFCURVE",
"186 205 OFFCURVE",
"155 203 CURVE SMOOTH",
"124 201 OFFCURVE",
"102 200 OFFCURVE",
"86 200 CURVE SMOOTH",
"84 200 OFFCURVE",
"80 200 OFFCURVE",
"75 201 CURVE SMOOTH",
"70 202 OFFCURVE",
"67 202 OFFCURVE",
"65 202 CURVE SMOOTH",
"58 202 OFFCURVE",
"49 200 OFFCURVE",
"40 194 CURVE SMOOTH",
"29 188 OFFCURVE",
"23 182 OFFCURVE",
"23 176 CURVE SMOOTH",
"23 171 OFFCURVE",
"29 168 OFFCURVE",
"42 165 CURVE SMOOTH",
"54 163 OFFCURVE",
"61 161 OFFCURVE",
"61 158 CURVE SMOOTH",
"61 157 OFFCURVE",
"60 154 OFFCURVE",
"58 151 CURVE SMOOTH",
"43 122 OFFCURVE",
"35 83 OFFCURVE",
"35 32 CURVE SMOOTH",
"35 -18 OFFCURVE",
"46 -58 OFFCURVE",
"67 -89 CURVE SMOOTH",
"91 -124 OFFCURVE",
"127 -142 OFFCURVE",
"176 -142 CURVE SMOOTH"
);
}
);
width = 631;
}
);
note = I;
unicode = 0049;
},
{
glyphname = J;
lastChange = "2021-05-25 21:23:40 +0000";
layers = (
{
layerId = "89156F97-8AE0-4F29-8E8C-D321EE696556";
paths = (
{
closed = 1;
nodes = (
"47 -230 OFFCURVE",
"80 -222 OFFCURVE",
"111 -205 CURVE SMOOTH",
"196 -161 OFFCURVE",
"268 -93 OFFCURVE",
"328 -4 CURVE SMOOTH",
"374 66 OFFCURVE",
"419 155 OFFCURVE",
"456 267 CURVE SMOOTH",
"487 361 OFFCURVE",
"516 457 OFFCURVE",
"546 553 CURVE",
"597 561 OFFCURVE",
"635 568 OFFCURVE",
"660 573 CURVE SMOOTH",
"691 580 OFFCURVE",
"706 593 OFFCURVE",
"706 612 CURVE SMOOTH",
"706 628 OFFCURVE",
"696 641 OFFCURVE",
"678 651 CURVE SMOOTH",
"663 658 OFFCURVE",
"646 662 OFFCURVE",
"628 662 CURVE SMOOTH",
"589 662 OFFCURVE",
"559 655 OFFCURVE",
"538 637 CURVE SMOOTH",
"521 623 OFFCURVE",
"504 596 OFFCURVE",
"488 557 CURVE",
"459 550 OFFCURVE",
"430 543 OFFCURVE",
"404 537 CURVE",
"405 555 OFFCURVE",
"406 572 OFFCURVE",
"406 588 CURVE SMOOTH",
"406 623 OFFCURVE",
"404 642 OFFCURVE",
"400 643 CURVE",
"396 642 OFFCURVE",
"394 640 OFFCURVE",
"394 637 CURVE SMOOTH",
"394 597 OFFCURVE",
"392 562 OFFCURVE",
"390 533 CURVE",
"138 465 OFFCURVE",
"11 357 OFFCURVE",
"11 212 CURVE SMOOTH",
"11 168 OFFCURVE",
"29 134 OFFCURVE",
"65 109 CURVE SMOOTH",
"96 87 OFFCURVE",
"135 77 OFFCURVE",
"181 77 CURVE SMOOTH",
"212 77 OFFCURVE",
"227 81 OFFCURVE",
"227 87 CURVE SMOOTH",
"227 88 OFFCURVE",
"226 89 OFFCURVE",
"223 89 CURVE SMOOTH",
"219 89 OFFCURVE",
"214 88 OFFCURVE",
"206 88 CURVE",
"200 86 OFFCURVE",
"194 86 OFFCURVE",
"191 86 CURVE SMOOTH",
"149 86 OFFCURVE",
"116 97 OFFCURVE",
"90 118 CURVE SMOOTH",
"62 141 OFFCURVE",
"48 171 OFFCURVE",
"48 212 CURVE SMOOTH",
"48 348 OFFCURVE",
"161 449 OFFCURVE",
"388 517 CURVE",
"380 451 OFFCURVE",
"367 385 OFFCURVE",
"347 315 CURVE SMOOTH",
"320 225 OFFCURVE",
"286 142 OFFCURVE",
"245 66 CURVE SMOOTH",
"190 -37 OFFCURVE",
"132 -103 OFFCURVE",
"70 -131 CURVE SMOOTH",
"60 -136 OFFCURVE",
"44 -141 OFFCURVE",
"22 -144 CURVE SMOOTH",
"17 -145 OFFCURVE",
"14 -148 OFFCURVE",
"14 -151 CURVE SMOOTH",
"14 -156 OFFCURVE",
"17 -158 OFFCURVE",
"23 -158 CURVE SMOOTH",
"48 -158 OFFCURVE",
"79 -145 OFFCURVE",
"113 -122 CURVE SMOOTH",
"189 -68 OFFCURVE",
"256 29 OFFCURVE",
"313 170 CURVE SMOOTH",
"362 292 OFFCURVE",
"391 409 OFFCURVE",
"402 521 CURVE",
"428 527 OFFCURVE",
"454 534 OFFCURVE",
"482 541 CURVE",
"448 428 OFFCURVE",
"424 342 OFFCURVE",
"407 285 CURVE SMOOTH",
"371 165 OFFCURVE",
"338 80 OFFCURVE",
"309 28 CURVE SMOOTH",
"262 -54 OFFCURVE",
"198 -118 OFFCURVE",
"115 -161 CURVE SMOOTH",
"76 -181 OFFCURVE",
"37 -191 OFFCURVE",
"-4 -191 CURVE SMOOTH",
"-71 -191 OFFCURVE",
"-119 -164 OFFCURVE",
"-145 -112 CURVE",
"-152 -96 OFFCURVE",
"-157 -85 OFFCURVE",
"-159 -76 CURVE SMOOTH",
"-161 -71 OFFCURVE",
"-162 -68 OFFCURVE",
"-163 -68 CURVE SMOOTH",
"-166 -68 OFFCURVE",
"-167 -70 OFFCURVE",
"-167 -75 CURVE SMOOTH",
"-167 -115 OFFCURVE",
"-146 -151 OFFCURVE",
"-106 -183 CURVE SMOOTH",
"-68 -214 OFFCURVE",
"-29 -230 OFFCURVE",
"12 -230 CURVE SMOOTH"
);
},
{
closed = 1;
nodes = (
"584 623 OFFCURVE",
"614 651 OFFCURVE",
"644 651 CURVE SMOOTH",
"680 651 OFFCURVE",
"698 639 OFFCURVE",
"698 618 CURVE SMOOTH",
"698 605 OFFCURVE",
"690 597 OFFCURVE",
"673 590 CURVE",
"621 579 OFFCURVE",
"582 571 OFFCURVE",
"555 568 CURVE"
);
}
);
width = 478;
}
);
note = J;
unicode = 004A;
},
{
glyphname = K;
lastChange = "2021-05-25 21:23:40 +0000";
layers = (
{
anchors = (
{
name = bottom;
position = "{534, -132}";
},
{
name = top;
position = "{765, 581}";
}
);
layerId = "89156F97-8AE0-4F29-8E8C-D321EE696556";
paths = (
{
closed = 1;
nodes = (
"937 -198 OFFCURVE",
"961 -187 OFFCURVE",
"979 -167 CURVE SMOOTH",
"998 -147 OFFCURVE",
"1007 -122 OFFCURVE",
"1007 -90 CURVE SMOOTH",
"1007 -48 OFFCURVE",
"992 -9 OFFCURVE",
"960 29 CURVE SMOOTH",
"957 33 OFFCURVE",
"953 35 OFFCURVE",
"950 35 CURVE SMOOTH",
"948 35 OFFCURVE",
"947 34 OFFCURVE",
"947 32 CURVE SMOOTH",
"947 31 OFFCURVE",
"948 29 OFFCURVE",
"950 27 CURVE SMOOTH",
"978 -11 OFFCURVE",
"991 -51 OFFCURVE",
"991 -94 CURVE SMOOTH",
"991 -143 OFFCURVE",
"973 -166 OFFCURVE",
"937 -166 CURVE SMOOTH",
"914 -166 OFFCURVE",
"885 -154 OFFCURVE",
"851 -131 CURVE SMOOTH",
"819 -109 OFFCURVE",
"772 -61 OFFCURVE",
"714 16 CURVE SMOOTH",
"672 72 OFFCURVE",
"631 129 OFFCURVE",
"590 185 CURVE",
"650 292 OFFCURVE",
"705 371 OFFCURVE",
"754 426 CURVE SMOOTH",
"833 511 OFFCURVE",
"916 554 OFFCURVE",
"1001 554 CURVE SMOOTH",
"1049 554 OFFCURVE",
"1090 542 OFFCURVE",
"1123 515 CURVE SMOOTH",
"1159 486 OFFCURVE",
"1177 449 OFFCURVE",
"1177 403 CURVE SMOOTH",
"1177 391 OFFCURVE",
"1178 386 OFFCURVE",
"1180 386 CURVE SMOOTH",
"1183 386 OFFCURVE",
"1185 392 OFFCURVE",
"1185 407 CURVE SMOOTH",
"1185 457 OFFCURVE",
"1169 501 OFFCURVE",
"1136 536 CURVE SMOOTH",
"1104 571 OFFCURVE",
"1063 589 OFFCURVE",
"1013 589 CURVE SMOOTH",
"919 589 OFFCURVE",
"831 543 OFFCURVE",
"750 452 CURVE SMOOTH",
"698 394 OFFCURVE",
"643 309 OFFCURVE",
"583 194 CURVE",
"575 206 OFFCURVE",
"566 217 OFFCURVE",
"558 226 CURVE",
"580 275 OFFCURVE",
"602 331 OFFCURVE",
"624 392 CURVE SMOOTH",
"652 472 OFFCURVE",
"666 529 OFFCURVE",
"666 564 CURVE SMOOTH",
"666 571 OFFCURVE",
"665 576 OFFCURVE",
"663 577 CURVE SMOOTH",
"656 581 OFFCURVE",
"637 584 OFFCURVE",
"607 584 CURVE SMOOTH",
"523 584 OFFCURVE",
"441 569 OFFCURVE",
"359 540 CURVE SMOOTH",
"286 513 OFFCURVE",
"250 485 OFFCURVE",
"250 455 CURVE SMOOTH",
"250 445 OFFCURVE",
"257 432 OFFCURVE",
"269 416 CURVE SMOOTH",
"280 401 OFFCURVE",
"291 393 OFFCURVE",
"298 393 CURVE SMOOTH",
"300 393 OFFCURVE",
"301 394 OFFCURVE",
"301 395 CURVE",
"301 395 OFFCURVE",
"297 400 OFFCURVE",
"291 409 CURVE SMOOTH",
"284 419 OFFCURVE",
"281 429 OFFCURVE",
"281 440 CURVE SMOOTH",
"281 481 OFFCURVE",
"324 515 OFFCURVE",
"410 540 CURVE SMOOTH",
"474 559 OFFCURVE",
"535 567 OFFCURVE",
"591 567 CURVE SMOOTH",
"599 567 OFFCURVE",
"606 567 OFFCURVE",
"614 566 CURVE",
"592 461 OFFCURVE",
"561 362 OFFCURVE",
"523 270 CURVE",
"487 310 OFFCURVE",
"462 330 OFFCURVE",
"446 330 CURVE SMOOTH",
"440 330 OFFCURVE",
"436 328 OFFCURVE",
"433 325 CURVE",
"436 322 OFFCURVE",
"438 320 OFFCURVE",
"441 318 CURVE SMOOTH",
"470 301 OFFCURVE",
"495 279 OFFCURVE",
"516 256 CURVE",
"481 175 OFFCURVE",
"441 102 OFFCURVE",
"396 37 CURVE SMOOTH",
"334 -53 OFFCURVE",
"276 -106 OFFCURVE",
"220 -123 CURVE SMOOTH",
"199 -129 OFFCURVE",
"178 -132 OFFCURVE",
"160 -132 CURVE SMOOTH",
"119 -132 OFFCURVE",
"87 -117 OFFCURVE",
"66 -87 CURVE SMOOTH",
"46 -61 OFFCURVE",
"36 -27 OFFCURVE",
"36 15 CURVE SMOOTH",
"36 64 OFFCURVE",
"49 109 OFFCURVE",
"75 150 CURVE SMOOTH",
"105 198 OFFCURVE",
"143 221 OFFCURVE",
"189 221 CURVE SMOOTH",
"209 221 OFFCURVE",
"223 216 OFFCURVE",
"230 204 CURVE SMOOTH",
"234 199 OFFCURVE",
"237 192 OFFCURVE",
"239 185 CURVE",
"241 186 OFFCURVE",
"242 188 OFFCURVE",
"242 192 CURVE SMOOTH",
"242 206 OFFCURVE",
"236 218 OFFCURVE",
"221 226 CURVE SMOOTH",
"208 235 OFFCURVE",
"194 239 OFFCURVE",
"179 239 CURVE SMOOTH",
"125 239 OFFCURVE",
"83 217 OFFCURVE",
"48 173 CURVE SMOOTH",
"17 132 OFFCURVE",
"1 85 OFFCURVE",
"1 30 CURVE SMOOTH",
"1 -21 OFFCURVE",
"15 -63 OFFCURVE",
"45 -95 CURVE SMOOTH",
"74 -127 OFFCURVE",
"113 -143 OFFCURVE",
"163 -143 CURVE SMOOTH",
"307 -143 OFFCURVE",
"436 -26 OFFCURVE",
"550 209 CURVE",
"557 198 OFFCURVE",
"564 185 OFFCURVE",
"571 171 CURVE",
"542 114 OFFCURVE",
"522 77 OFFCURVE",
"512 61 CURVE SMOOTH",
"483 12 OFFCURVE",
"457 -19 OFFCURVE",
"434 -32 CURVE SMOOTH",
"426 -37 OFFCURVE",
"414 -41 OFFCURVE",
"400 -43 CURVE SMOOTH",
"397 -43 OFFCURVE",
"395 -45 OFFCURVE",
"395 -48 CURVE SMOOTH",
"395 -54 OFFCURVE",
"400 -58 OFFCURVE",
"410 -58 CURVE SMOOTH",
"439 -58 OFFCURVE",
"481 -10 OFFCURVE",
"534 85 CURVE SMOOTH",
"577 162 LINE",
"603 109 OFFCURVE",
"628 55 OFFCURVE",
"656 3 CURVE SMOOTH",
"685 -52 OFFCURVE",
"724 -98 OFFCURVE",
"768 -135 CURVE SMOOTH",
"816 -177 OFFCURVE",
"863 -198 OFFCURVE",
"906 -198 CURVE SMOOTH"
);
}
);
width = 789;
}
);
note = K;
unicode = 004B;
},
{
glyphname = L;
lastChange = "2021-05-25 21:23:40 +0000";
layers = (
{
anchors = (
{
name = bottom;
position = "{350, -145}";
},
{
name = center;
position = "{278, 351}";
},
{
name = top;
position = "{781, 611}";
},
{
name = topright;
position = "{535, 701}";
}
);
layerId = "89156F97-8AE0-4F29-8E8C-D321EE696556";
paths = (
{
closed = 1;
nodes = (
"824 -190 OFFCURVE",
"861 -181 OFFCURVE",
"897 -162 CURVE SMOOTH",
"940 -139 OFFCURVE",
"961 -111 OFFCURVE",
"961 -76 CURVE SMOOTH",
"961 -64 OFFCURVE",
"957 -48 OFFCURVE",
"946 -30 CURVE SMOOTH",
"937 -12 OFFCURVE",
"926 -1 OFFCURVE",
"916 5 CURVE",
"939 -30 OFFCURVE",
"950 -60 OFFCURVE",
"950 -84 CURVE SMOOTH",
"950 -122 OFFCURVE",
"918 -141 OFFCURVE",
"852 -141 CURVE SMOOTH",
"787 -141 OFFCURVE",
"699 -122 OFFCURVE",
"591 -81 CURVE SMOOTH",
"505 -48 OFFCURVE",
"420 -14 OFFCURVE",
"334 19 CURVE",
"358 51 OFFCURVE",
"380 85 OFFCURVE",
"402 119 CURVE SMOOTH",
"419 146 OFFCURVE",
"428 160 OFFCURVE",
"428 160 CURVE",
"445 168 OFFCURVE",
"458 175 OFFCURVE",
"467 178 CURVE",
"490 188 OFFCURVE",
"511 200 OFFCURVE",
"532 210 CURVE SMOOTH",
"749 321 OFFCURVE",
"858 427 OFFCURVE",
"858 526 CURVE SMOOTH",
"858 550 OFFCURVE",
"851 571 OFFCURVE",
"837 587 CURVE SMOOTH",
"823 603 OFFCURVE",
"805 611 OFFCURVE",
"781 611 CURVE SMOOTH",
"667 611 OFFCURVE",
"562 504 OFFCURVE",
"469 291 CURVE SMOOTH",
"460 270 OFFCURVE",
"452 248 OFFCURVE",
"444 227 CURVE SMOOTH",
"430 194 OFFCURVE",
"421 174 OFFCURVE",
"415 167 CURVE",
"393 163 OFFCURVE",
"371 162 OFFCURVE",
"350 161 CURVE",
"364 188 OFFCURVE",
"380 221 OFFCURVE",
"399 261 CURVE SMOOTH",
"453 377 OFFCURVE",
"489 449 OFFCURVE",
"508 479 CURVE SMOOTH",
"565 568 OFFCURVE",
"625 613 OFFCURVE",
"689 613 CURVE SMOOTH",
"696 613 OFFCURVE",
"700 614 OFFCURVE",
"700 616 CURVE SMOOTH",
"700 618 OFFCURVE",
"696 619 OFFCURVE",
"689 619 CURVE SMOOTH",
"623 619 OFFCURVE",
"561 576 OFFCURVE",
"503 489 CURVE SMOOTH",
"480 455 OFFCURVE",
"442 383 OFFCURVE",
"390 272 CURVE SMOOTH",
"369 225 OFFCURVE",
"351 188 OFFCURVE",
"336 161 CURVE",
"282 162 OFFCURVE",
"236 176 OFFCURVE",
"197 201 CURVE SMOOTH",
"150 231 OFFCURVE",
"127 272 OFFCURVE",
"127 322 CURVE SMOOTH",
"127 369 OFFCURVE",
"148 399 OFFCURVE",
"190 414 CURVE",
"191 415 OFFCURVE",
"191 416 OFFCURVE",
"191 417 CURVE SMOOTH",
"191 419 OFFCURVE",
"190 420 OFFCURVE",
"188 420 CURVE SMOOTH",
"186 420 OFFCURVE",
"183 419 OFFCURVE",
"181 417 CURVE SMOOTH",
"124 387 OFFCURVE",
"96 345 OFFCURVE",
"96 293 CURVE SMOOTH",
"96 194 OFFCURVE",
"166 144 OFFCURVE",
"306 144 CURVE SMOOTH",
"314 144 OFFCURVE",
"321 144 OFFCURVE",
"328 145 CURVE",
"306 103 OFFCURVE",
"284 67 OFFCURVE",
"263 39 CURVE",
"199 59 OFFCURVE",
"147 68 OFFCURVE",
"108 68 CURVE SMOOTH",
"68 68 OFFCURVE",
"33 60 OFFCURVE",
"4 45 CURVE SMOOTH",
"-33 26 OFFCURVE",
"-51 -2 OFFCURVE",
"-51 -38 CURVE SMOOTH",
"-51 -65 OFFCURVE",
"-37 -87 OFFCURVE",
"-9 -107 CURVE SMOOTH",
"17 -125 OFFCURVE",
"45 -135 OFFCURVE",
"72 -135 CURVE SMOOTH",
"124 -135 OFFCURVE",
"170 -121 OFFCURVE",
"213 -94 CURVE SMOOTH",
"244 -74 OFFCURVE",
"281 -41 OFFCURVE",
"322 6 CURVE",
"350 -6 OFFCURVE",
"398 -31 OFFCURVE",
"469 -70 CURVE SMOOTH",
"540 -109 OFFCURVE",
"594 -136 OFFCURVE",
"632 -152 CURVE SMOOTH",
"693 -178 OFFCURVE",
"744 -190 OFFCURVE",
"785 -190 CURVE SMOOTH"
);
},
{
closed = 1;
nodes = (
"54 -109 OFFCURVE",
"29 -102 OFFCURVE",
"8 -87 CURVE SMOOTH",
"-18 -70 OFFCURVE",
"-31 -49 OFFCURVE",
"-31 -24 CURVE SMOOTH",
"-31 5 OFFCURVE",
"-14 27 OFFCURVE",
"20 43 CURVE SMOOTH",
"47 55 OFFCURVE",
"76 61 OFFCURVE",
"109 61 CURVE SMOOTH",
"146 61 OFFCURVE",
"195 51 OFFCURVE",
"257 31 CURVE",
"204 -37 OFFCURVE",
"146 -71 OFFCURVE",
"85 -71 CURVE SMOOTH",
"76 -71 OFFCURVE",
"71 -72 OFFCURVE",
"71 -74 CURVE SMOOTH",
"71 -77 OFFCURVE",
"76 -78 OFFCURVE",
"86 -78 CURVE SMOOTH",
"151 -78 OFFCURVE",
"212 -43 OFFCURVE",
"267 28 CURVE",
"287 21 OFFCURVE",
"301 15 OFFCURVE",
"311 9 CURVE",
"291 -19 OFFCURVE",
"257 -46 OFFCURVE",
"207 -71 CURVE SMOOTH",
"158 -97 OFFCURVE",
"116 -109 OFFCURVE",
"82 -109 CURVE SMOOTH"
);
},
{
closed = 1;
nodes = (
"309 25 OFFCURVE",
"294 29 OFFCURVE",
"274 36 CURVE",
"295 66 OFFCURVE",
"318 102 OFFCURVE",
"342 146 CURVE",
"363 147 OFFCURVE",
"385 150 OFFCURVE",
"408 153 CURVE",
"360 78 OFFCURVE",
"331 34 OFFCURVE",
"319 22 CURVE"
);
},
{
closed = 1;
nodes = (
"469 226 OFFCURVE",
"493 268 OFFCURVE",
"510 297 CURVE SMOOTH",
"621 488 OFFCURVE",
"715 582 OFFCURVE",
"788 582 CURVE SMOOTH",
"803 582 OFFCURVE",
"817 579 OFFCURVE",
"829 572 CURVE SMOOTH",
"842 565 OFFCURVE",
"847 554 OFFCURVE",
"847 540 CURVE SMOOTH",
"847 487 OFFCURVE",
"791 417 OFFCURVE",
"680 327 CURVE SMOOTH",
"580 246 OFFCURVE",
"499 196 OFFCURVE",
"436 174 CURVE"
);
}
);
width = 555;
}
);
note = L;
unicode = 004C;
},
{
glyphname = M;
lastChange = "2021-05-25 21:23:40 +0000";
layers = (
{
layerId = "89156F97-8AE0-4F29-8E8C-D321EE696556";
paths = (
{
closed = 1;
nodes = (
"612 -84 OFFCURVE",
"625 -74 OFFCURVE",
"645 -55 CURVE SMOOTH",
"671 -30 OFFCURVE",
"704 10 OFFCURVE",
"742 67 CURVE SMOOTH",
"748 75 OFFCURVE",
"785 136 OFFCURVE",
"856 247 CURVE SMOOTH",
"902 319 OFFCURVE",
"941 378 OFFCURVE",
"976 423 CURVE",
"936 279 OFFCURVE",
"916 175 OFFCURVE",
"916 109 CURVE SMOOTH",
"916 15 OFFCURVE",
"949 -32 OFFCURVE",
"1015 -32 CURVE SMOOTH",
"1061 -32 OFFCURVE",
"1112 19 OFFCURVE",
"1166 123 CURVE SMOOTH",
"1168 125 OFFCURVE",
"1169 128 OFFCURVE",
"1169 130 CURVE SMOOTH",
"1169 131 OFFCURVE",
"1168 132 OFFCURVE",
"1167 133 CURVE",
"1165 133 OFFCURVE",
"1163 131 OFFCURVE",
"1160 126 CURVE SMOOTH",
"1150 110 OFFCURVE",
"1143 99 OFFCURVE",
"1138 91 CURVE SMOOTH",
"1091 17 OFFCURVE",
"1052 -20 OFFCURVE",
"1022 -20 CURVE SMOOTH",
"985 -20 OFFCURVE",
"966 30 OFFCURVE",
"966 130 CURVE SMOOTH",
"966 194 OFFCURVE",
"978 302 OFFCURVE",
"1001 454 CURVE",
"1100 575 OFFCURVE",
"1186 636 OFFCURVE",
"1259 636 CURVE SMOOTH",
"1305 636 OFFCURVE",
"1329 614 OFFCURVE",
"1329 569 CURVE SMOOTH",
"1329 562 OFFCURVE",
"1327 554 OFFCURVE",
"1324 542 CURVE SMOOTH",
"1321 531 OFFCURVE",
"1320 523 OFFCURVE",
"1320 519 CURVE SMOOTH",
"1320 518 OFFCURVE",
"1320 517 OFFCURVE",
"1321 516 CURVE",
"1325 517 OFFCURVE",
"1329 528 OFFCURVE",
"1333 549 CURVE SMOOTH",
"1336 565 OFFCURVE",
"1337 579 OFFCURVE",
"1337 587 CURVE SMOOTH",
"1337 613 OFFCURVE",
"1331 633 OFFCURVE",
"1319 649 CURVE SMOOTH",
"1304 667 OFFCURVE",
"1285 675 OFFCURVE",
"1262 675 CURVE SMOOTH",
"1225 675 OFFCURVE",
"1178 653 OFFCURVE",
"1122 607 CURVE SMOOTH",
"1081 574 OFFCURVE",
"1043 536 OFFCURVE",
"1007 493 CURVE",
"1010 510 OFFCURVE",
"1011 521 OFFCURVE",
"1011 523 CURVE SMOOTH",
"1011 529 OFFCURVE",
"1010 532 OFFCURVE",
"1008 532 CURVE SMOOTH",
"1007 532 OFFCURVE",
"1000 512 OFFCURVE",
"990 472 CURVE",
"955 428 OFFCURVE",
"920 377 OFFCURVE",
"882 319 CURVE SMOOTH",
"861 286 OFFCURVE",
"827 233 OFFCURVE",
"784 159 CURVE SMOOTH",
"707 29 OFFCURVE",
"653 -44 OFFCURVE",
"623 -63 CURVE",
"653 -16 OFFCURVE",
"668 42 OFFCURVE",
"668 110 CURVE SMOOTH",
"668 124 OFFCURVE",
"667 136 OFFCURVE",
"665 148 CURVE SMOOTH",
"647 262 OFFCURVE",
"638 353 OFFCURVE",
"638 422 CURVE SMOOTH",
"638 515 OFFCURVE",
"654 569 OFFCURVE",
"685 585 CURVE SMOOTH",
"688 587 OFFCURVE",
"690 589 OFFCURVE",
"690 591 CURVE SMOOTH",
"690 592 OFFCURVE",
"689 593 OFFCURVE",
"688 593 CURVE SMOOTH",
"653 593 OFFCURVE",
"625 554 OFFCURVE",
"607 475 CURVE SMOOTH",
"595 421 OFFCURVE",
"588 368 OFFCURVE",
"588 316 CURVE SMOOTH",
"588 260 OFFCURVE",
"593 204 OFFCURVE",
"602 149 CURVE SMOOTH",
"616 75 OFFCURVE",
"622 23 OFFCURVE",
"622 -9 CURVE SMOOTH",
"622 -38 OFFCURVE",
"618 -58 OFFCURVE",
"611 -69 CURVE",
"606 -70 OFFCURVE",
"603 -73 OFFCURVE",
"603 -80 CURVE SMOOTH",
"603 -83 OFFCURVE",
"604 -84 OFFCURVE",
"605 -84 CURVE SMOOTH"
);
},
{
closed = 1;
nodes = (
"152 -137 OFFCURVE",
"225 -107 OFFCURVE",
"298 -48 CURVE SMOOTH",
"379 16 OFFCURVE",
"447 102 OFFCURVE",
"504 208 CURVE SMOOTH",
"564 320 OFFCURVE",
"595 425 OFFCURVE",
"595 523 CURVE SMOOTH",
"595 544 OFFCURVE",
"594 561 OFFCURVE",
"592 572 CURVE SMOOTH",
"590 580 OFFCURVE",
"586 583 OFFCURVE",
"580 583 CURVE SMOOTH",
"575 583 OFFCURVE",
"570 580 OFFCURVE",
"566 576 CURVE",
"559 573 OFFCURVE",
"548 571 OFFCURVE",
"536 568 CURVE",
"537 582 OFFCURVE",
"538 597 OFFCURVE",
"538 611 CURVE SMOOTH",
"538 631 OFFCURVE",
"537 649 OFFCURVE",
"535 665 CURVE SMOOTH",
"535 668 OFFCURVE",
"533 670 OFFCURVE",
"532 670 CURVE SMOOTH",
"527 670 OFFCURVE",
"525 667 OFFCURVE",
"525 662 CURVE SMOOTH",
"525 618 OFFCURVE",
"524 585 OFFCURVE",
"523 566 CURVE",
"471 559 OFFCURVE",
"420 552 OFFCURVE",
"369 543 CURVE SMOOTH",
"290 531 OFFCURVE",
"228 513 OFFCURVE",
"184 493 CURVE SMOOTH",
"124 466 OFFCURVE",
"94 432 OFFCURVE",
"94 391 CURVE SMOOTH",
"94 354 OFFCURVE",
"109 321 OFFCURVE",
"140 290 CURVE SMOOTH",
"170 259 OFFCURVE",
"203 244 OFFCURVE",
"240 244 CURVE SMOOTH",
"245 244 OFFCURVE",
"248 245 OFFCURVE",
"248 248 CURVE SMOOTH",
"248 249 OFFCURVE",
"246 250 OFFCURVE",
"242 251 CURVE SMOOTH",
"211 259 OFFCURVE",
"181 276 OFFCURVE",
"154 302 CURVE SMOOTH",
"124 331 OFFCURVE",
"110 361 OFFCURVE",
"110 391 CURVE SMOOTH",
"110 430 OFFCURVE",
"149 461 OFFCURVE",
"228 481 CURVE SMOOTH",
"259 488 OFFCURVE",
"315 496 OFFCURVE",
"394 504 CURVE SMOOTH",
"457 511 OFFCURVE",
"498 517 OFFCURVE",
"517 520 CURVE",
"506 453 OFFCURVE",
"488 387 OFFCURVE",
"463 319 CURVE SMOOTH",
"431 238 OFFCURVE",
"390 162 OFFCURVE",
"340 92 CURVE SMOOTH",
"277 5 OFFCURVE",
"215 -51 OFFCURVE",
"151 -75 CURVE",
"130 -81 OFFCURVE",
"115 -85 OFFCURVE",
"105 -86 CURVE SMOOTH",
"99 -86 OFFCURVE",
"96 -89 OFFCURVE",
"96 -93 CURVE SMOOTH",
"96 -98 OFFCURVE",
"100 -101 OFFCURVE",
"106 -101 CURVE SMOOTH",
"130 -101 OFFCURVE",
"157 -91 OFFCURVE",
"188 -73 CURVE SMOOTH",
"243 -41 OFFCURVE",
"298 14 OFFCURVE",
"353 92 CURVE SMOOTH",
"399 157 OFFCURVE",
"436 226 OFFCURVE",
"466 300 CURVE SMOOTH",
"499 377 OFFCURVE",
"521 451 OFFCURVE",
"531 523 CURVE",
"545 525 OFFCURVE",
"558 529 OFFCURVE",
"566 533 CURVE",
"567 527 OFFCURVE",
"567 522 OFFCURVE",
"567 516 CURVE SMOOTH",
"567 441 OFFCURVE",
"543 353 OFFCURVE",
"497 254 CURVE SMOOTH",
"448 150 OFFCURVE",
"390 64 OFFCURVE",
"320 -5 CURVE SMOOTH",
"240 -83 OFFCURVE",
"161 -122 OFFCURVE",
"82 -122 CURVE SMOOTH",
"61 -122 OFFCURVE",
"44 -114 OFFCURVE",
"31 -98 CURVE SMOOTH",
"19 -83 OFFCURVE",
"13 -65 OFFCURVE",
"13 -44 CURVE SMOOTH",
"13 -30 OFFCURVE",
"17 -15 OFFCURVE",
"24 1 CURVE SMOOTH",
"29 17 OFFCURVE",
"33 26 OFFCURVE",
"33 26 CURVE",
"33 29 OFFCURVE",
"32 30 OFFCURVE",
"30 30 CURVE SMOOTH",
"29 30 OFFCURVE",
"28 29 OFFCURVE",
"26 27 CURVE SMOOTH",
"5 -2 OFFCURVE",
"-6 -30 OFFCURVE",
"-6 -58 CURVE SMOOTH",
"-6 -82 OFFCURVE",
"2 -102 OFFCURVE",
"17 -116 CURVE SMOOTH",
"32 -130 OFFCURVE",
"52 -137 OFFCURVE",
"77 -137 CURVE SMOOTH"
);
}
);
width = 1150;
}
);
note = M;
unicode = 004D;
},
{
glyphname = N;
lastChange = "2021-05-25 21:23:40 +0000";
layers = (
{
anchors = (
{
name = bottom;
position = "{493, -83}";
},
{
name = top;
position = "{745, 635}";
}
);
layerId = "89156F97-8AE0-4F29-8E8C-D321EE696556";
paths = (
{
closed = 1;
nodes = (
"159 -137 OFFCURVE",
"233 -107 OFFCURVE",
"306 -48 CURVE SMOOTH",
"377 9 OFFCURVE",
"439 83 OFFCURVE",
"493 173 CURVE SMOOTH",
"546 263 OFFCURVE",
"580 353 OFFCURVE",
"596 443 CURVE",
"607 320 OFFCURVE",
"615 249 OFFCURVE",
"618 229 CURVE SMOOTH",
"631 141 OFFCURVE",
"652 74 OFFCURVE",
"681 28 CURVE",
"676 25 OFFCURVE",
"670 23 OFFCURVE",
"660 21 CURVE SMOOTH",
"654 20 OFFCURVE",
"650 18 OFFCURVE",
"650 16 CURVE SMOOTH",
"650 8 OFFCURVE",
"656 4 OFFCURVE",
"670 4 CURVE SMOOTH",
"678 4 OFFCURVE",
"686 6 OFFCURVE",
"693 10 CURVE",
"722 -30 OFFCURVE",
"754 -50 OFFCURVE",
"790 -50 CURVE SMOOTH",
"827 -50 OFFCURVE",
"865 -31 OFFCURVE",
"903 8 CURVE SMOOTH",
"907 11 OFFCURVE",
"909 15 OFFCURVE",
"909 18 CURVE SMOOTH",
"909 20 OFFCURVE",
"908 21 OFFCURVE",
"907 21 CURVE",
"908 21 OFFCURVE",
"898 12 OFFCURVE",
"877 -5 CURVE SMOOTH",
"856 -22 OFFCURVE",
"836 -30 OFFCURVE",
"818 -30 CURVE SMOOTH",
"785 -30 OFFCURVE",
"754 -2 OFFCURVE",
"727 54 CURVE",
"737 76 OFFCURVE",
"746 102 OFFCURVE",
"754 133 CURVE SMOOTH",
"756 142 OFFCURVE",
"764 168 OFFCURVE",
"774 214 CURVE SMOOTH",
"801 325 OFFCURVE",
"823 403 OFFCURVE",
"840 446 CURVE SMOOTH",
"877 538 OFFCURVE",
"926 597 OFFCURVE",
"985 624 CURVE SMOOTH",
"999 631 OFFCURVE",
"1014 635 OFFCURVE",
"1028 635 CURVE SMOOTH",
"1054 635 OFFCURVE",
"1077 625 OFFCURVE",
"1096 605 CURVE SMOOTH",
"1113 588 OFFCURVE",
"1125 566 OFFCURVE",
"1133 539 CURVE SMOOTH",
"1135 534 OFFCURVE",
"1137 531 OFFCURVE",
"1139 531 CURVE SMOOTH",
"1141 531 OFFCURVE",
"1142 532 OFFCURVE",
"1142 535 CURVE SMOOTH",
"1142 565 OFFCURVE",
"1128 597 OFFCURVE",
"1100 630 CURVE SMOOTH",
"1072 665 OFFCURVE",
"1042 683 OFFCURVE",
"1012 683 CURVE SMOOTH",
"994 683 OFFCURVE",
"976 678 OFFCURVE",
"958 668 CURVE SMOOTH",
"897 634 OFFCURVE",
"850 570 OFFCURVE",
"817 477 CURVE SMOOTH",
"802 434 OFFCURVE",
"783 354 OFFCURVE",
"760 237 CURVE SMOOTH",
"745 157 OFFCURVE",
"731 103 OFFCURVE",
"717 73 CURVE",
"686 143 OFFCURVE",
"656 249 OFFCURVE",
"629 395 CURVE SMOOTH",
"611 493 LINE SMOOTH",
"607 512 OFFCURVE",
"604 526 OFFCURVE",
"603 536 CURVE SMOOTH",
"602 545 OFFCURVE",
"601 555 OFFCURVE",
"601 563 CURVE",
"599 577 OFFCURVE",
"595 583 OFFCURVE",
"588 583 CURVE SMOOTH",
"582 583 OFFCURVE",
"578 580 OFFCURVE",
"575 576 CURVE",
"565 573 OFFCURVE",
"552 569 OFFCURVE",
"534 566 CURVE",
"539 599 OFFCURVE",
"542 631 OFFCURVE",
"542 660 CURVE SMOOTH",
"542 678 OFFCURVE",
"541 694 OFFCURVE",
"540 709 CURVE",
"539 712 OFFCURVE",
"538 713 OFFCURVE",
"536 713 CURVE SMOOTH",
"532 713 OFFCURVE",
"530 711 OFFCURVE",
"530 706 CURVE SMOOTH",
"530 651 OFFCURVE",
"527 603 OFFCURVE",
"522 564 CURVE",
"471 557 OFFCURVE",
"421 550 OFFCURVE",
"371 542 CURVE SMOOTH",
"293 530 OFFCURVE",
"233 512 OFFCURVE",
"190 492 CURVE SMOOTH",
"131 465 OFFCURVE",
"102 431 OFFCURVE",
"102 391 CURVE SMOOTH",
"102 354 OFFCURVE",
"117 321 OFFCURVE",
"147 290 CURVE SMOOTH",
"178 259 OFFCURVE",
"211 244 OFFCURVE",
"248 244 CURVE SMOOTH",
"253 244 OFFCURVE",
"256 245 OFFCURVE",
"256 248 CURVE SMOOTH",
"256 249 OFFCURVE",
"254 250 OFFCURVE",
"250 251 CURVE SMOOTH",
"219 259 OFFCURVE",
"189 276 OFFCURVE",
"162 302 CURVE SMOOTH",
"133 332 OFFCURVE",
"118 361 OFFCURVE",
"118 391 CURVE SMOOTH",
"118 430 OFFCURVE",
"156 459 OFFCURVE",
"231 479 CURVE SMOOTH",
"262 487 OFFCURVE",
"315 496 OFFCURVE",
"390 504 CURVE SMOOTH",
"458 511 OFFCURVE",
"499 516 OFFCURVE",
"513 518 CURVE",
"500 455 OFFCURVE",
"481 391 OFFCURVE",
"456 327 CURVE SMOOTH",
"426 248 OFFCURVE",
"388 175 OFFCURVE",
"344 106 CURVE SMOOTH",
"286 15 OFFCURVE",
"229 -42 OFFCURVE",
"175 -66 CURVE SMOOTH",
"165 -69 OFFCURVE",
"153 -73 OFFCURVE",
"136 -76 CURVE SMOOTH",
"130 -77 OFFCURVE",
"127 -79 OFFCURVE",
"127 -83 CURVE SMOOTH",
"127 -87 OFFCURVE",
"130 -89 OFFCURVE",
"137 -89 CURVE SMOOTH",
"157 -89 OFFCURVE",
"181 -81 OFFCURVE",
"207 -64 CURVE SMOOTH",
"256 -31 OFFCURVE",
"304 25 OFFCURVE",
"354 104 CURVE SMOOTH",
"393 165 OFFCURVE",
"428 232 OFFCURVE",
"458 304 CURVE SMOOTH",
"489 379 OFFCURVE",
"512 450 OFFCURVE",
"526 520 CURVE",
"547 523 OFFCURVE",
"563 528 OFFCURVE",
"574 533 CURVE",
"575 527 OFFCURVE",
"575 522 OFFCURVE",
"575 516 CURVE SMOOTH",
"575 441 OFFCURVE",
"552 353 OFFCURVE",
"505 254 CURVE SMOOTH",
"457 150 OFFCURVE",
"398 64 OFFCURVE",
"328 -5 CURVE SMOOTH",
"248 -83 OFFCURVE",
"168 -122 OFFCURVE",
"89 -122 CURVE SMOOTH",
"69 -122 OFFCURVE",
"52 -114 OFFCURVE",
"40 -98 CURVE SMOOTH",
"28 -83 OFFCURVE",
"21 -65 OFFCURVE",
"21 -44 CURVE SMOOTH",
"21 -30 OFFCURVE",
"25 -15 OFFCURVE",
"31 1 CURVE SMOOTH",
"37 17 OFFCURVE",
"41 26 OFFCURVE",
"41 26 CURVE",
"41 29 OFFCURVE",
"40 30 OFFCURVE",
"38 30 CURVE SMOOTH",
"37 30 OFFCURVE",
"35 29 OFFCURVE",
"33 27 CURVE SMOOTH",
"12 -2 OFFCURVE",
"2 -30 OFFCURVE",
"2 -58 CURVE SMOOTH",
"2 -82 OFFCURVE",
"10 -102 OFFCURVE",
"25 -116 CURVE SMOOTH",
"40 -130 OFFCURVE",
"60 -137 OFFCURVE",
"85 -137 CURVE SMOOTH"
);
}
);
width = 908;
}
);
note = N;
unicode = 004E;
},
